SplineFontDB: 3.0
FontName: Appu-Bold
FullName: Appu Bold
FamilyName: Appu
Weight: Bold
Copyright: Copyright (c) 2014 by TipTopTyp. All rights reserved under SIL openfont License 1.1
Version: 1.0.1
ItalicAngle: 0
UnderlinePosition: -399
UnderlineWidth: 26
Ascent: 819
Descent: 205
UFOAscent: 800
UFODescent: -200
LayerCount: 2
Layer: 0 1 "Back"  1
Layer: 1 1 "Fore"  0
FSType: 0
OS2Version: 0
OS2_WeightWidthSlopeOnly: 0
OS2_UseTypoMetrics: 0
CreationTime: 1417704501
ModificationTime: 1417715414
PfmFamily: 17
TTFWeight: 700
TTFWidth: 5
LineGap: 0
VLineGap: 0
Panose: 2 11 6 0 0 0 0 0 0 0
OS2TypoAscent: 999
OS2TypoAOffset: 0
OS2TypoDescent: -365
OS2TypoDOffset: 0
OS2TypoLinegap: 0
OS2WinAscent: 1121
OS2WinAOffset: 0
OS2WinDescent: 515
OS2WinDOffset: 0
HheadAscent: 0
HheadAOffset: 1
HheadDescent: 0
HheadDOffset: 1
OS2SubXSize: 932
OS2SubYSize: 866
OS2SubXOff: 0
OS2SubYOff: 266
OS2SupXSize: 932
OS2SupYSize: 866
OS2SupXOff: 0
OS2SupYOff: 666
OS2StrikeYSize: 67
OS2StrikeYPos: 333
OS2Vendor: 'ACE '
OS2CodePages: 00000001.00000000
OS2UnicodeRanges: 80008023.00002042.00000000.00000000
Lookup: 4 0 0 "halnHalantFormslookup29"  {"halnHalantFormslookup29 subtable"  } ['haln' ('deva' <'dflt' 'MAR ' 'NEP ' > 'DFLT' <'dflt' > ) ]
Lookup: 1 0 0 "LocalizedMrForms_lookup0"  {"LocalizedMrForms_lookup0 subtable"  } ['locl' ('deva' <'MAR ' > ) ]
Lookup: 4 0 0 "LocalizedMrHalfFormslookup1"  {"LocalizedMrHalfFormslookup1 subtable"  } ['locl' ('deva' <'MAR ' > ) ]
Lookup: 1 0 0 "LocalizedNpFormslookup2"  {"LocalizedNpFormslookup2 subtable"  } ['locl' ('deva' <'NEP ' > ) ]
Lookup: 4 0 0 "LocalizedNpFormslookup3"  {"LocalizedNpFormslookup3 subtable"  } ['locl' ('deva' <'NEP ' > ) ]
Lookup: 4 0 0 "NuktaFormslookup5"  {"NuktaFormslookup5 subtable"  } ['nukt' ('deva' <'dflt' 'MAR ' 'NEP ' > ) ]
Lookup: 4 0 0 "AkhandFormslookup6"  {"AkhandFormslookup6 subtable"  } ['akhn' ('deva' <'dflt' 'MAR ' 'NEP ' > ) ]

StartChar: A
Encoding: 65 65 1
Width: 693
VWidth: 0
Flags: W
PickledData: "(dp1
S'com.typemytype.robofont.layerData'
p2
(dp3
S'formes'
p4
(dp5
S'name'
p6
S'A'
sS'lib'
p7
(dp8
sS'unicodes'
p9
(tsS'width'
p10
I693
sS'contours'
p11
(tsS'components'
p12
(tsS'anchors'
p13
(tssS'mask'
p14
(dp15
g6
S'A'
sg7
(dp16
sg9
(tsg10
I693
sg11
(tsg12
(tsg13
(tsss."
LayerCount: 2
Fore
SplineSet
349.894407195 498.979724575 m 1,0,-1
 265.333333333 272 l 1,1,-1
 432.277108434 272 l 1,2,-1
 349.894407195 498.979724575 l 1,0,-1
477.646084337 147 m 1,3,-1
 218.764705882 147 l 1,4,-1
 164 0 l 1,5,-1
 2 0 l 1,6,-1
 280 717 l 1,7,-1
 421 717 l 1,8,-1
 691 0 l 1,9,-1
 531 0 l 1,10,-1
 477.646084337 147 l 1,3,-1
EndSplineSet
EndChar

StartChar: AE
Encoding: 198 198 2
Width: 908
VWidth: 0
Flags: W
PickledData: "(dp1
S'com.typemytype.robofont.layerData'
p2
(dp3
S'formes'
p4
(dp5
S'name'
p6
S'AE'
p7
sS'lib'
p8
(dp9
sS'unicodes'
p10
(tsS'width'
p11
I908
sS'contours'
p12
((dp13
S'points'
p14
((dp15
S'segmentType'
p16
S'line'
p17
sS'x'
I533
sS'smooth'
p18
I00
sS'y'
I435
s(dp19
g16
S'line'
p20
sS'x'
I852
sg18
I00
sS'y'
I435
s(dp21
g16
S'line'
p22
sS'x'
I852
sg18
I00
sS'y'
I307
s(dp23
g16
S'line'
p24
sS'x'
I533
sg18
I00
sS'y'
I307
stp25
s(dp26
g14
((dp27
g16
S'line'
p28
sS'x'
I247
sg18
I00
sS'y'
I251
s(dp29
g16
S'line'
p30
sS'x'
I516
sg18
I00
sS'y'
I251
s(dp31
g16
S'line'
p32
sS'x'
I516
sg18
I00
sS'y'
I123
s(dp33
g16
S'line'
p34
sS'x'
I247
sg18
I00
sS'y'
I123
stp35
s(dp36
g14
((dp37
g16
S'line'
p38
sS'x'
I531
sg18
I00
sS'y'
I128
s(dp39
g16
S'line'
p40
sS'x'
I870
sg18
I00
sS'y'
I128
s(dp41
g16
S'line'
p42
sS'x'
I870
sg18
I00
sS'y'
I0
s(dp43
g16
S'line'
p44
sS'x'
I531
sg18
I00
sS'y'
I0
stp45
s(dp46
g14
((dp47
g16
S'line'
p48
sS'x'
I612
sg18
I00
sS'y'
I734
s(dp49
g16
S'line'
p50
sS'x'
I612
sg18
I00
sS'y'
I0
s(dp51
g16
S'line'
p52
sS'x'
I448
sg18
I00
sS'y'
I0
s(dp53
g16
S'line'
p54
sS'x'
I448
sg18
I00
sS'y'
I734
stp55
s(dp56
g14
((dp57
g16
S'line'
p58
sS'x'
I538
sg18
I00
sS'y'
I734
s(dp59
g16
S'line'
p60
sS'x'
I871
sg18
I00
sS'y'
I734
s(dp61
g16
S'line'
p62
sS'x'
I871
sg18
I00
sS'y'
I606
s(dp63
g16
S'line'
p64
sS'x'
I538
sg18
I00
sS'y'
I606
stp65
s(dp66
g14
((dp67
g16
S'line'
p68
sS'x'
I25
sg18
I00
sS'y'
I36
s(dp69
g16
S'line'
p70
sS'x'
I447
sg18
I00
sS'y'
I733
s(dp71
g16
S'line'
p72
sS'x'
I571
sg18
I00
sS'y'
I659
s(dp73
g16
S'line'
p74
sS'x'
I149
sg18
I00
sS'y'
I-38
stp75
stp76
sS'components'
p77
((dp78
S'transformation'
p79
(I1
I0
I0
I1
I418
I0
tp80
sS'baseGlyph'
p81
S'E'
stp82
sS'anchors'
p83
(tssS'mask'
p84
(dp85
g6
S'AE'
p86
sg8
(dp87
sg10
(tsg11
I908
sg12
(tsg77
(tsg83
(tsssS'com.typemytype.robofont.mark'
p88
(F1
F0.43530000000000002
F0.81179999999999997
F1
tp89
s."
LayerCount: 2
Fore
SplineSet
5 0 m 1,0,-1
 447 733 l 1,1,-1
 448 732.403225806 l 1,2,-1
 448 734 l 1,3,-1
 538 734 l 1,4,-1
 612 734 l 1,5,-1
 871 734 l 1,6,-1
 871 606 l 1,7,-1
 612 606 l 1,8,-1
 612 435 l 1,9,-1
 852 435 l 1,10,-1
 852 307 l 1,11,-1
 612 307 l 1,12,-1
 612 128 l 1,13,-1
 870 128 l 1,14,-1
 870 0 l 1,15,-1
 612 0 l 1,16,-1
 531 0 l 1,17,-1
 448 0 l 1,18,-1
 448 123 l 1,19,-1
 247 123 l 1,20,-1
 247 123.872180451 l 1,21,-1
 172 0 l 1,22,-1
 5 0 l 1,0,-1
448 455.84962406 m 1,23,-1
 323.971168437 251 l 1,24,-1
 448 251 l 1,25,-1
 448 455.84962406 l 1,23,-1
EndSplineSet
EndChar

StartChar: B
Encoding: 66 66 12
Width: 563
VWidth: 0
Flags: W
PickledData: "(dp1
S'com.typemytype.robofont.layerData'
p2
(dp3
S'formes'
p4
(dp5
S'name'
p6
S'B'
sS'lib'
p7
(dp8
sS'unicodes'
p9
(tsS'width'
p10
I563
sS'contours'
p11
(tsS'components'
p12
(tsS'anchors'
p13
(tssS'mask'
p14
(dp15
g6
S'B'
sg7
(dp16
sg9
(tsg10
I563
sg11
(tsg12
(tsg13
(tsss."
LayerCount: 2
Fore
SplineSet
258 294 m 1,0,-1
 205 294 l 1,1,-1
 205 125 l 1,2,-1
 269 125 l 2,3,4
 387 125 387 125 387 209 c 0,5,6
 387 249 387 249 362 271.5 c 128,-1,7
 337 294 337 294 295 294 c 2,8,-1
 258 294 l 1,0,-1
459.904068772 363.965383225 m 1,9,10
 486.43170964 344.623592239 486.43170964 344.623592239 505.823129372 321.071848137 c 128,-1,11
 525.214549105 297.520104035 525.214549105 297.520104035 536.607274552 268.517790272 c 128,-1,12
 548 239.515476509 548 239.515476509 548 209 c 0,13,14
 548 0 548 0 269 0 c 2,15,-1
 205 0 l 1,16,-1
 125 0 l 1,17,-1
 45 0 l 1,18,-1
 45 717 l 1,19,-1
 124 717 l 1,20,-1
 205 717 l 1,21,-1
 240 717 l 2,22,23
 386 717 386 717 456.5 666 c 128,-1,24
 527 615 527 615 527 506 c 0,25,26
 527 467.704285729 527 467.704285729 509.703613833 430.578026306 c 128,-1,27
 492.407227665 393.451766882 492.407227665 393.451766882 459.904068772 363.965383225 c 1,9,10
258 419 m 2,28,29
 313 419 313 419 340 444.5 c 128,-1,30
 367 470 367 470 367 506 c 0,31,32
 367 592 367 592 240 592 c 2,33,-1
 205 592 l 1,34,-1
 205 419 l 1,35,-1
 258 419 l 2,28,29
EndSplineSet
EndChar

StartChar: C
Encoding: 67 67 13
Width: 651
VWidth: 0
Flags: W
PickledData: "(dp1
S'com.typemytype.robofont.layerData'
p2
(dp3
S'formes'
p4
(dp5
S'name'
p6
S'C'
sS'lib'
p7
(dp8
sS'unicodes'
p9
(tsS'width'
p10
I651
sS'contours'
p11
(tsS'components'
p12
(tsS'anchors'
p13
(tssS'mask'
p14
(dp15
g6
S'C'
sg7
(dp16
sg9
(tsg10
I651
sg11
(tsg12
(tsg13
(tsss."
LayerCount: 2
Fore
SplineSet
545 178 m 1,0,1
 484 113 484 113 384 113 c 0,2,3
 286 113 286 113 230.5 180.5 c 128,-1,4
 175 248 175 248 175 353 c 0,5,6
 175 462 175 462 228.5 533.5 c 128,-1,7
 282 605 282 605 383 605 c 0,8,9
 473 605 473 605 539 537 c 1,10,-1
 633 629 l 1,11,12
 532 730 532 730 383 730 c 0,13,14
 217 730 217 730 116 629.5 c 128,-1,15
 15 529 15 529 15 353 c 0,16,17
 15 182 15 182 119.5 85 c 128,-1,18
 224 -12 224 -12 384 -12 c 0,19,20
 546 -12 546 -12 641 86 c 1,21,-1
 545 178 l 1,0,1
EndSplineSet
EndChar

StartChar: D
Encoding: 68 68 19
Width: 665
VWidth: 0
Flags: W
PickledData: "(dp1
S'com.typemytype.robofont.layerData'
p2
(dp3
S'formes'
p4
(dp5
S'name'
p6
S'D'
sS'lib'
p7
(dp8
sS'unicodes'
p9
(tsS'width'
p10
I665
sS'contours'
p11
(tsS'components'
p12
(tsS'anchors'
p13
(tssS'mask'
p14
(dp15
g6
S'D'
sg7
(dp16
sg9
(tsg10
I665
sg11
(tsg12
(tsg13
(tsss."
LayerCount: 2
Fore
SplineSet
205 592 m 1,0,-1
 205 125 l 1,1,-1
 264 125 l 2,2,3
 376 125 376 125 433 190.5 c 128,-1,4
 490 256 490 256 490 358 c 128,-1,5
 490 460 490 460 429 526 c 128,-1,6
 368 592 368 592 259 592 c 2,7,-1
 205 592 l 1,0,-1
120 0 m 1,8,-1
 45 0 l 1,9,-1
 45 717 l 1,10,-1
 120 717 l 1,11,-1
 205 717 l 1,12,-1
 259 717 l 2,13,14
 434 717 434 717 542 620 c 128,-1,15
 650 523 650 523 650 358 c 128,-1,16
 650 193 650 193 547 96.5 c 128,-1,17
 444 0 444 0 264 0 c 2,18,-1
 205 0 l 1,19,-1
 120 0 l 1,8,-1
EndSplineSet
EndChar

StartChar: Danda
Encoding: 65537 -1 20
Width: 324
VWidth: 0
Flags: W
PickledData: "(dp1
S'com.typemytype.robofont.layerData'
p2
(dp3
S'formes'
p4
(dp5
S'name'
p6
S'Danda'
p7
sS'lib'
p8
(dp9
sS'unicodes'
p10
(tsS'width'
p11
I324
sS'contours'
p12
(tsS'components'
p13
(tsS'anchors'
p14
(tssS'mask'
p15
(dp16
g6
S'Danda'
p17
sg8
(dp18
sg10
(tsg11
I324
sg12
(tsg13
(tsg14
(tsss."
LayerCount: 2
Fore
SplineSet
81 0 m 1,0,-1
 81 688 l 1,1,-1
 243 688 l 1,2,-1
 243 0 l 1,3,-1
 81 0 l 1,0,-1
EndSplineSet
EndChar

StartChar: E
Encoding: 69 69 23
Width: 483
VWidth: 0
Flags: W
PickledData: "(dp1
S'com.typemytype.robofont.layerData'
p2
(dp3
S'formes'
p4
(dp5
S'name'
p6
S'E'
sS'lib'
p7
(dp8
sS'unicodes'
p9
(tsS'width'
p10
I483
sS'contours'
p11
(tsS'components'
p12
(tsS'anchors'
p13
(tssS'mask'
p14
(dp15
g6
S'E'
sg7
(dp16
sg9
(tsg10
I483
sg11
(tsg12
(tsg13
(tsss."
LayerCount: 2
Fore
SplineSet
125 717 m 1,0,-1
 205 717 l 1,1,-1
 458 717 l 1,2,-1
 458 592 l 1,3,-1
 205 592 l 1,4,-1
 205 425 l 1,5,-1
 437 425 l 1,6,-1
 437 300 l 1,7,-1
 205 300 l 1,8,-1
 205 125 l 1,9,-1
 457 125 l 1,10,-1
 457 0 l 1,11,-1
 205 0 l 1,12,-1
 126 0 l 1,13,-1
 45 0 l 1,14,-1
 45 717 l 1,15,-1
 125 717 l 1,0,-1
EndSplineSet
EndChar

StartChar: Euro
Encoding: 8364 8364 34
Width: 681
VWidth: 0
Flags: W
PickledData: "(dp1
S'com.typemytype.robofont.layerData'
p2
(dp3
S'formes'
p4
(dp5
S'name'
p6
S'Euro'
p7
sS'lib'
p8
(dp9
sS'unicodes'
p10
(tsS'width'
p11
I681
sS'contours'
p12
((dp13
S'points'
p14
((dp15
S'segmentType'
p16
S'line'
p17
sS'x'
I60
sS'smooth'
p18
I00
sS'y'
I410
s(dp19
g16
S'line'
p20
sS'x'
I60
sg18
I00
sS'y'
I524
s(dp21
g16
S'line'
p22
sS'x'
I513
sg18
I00
sS'y'
I524
s(dp23
g16
S'line'
p24
sS'x'
I513
sg18
I00
sS'y'
I410
stp25
s(dp26
g14
((dp27
g16
S'line'
p28
sS'x'
I60
sg18
I00
sS'y'
I199
s(dp29
g16
S'line'
p30
sS'x'
I60
sg18
I00
sS'y'
I314
s(dp31
g16
S'line'
p32
sS'x'
I513
sg18
I00
sS'y'
I314
s(dp33
g16
S'line'
p34
sS'x'
I513
sg18
I00
sS'y'
I199
stp35
s(dp36
g14
((dp37
g16
S'line'
p38
sS'x'
I58
sg18
I00
sS'y'
I403
s(dp39
g16
S'line'
p40
sS'x'
I58
sg18
I00
sS'y'
I499
s(dp41
g16
S'line'
p42
sS'x'
I511
sg18
I00
sS'y'
I499
s(dp43
g16
S'line'
p44
sS'x'
I471
sg18
I00
sS'y'
I403
stp45
s(dp46
g14
((dp47
g16
S'line'
p48
sS'x'
I58
sg18
I00
sS'y'
I226
s(dp49
g16
S'line'
p50
sS'x'
I28
sg18
I00
sS'y'
I323
s(dp51
g16
S'line'
p52
sS'x'
I481
sg18
I00
sS'y'
I323
s(dp53
g16
S'line'
p54
sS'x'
I441
sg18
I00
sS'y'
I226
stp55
s(dp56
g14
((dp57
g16
S'line'
p58
sS'x'
I661
sg18
I00
sS'y'
I88
s(dp59
S'y'
I16
sS'x'
I592
sg18
I00
s(dp60
S'y'
I-12
sS'x'
I500
sg18
I00
s(dp61
g16
S'curve'
p62
sS'x'
I398
sg18
I01
sS'y'
I-12
s(dp63
S'y'
I-12
sS'x'
I187
sg18
I00
s(dp64
S'y'
I121
sS'x'
I20
sg18
I00
s(dp65
g16
S'curve'
p66
sS'x'
I20
sg18
I01
sS'y'
I361
s(dp67
S'y'
I605
sS'x'
I20
sg18
I00
s(dp68
S'y'
I748
sS'x'
I175
sg18
I00
s(dp69
g16
S'curve'
p70
sS'x'
I397
sg18
I01
sS'y'
I748
s(dp71
S'y'
I748
sS'x'
I496
sg18
I00
s(dp72
S'y'
I713
sS'x'
I585
sg18
I00
s(dp73
g16
S'curve'
p74
sS'x'
I653
sg18
I00
sS'y'
I644
s(dp75
g16
S'line'
p76
sS'x'
I557
sg18
I00
sS'y'
I550
s(dp77
S'y'
I593
sS'x'
I515
sg18
I00
s(dp78
S'y'
I620
sS'x'
I460
sg18
I00
s(dp79
g16
S'curve'
p80
sS'x'
I397
sg18
I01
sS'y'
I620
s(dp81
S'y'
I620
sS'x'
I252
sg18
I00
s(dp82
S'y'
I501
sS'x'
I184
sg18
I00
s(dp83
g16
S'curve'
p84
sS'x'
I184
sg18
I01
sS'y'
I361
s(dp85
S'y'
I223
sS'x'
I184
sg18
I00
s(dp86
S'y'
I116
sS'x'
I261
sg18
I00
s(dp87
g16
S'curve'
p88
sS'x'
I398
sg18
I01
sS'y'
I116
s(dp89
S'y'
I116
sS'x'
I462
sg18
I00
s(dp90
S'y'
I136
sS'x'
I520
sg18
I00
s(dp91
g16
S'curve'
p92
sS'x'
I563
sg18
I00
sS'y'
I182
stp93
stp94
sS'components'
p95
((dp96
S'transformation'
p97
(I1
I0
I0
I1
I0
I0
tp98
sS'baseGlyph'
p99
S'C'
stp100
sS'anchors'
p101
(tssS'mask'
p102
(dp103
g6
S'Euro'
p104
sg8
(dp105
sg10
(tsg11
I681
sg12
(tsg95
(tsg101
(tsssS'com.typemytype.robofont.mark'
p106
(F0
F1
F0
F1
tp107
s."
LayerCount: 2
Fore
SplineSet
661 88 m 1,0,1
 565 -12 565 -12 398 -12 c 0,2,3
 234 -12 234 -12 127 87.5 c 128,-1,4
 20 187 20 187 20 361 c 0,5,6
 20 541 20 541 124 644.5 c 128,-1,7
 228 748 228 748 397 748 c 0,8,9
 551 748 551 748 653 644 c 1,10,-1
 566 554 l 1,11,12
 493 625 493 625 398 625 c 0,13,14
 326.605658116 625 326.605658116 625 276.847391057 591.388717765 c 128,-1,15
 227.089123998 557.77743553 227.089123998 557.77743553 200.883005652 499 c 1,16,-1
 511 499 l 1,17,-1
 471 403 l 1,18,-1
 176.153189934 403 l 1,19,20
 174 382.463500277 174 382.463500277 174 361 c 0,21,22
 174 341.598664145 174 341.598664145 176.037966471 323 c 1,23,-1
 481 323 l 1,24,-1
 441 226 l 1,25,-1
 204.01166873 226 l 1,26,27
 231.5889061 172.035809484 231.5889061 172.035809484 281.425820019 141.517904742 c 128,-1,28
 331.262733937 111 331.262733937 111 399 111 c 0,29,30
 507 111 507 111 573 178 c 1,31,-1
 661 88 l 1,0,1
EndSplineSet
EndChar

StartChar: F
Encoding: 70 70 35
Width: 458
VWidth: 0
Flags: W
PickledData: "(dp1
S'com.typemytype.robofont.layerData'
p2
(dp3
S'formes'
p4
(dp5
S'name'
p6
S'F'
sS'lib'
p7
(dp8
sS'unicodes'
p9
(tsS'width'
p10
I458
sS'contours'
p11
(tsS'components'
p12
(tsS'anchors'
p13
(tssS'mask'
p14
(dp15
g6
S'F'
sg7
(dp16
sg9
(tsg10
I458
sg11
(tsg12
(tsg13
(tsss."
LayerCount: 2
Fore
SplineSet
205 425 m 1,0,-1
 437 425 l 1,1,-1
 437 300 l 1,2,-1
 205 300 l 1,3,-1
 205 0 l 1,4,-1
 45 0 l 1,5,-1
 45 717 l 1,6,-1
 125 717 l 1,7,-1
 205 717 l 1,8,-1
 458 717 l 1,9,-1
 458 592 l 1,10,-1
 205 592 l 1,11,-1
 205 425 l 1,0,-1
EndSplineSet
EndChar

StartChar: G
Encoding: 71 71 36
Width: 734
VWidth: 0
Flags: W
PickledData: "(dp1
S'com.typemytype.robofont.layerData'
p2
(dp3
S'formes'
p4
(dp5
S'name'
p6
S'G'
sS'lib'
p7
(dp8
sS'unicodes'
p9
(tsS'width'
p10
I734
sS'contours'
p11
(tsS'components'
p12
(tsS'anchors'
p13
(tssS'mask'
p14
(dp15
g6
S'G'
sg7
(dp16
sg9
(tsg10
I734
sg11
(tsg12
(tsg13
(tsss."
LayerCount: 2
Fore
SplineSet
596.518215402 62.4641046266 m 1,0,1
 506.125902441 -14 506.125902441 -14 373 -14 c 0,2,3
 210 -14 210 -14 112.5 87 c 128,-1,4
 15 188 15 188 15 354 c 0,5,6
 15 523 15 523 116 626.5 c 128,-1,7
 217 730 217 730 387 730 c 0,8,9
 558 730 558 730 665 617 c 1,10,-1
 567 527 l 1,11,12
 496 605 496 605 387 605 c 0,13,14
 282 605 282 605 228.5 532.5 c 128,-1,15
 175 460 175 460 175 354 c 0,16,17
 175 251 175 251 226 181.5 c 128,-1,18
 277 112 277 112 376 112 c 0,19,20
 424.343174122 112 424.343174122 112 457.161975827 126.236697322 c 128,-1,21
 489.980777531 140.473394644 489.980777531 140.473394644 517.618374837 169.00117748 c 1,22,-1
 468 236 l 1,23,-1
 577 318 l 1,24,-1
 577 319 l 1,25,-1
 685 319 l 1,26,-1
 685 172.169491525 l 1,27,-1
 754 79 l 1,28,-1
 645 -3 l 1,29,-1
 596.518215402 62.4641046266 l 1,0,1
EndSplineSet
EndChar

StartChar: Gastick
Encoding: 65538 -1 38
Width: 257
VWidth: 0
Flags: W
PickledData: "(dp1
S'com.typemytype.robofont.layerData'
p2
(dp3
S'formes'
p4
(dp5
S'name'
p6
S'Gastick'
p7
sS'lib'
p8
(dp9
sS'unicodes'
p10
(tsS'width'
p11
I257
sS'contours'
p12
(tsS'components'
p13
(tsS'anchors'
p14
(tssS'mask'
p15
(dp16
g6
S'Gastick'
p17
sg8
(dp18
sg10
(tsg11
I257
sg12
(tsg13
(tsg14
(tsss."
LayerCount: 2
Fore
SplineSet
173 649 m 1,0,1
 173 320 l 2,2,3
 173 266 173 266 166.5 242 c 128,-1,4
 160 218 160 218 142 218 c 0,5,6
 121 218 121 218 95.5 244 c 128,-1,7
 70 270 70 270 70 296 c 0,8,9
 70 332 70 332 141 332 c 2,10,-1
 173 332 l 1025,11,-1
EndSplineSet
EndChar

StartChar: H
Encoding: 72 72 43
Width: 670
VWidth: 0
Flags: W
PickledData: "(dp1
S'com.typemytype.robofont.layerData'
p2
(dp3
S'formes'
p4
(dp5
S'name'
p6
S'H'
sS'lib'
p7
(dp8
sS'unicodes'
p9
(tsS'width'
p10
I670
sS'contours'
p11
(tsS'components'
p12
(tsS'anchors'
p13
(tssS'mask'
p14
(dp15
g6
S'H'
sg7
(dp16
sg9
(tsg10
I670
sg11
(tsg12
(tsg13
(tsss."
LayerCount: 2
Fore
SplineSet
625 717 m 1,0,-1
 625 0 l 1,1,-1
 465 0 l 1,2,-1
 465 297 l 1,3,-1
 205 297 l 1,4,-1
 205 0 l 1,5,-1
 45 0 l 1,6,-1
 45 717 l 1,7,-1
 205 717 l 1,8,-1
 205 422 l 1,9,-1
 465 422 l 1,10,-1
 465 717 l 1,11,-1
 625 717 l 1,0,-1
EndSplineSet
EndChar

StartChar: I
Encoding: 73 73 45
Width: 250
VWidth: 0
Flags: W
PickledData: "(dp1
S'com.typemytype.robofont.layerData'
p2
(dp3
S'formes'
p4
(dp5
S'name'
p6
S'I'
sS'lib'
p7
(dp8
sS'unicodes'
p9
(tsS'width'
p10
I250
sS'contours'
p11
(tsS'components'
p12
(tsS'anchors'
p13
(tssS'mask'
p14
(dp15
g6
S'I'
sg7
(dp16
sg9
(tsg10
I250
sg11
(tsg12
(tsg13
(tsss."
LayerCount: 2
Fore
SplineSet
205 717 m 1,0,-1
 205 0 l 1,1,-1
 45 0 l 1,2,-1
 45 717 l 1,3,-1
 205 717 l 1,0,-1
EndSplineSet
EndChar

StartChar: J
Encoding: 74 74 55
Width: 250
VWidth: 0
Flags: W
PickledData: "(dp1
S'com.typemytype.robofont.layerData'
p2
(dp3
S'formes'
p4
(dp5
S'name'
p6
S'J'
sS'lib'
p7
(dp8
sS'unicodes'
p9
(tsS'width'
p10
I250
sS'contours'
p11
(tsS'components'
p12
(tsS'anchors'
p13
(tssS'mask'
p14
(dp15
g6
S'J'
sg7
(dp16
sg9
(tsg10
I250
sg11
(tsg12
(tsg13
(tsss."
LayerCount: 2
Fore
SplineSet
205 717 m 1,0,-1
 205 75 l 2,1,2
 205 7 205 7 190.5 -43 c 128,-1,3
 176 -93 176 -93 153 -121.5 c 128,-1,4
 130 -150 130 -150 95.5 -166.5 c 128,-1,5
 61 -183 61 -183 28.5 -188 c 128,-1,6
 -4 -193 -4 -193 -46 -193 c 1,7,-1
 -67 -54 l 1,8,9
 -4 -48 -4 -48 20.5 -18 c 128,-1,10
 45 12 45 12 45 75 c 2,11,-1
 45 717 l 1,12,-1
 205 717 l 1,0,-1
EndSplineSet
EndChar

StartChar: K
Encoding: 75 75 57
Width: 590
VWidth: 0
Flags: W
PickledData: "(dp1
S'com.typemytype.robofont.layerData'
p2
(dp3
S'formes'
p4
(dp5
S'name'
p6
S'K'
sS'lib'
p7
(dp8
sS'unicodes'
p9
(tsS'width'
p10
I590
sS'contours'
p11
(tsS'components'
p12
(tsS'anchors'
p13
(tssS'mask'
p14
(dp15
g6
S'K'
sg7
(dp16
sg9
(tsg10
I590
sg11
(tsg12
(tsg13
(tsss."
LayerCount: 2
Fore
SplineSet
45 0 m 1,0,-1
 45 717 l 1,1,-1
 205 717 l 1,2,-1
 205 469.829842932 l 1,3,-1
 448 744 l 1,4,-1
 566 644 l 1,5,-1
 360.758354491 417.804364505 l 1,6,-1
 600 58 l 1,7,-1
 459 -31 l 1,8,-1
 250.77191905 296.588947435 l 1,9,-1
 205 246.143979058 l 1,10,-1
 205 0 l 1,11,-1
 45 0 l 1,0,-1
EndSplineSet
EndChar

StartChar: L
Encoding: 76 76 59
Width: 473
VWidth: 0
Flags: W
PickledData: "(dp1
S'com.typemytype.robofont.layerData'
p2
(dp3
S'formes'
p4
(dp5
S'name'
p6
S'L'
sS'lib'
p7
(dp8
sS'unicodes'
p9
(tsS'width'
p10
I473
sS'contours'
p11
(tsS'components'
p12
(tsS'anchors'
p13
(tssS'mask'
p14
(dp15
g6
S'L'
sg7
(dp16
sg9
(tsg10
I473
sg11
(tsg12
(tsg13
(tsss."
LayerCount: 2
Fore
SplineSet
124 0 m 1,0,-1
 45 0 l 1,1,-1
 45 718 l 1,2,-1
 205 718 l 1,3,-1
 205 125 l 1,4,-1
 454 125 l 1,5,-1
 454 0 l 1,6,-1
 205 0 l 1,7,-1
 124 0 l 1,0,-1
EndSplineSet
EndChar

StartChar: M
Encoding: 77 77 64
Width: 790
VWidth: 0
Flags: W
PickledData: "(dp1
S'com.typemytype.robofont.layerData'
p2
(dp3
S'formes'
p4
(dp5
S'name'
p6
S'M'
sS'lib'
p7
(dp8
sS'unicodes'
p9
(tsS'width'
p10
I790
sS'contours'
p11
(tsS'components'
p12
(tsS'anchors'
p13
(tssS'mask'
p14
(dp15
g6
S'M'
sg7
(dp16
sg9
(tsg10
I790
sg11
(tsg12
(tsg13
(tsss."
LayerCount: 2
Fore
SplineSet
45 0 m 1,0,-1
 45 717 l 1,1,-1
 205 717 l 1,2,-1
 394.134874759 233.574181118 l 1,3,-1
 584 717 l 1,4,-1
 585.022368837 716.443264495 l 1,5,-1
 585 717 l 1,6,-1
 745 717 l 1,7,-1
 745 0 l 1,8,-1
 594 0 l 1,9,-1
 594 431.777777778 l 1,10,-1
 460 0 l 1,11,-1
 330 0 l 1,12,-1
 195 432.175324675 l 1,13,-1
 195 0 l 1,14,-1
 45 0 l 1,0,-1
EndSplineSet
EndChar

StartChar: N
Encoding: 78 78 65
Width: 668
VWidth: 0
Flags: W
PickledData: "(dp1
S'com.typemytype.robofont.layerData'
p2
(dp3
S'formes'
p4
(dp5
S'name'
p6
S'N'
sS'lib'
p7
(dp8
sS'unicodes'
p9
(tsS'width'
p10
I668
sS'contours'
p11
(tsS'components'
p12
(tsS'anchors'
p13
(tssS'mask'
p14
(dp15
g6
S'N'
sg7
(dp16
sg9
(tsg10
I668
sg11
(tsg12
(tsg13
(tsss."
LayerCount: 2
Fore
SplineSet
45 0 m 1,0,-1
 45 717 l 1,1,-1
 205 717 l 1,2,-1
 205 715.829268293 l 1,3,-1
 207 717 l 1,4,-1
 463 280.174603175 l 1,5,-1
 463 717 l 1,6,-1
 623 717 l 1,7,-1
 623 0 l 1,8,-1
 463 0 l 1,9,-1
 463 0.585365853659 l 1,10,-1
 462 0 l 1,11,-1
 205 438.531746032 l 1,12,-1
 205 0 l 1,13,-1
 45 0 l 1,0,-1
EndSplineSet
EndChar

StartChar: O
Encoding: 79 79 70
Width: 747
VWidth: 0
Flags: W
PickledData: "(dp1
S'com.typemytype.robofont.layerData'
p2
(dp3
S'formes'
p4
(dp5
S'name'
p6
S'O'
sS'lib'
p7
(dp8
sS'unicodes'
p9
(tsS'width'
p10
I747
sS'contours'
p11
(tsS'components'
p12
(tsS'anchors'
p13
(tssS'mask'
p14
(dp15
g6
S'O'
sg7
(dp16
sg9
(tsg10
I747
sg11
(tsg12
(tsg13
(tsss."
LayerCount: 2
Fore
SplineSet
15 358 m 128,-1,1
 15 523 15 523 114.5 625.5 c 128,-1,2
 214 728 214 728 372 728 c 0,3,4
 531 728 531 728 631.5 625 c 128,-1,5
 732 522 732 522 732 358 c 0,6,7
 732 193 732 193 632 90 c 128,-1,8
 532 -13 532 -13 374 -13 c 0,9,10
 215 -13 215 -13 115 90 c 128,-1,0
 15 193 15 193 15 358 c 128,-1,1
175 358 m 128,-1,12
 175 256 175 256 226 184 c 128,-1,13
 277 112 277 112 374 112 c 128,-1,14
 471 112 471 112 521.5 184 c 128,-1,15
 572 256 572 256 572 358 c 0,16,17
 572 459 572 459 520 531 c 128,-1,18
 468 603 468 603 372 603 c 128,-1,19
 276 603 276 603 225.5 531.5 c 128,-1,11
 175 460 175 460 175 358 c 128,-1,12
EndSplineSet
EndChar

StartChar: Oslash
Encoding: 216 216 80
Width: 794
VWidth: 0
Flags: W
PickledData: "(dp1
S'com.typemytype.robofont.layerData'
p2
(dp3
S'formes'
p4
(dp5
S'name'
p6
S'Oslash'
p7
sS'lib'
p8
(dp9
sS'unicodes'
p10
(tsS'width'
p11
I794
sS'contours'
p12
((dp13
S'points'
p14
((dp15
S'segmentType'
p16
S'line'
p17
sS'x'
I60
sS'smooth'
p18
I00
sS'y'
I-161
s(dp19
g16
S'line'
p20
sS'x'
I567
sg18
I00
sS'y'
I905
s(dp21
g16
S'line'
p22
sS'x'
I672
sg18
I00
sS'y'
I856
s(dp23
g16
S'line'
p24
sS'x'
I165
sg18
I00
sS'y'
I-210
stp25
stp26
sS'components'
p27
((dp28
S'transformation'
p29
(I1
I0
I0
I1
I0
I0
tp30
sS'baseGlyph'
p31
S'O'
stp32
sS'anchors'
p33
(tssS'mask'
p34
(dp35
g6
S'Oslash'
p36
sg8
(dp37
sg10
(tsg11
I794
sg12
(tsg27
(tsg33
(tsssS'com.typemytype.robofont.mark'
p38
(F0
F1
F0
F1
tp39
s."
LayerCount: 2
Fore
SplineSet
533.704754114 510.636026433 m 1,0,-1
 310.483424051 121.826619157 l 1,1,2
 324.951674278 116.98683032 324.951674278 116.98683032 340.834460482 114.49341516 c 128,-1,3
 356.717246686 112 356.717246686 112 374 112 c 0,4,5
 471 112 471 112 521.5 184 c 128,-1,6
 572 256 572 256 572 358 c 0,7,8
 572 446.011253956 572 446.011253956 533.704754114 510.636026433 c 1,0,-1
445.177667681 589.361486674 m 1,9,10
 411.698025218 603 411.698025218 603 372 603 c 0,11,12
 276 603 276 603 225.5 531.5 c 128,-1,13
 175 460 175 460 175 358 c 0,14,15
 175 335.410039041 175 335.410039041 177.66072999 313.537589193 c 128,-1,16
 180.321459981 291.665139346 180.321459981 291.665139346 185.617533071 270.839421807 c 128,-1,17
 190.913606161 250.013704268 190.913606161 250.013704268 199.221477372 230.564687724 c 128,-1,18
 207.529348584 211.11567118 207.529348584 211.11567118 218.447901471 194.441046108 c 1,19,-1
 445.177667681 589.361486674 l 1,9,10
15 358 m 0,20,21
 15 523 15 523 114.5 625.5 c 128,-1,22
 214 728 214 728 372 728 c 0,23,24
 446.315858083 728 446.315858083 728 510.729902047 703.54110106 c 1,25,-1
 604 866 l 1,26,-1
 705 809 l 1,27,-1
 610.532810348 644.455993361 l 1,28,29
 668.467747964 594.603284076 668.467747964 594.603284076 700.233873982 520.991758702 c 128,-1,30
 732 447.380233328 732 447.380233328 732 358 c 0,31,32
 732 193 732 193 632 90 c 128,-1,33
 532 -13 532 -13 374 -13 c 0,34,35
 305.34902417 -13 305.34902417 -13 245.101926889 7.94439673998 c 1,36,-1
 186 -95 l 1,37,-1
 85 -38 l 1,38,-1
 143.639259234 64.1385170466 l 1,39,40
 82.3807011761 113.883081997 82.3807011761 113.883081997 48.690350588 189.523027212 c 128,-1,41
 15 265.162972427 15 265.162972427 15 358 c 0,20,21
EndSplineSet
EndChar

StartChar: P
Encoding: 80 80 82
Width: 590
VWidth: 0
Flags: W
PickledData: "(dp1
S'com.typemytype.robofont.layerData'
p2
(dp3
S'formes'
p4
(dp5
S'name'
p6
S'P'
sS'lib'
p7
(dp8
sS'unicodes'
p9
(tsS'width'
p10
I590
sS'contours'
p11
(tsS'components'
p12
(tsS'anchors'
p13
(tssS'mask'
p14
(dp15
g6
S'P'
sg7
(dp16
sg9
(tsg10
I590
sg11
(tsg12
(tsg13
(tsss."
LayerCount: 2
Fore
SplineSet
45 0 m 1,0,-1
 45 717 l 1,1,-1
 125 717 l 1,2,-1
 205 717 l 1,3,-1
 287 717 l 2,4,5
 427 717 427 717 503.5 657 c 128,-1,6
 580 597 580 597 580 479 c 128,-1,7
 580 361 580 361 499.5 298 c 128,-1,8
 419 235 419 235 273 235 c 0,9,10
 234.293053943 235.104243774 234.293053943 235.104243774 205 237.678565161 c 1,11,-1
 205 0 l 1,12,-1
 45 0 l 1,0,-1
205 592 m 1,13,-1
 205 363.7565873 l 1,14,15
 223.366081155 361.491429085 223.366081155 361.491429085 239.578075014 360.745714543 c 128,-1,16
 255.790068873 360 255.790068873 360 273 360 c 0,17,18
 344 360 344 360 382 391 c 128,-1,19
 420 422 420 422 420 479 c 0,20,21
 420 533 420 533 386 562.5 c 128,-1,22
 352 592 352 592 287 592 c 2,23,-1
 205 592 l 1,13,-1
EndSplineSet
EndChar

StartChar: Q
Encoding: 81 81 84
Width: 747
VWidth: 0
Flags: W
PickledData: "(dp1
S'com.typemytype.robofont.layerData'
p2
(dp3
S'formes'
p4
(dp5
S'name'
p6
S'Q'
sS'lib'
p7
(dp8
sS'unicodes'
p9
(tsS'width'
p10
I747
sS'contours'
p11
(tsS'components'
p12
(tsS'anchors'
p13
(tssS'mask'
p14
(dp15
g6
S'Q'
sg7
(dp16
sg9
(tsg10
I747
sg11
(tsg12
(tsg13
(tsss."
LayerCount: 2
Fore
SplineSet
175 358 m 128,-1,1
 175 256 175 256 226 184 c 128,-1,2
 277 112 277 112 374 112 c 0,3,4
 421.616853224 112 421.616853224 112 459.710608813 131.289391187 c 1,5,-1
 412 179 l 1,6,-1
 506 273 l 1,7,-1
 548.002635578 230.997364422 l 1,8,9
 559.986133099 259.267330479 559.986133099 259.267330479 565.99306655 291.621054179 c 128,-1,10
 572 323.974777879 572 323.974777879 572 358 c 0,11,12
 572 459 572 459 520 531 c 128,-1,13
 468 603 468 603 372 603 c 128,-1,14
 276 603 276 603 225.5 531.5 c 128,-1,0
 175 460 175 460 175 358 c 128,-1,1
15 358 m 128,-1,16
 15 523 15 523 114.5 625.5 c 128,-1,17
 214 728 214 728 372 728 c 0,18,19
 531 728 531 728 631.5 625 c 128,-1,20
 732 522 732 522 732 358 c 0,21,22
 732 218.454092053 732 218.454092053 658.329621018 120.670378982 c 1,23,-1
 742 37 l 1,24,-1
 648 -57 l 1,25,-1
 558.115114426 32.8848855742 l 1,26,27
 476.759796231 -13 476.759796231 -13 374 -13 c 0,28,29
 215 -13 215 -13 115 90 c 128,-1,15
 15 193 15 193 15 358 c 128,-1,16
EndSplineSet
EndChar

StartChar: R
Encoding: 82 82 85
Width: 583
VWidth: 0
Flags: W
PickledData: "(dp1
S'com.typemytype.robofont.layerData'
p2
(dp3
S'formes'
p4
(dp5
S'name'
p6
S'R'
sS'lib'
p7
(dp8
sS'unicodes'
p9
(tsS'width'
p10
I583
sS'contours'
p11
(tsS'components'
p12
(tsS'anchors'
p13
(tssS'mask'
p14
(dp15
g6
S'R'
sg7
(dp16
sg9
(tsg10
I583
sg11
(tsg12
(tsg13
(tsss."
LayerCount: 2
Fore
SplineSet
45 0 m 1,0,-1
 45 717 l 1,1,-1
 125 717 l 1,2,-1
 205 717 l 1,3,-1
 298 717 l 2,4,5
 433 717 433 717 506.5 653.5 c 128,-1,6
 580 590 580 590 580 483 c 0,7,8
 580 443.783062157 580 443.783062157 569.784703152 409.447229819 c 128,-1,9
 559.569406304 375.111397481 559.569406304 375.111397481 539.795204776 347.061166583 c 128,-1,10
 520.021003247 319.010935685 520.021003247 319.010935685 490.09222181 297.761837521 c 128,-1,11
 460.163440372 276.512739358 460.163440372 276.512739358 421.628484874 263.83892065 c 1,12,-1
 588 63 l 1,13,-1
 479 -28 l 1,14,-1
 249.456953642 246 l 1,15,-1
 205 246 l 1,16,-1
 205 0 l 1,17,-1
 45 0 l 1,0,-1
205 371 m 1,18,-1
 299 371 l 2,19,20
 360 371 360 371 390 402.5 c 128,-1,21
 420 434 420 434 420 483 c 0,22,23
 420 531 420 531 389.5 561.5 c 128,-1,24
 359 592 359 592 298 592 c 2,25,-1
 205 592 l 1,26,-1
 205 371 l 1,18,-1
EndSplineSet
EndChar

StartChar: Rastick
Encoding: 65540 -1 87
Width: 399
VWidth: 0
Flags: W
PickledData: "(dp1
S'com.typemytype.robofont.layerData'
p2
(dp3
S'formes'
p4
(dp5
S'name'
p6
S'Rastick'
p7
sS'lib'
p8
(dp9
sS'unicodes'
p10
(tsS'width'
p11
I399
sS'contours'
p12
((dp13
S'points'
p14
((dp15
S'segmentType'
p16
S'move'
p17
sS'x'
I18
sS'smooth'
p18
I00
sS'y'
I-42
s(dp19
g16
S'line'
p20
sS'x'
I381
sg18
I00
sS'y'
I176
stp21
s(dp22
g14
((dp23
g16
S'line'
p24
sS'x'
I-10
sg18
I00
sS'y'
I5
s(dp25
g16
S'line'
p26
sS'x'
I353
sg18
I00
sS'y'
I223
s(dp27
g16
S'line'
p28
sS'x'
I409
sg18
I00
sS'y'
I129
s(dp29
g16
S'line'
p30
sS'x'
I46
sg18
I00
sS'y'
I-89
stp31
stp32
sS'components'
p33
(tsS'anchors'
p34
(tssS'mask'
p35
(dp36
g6
S'Rastick'
p37
sg8
(dp38
sg10
(tsg11
I399
sg12
(tsg33
(tsg34
(tsss."
LayerCount: 2
Fore
SplineSet
2 -18 m 1,0,-1
 328 252 l 1,1,-1
 397 168 l 1,2,-1
 71 -102 l 1,3,-1
 2 -18 l 1,0,-1
EndSplineSet
EndChar

StartChar: S
Encoding: 83 83 90
Width: 556
VWidth: 0
Flags: W
PickledData: "(dp1
S'com.typemytype.robofont.layerData'
p2
(dp3
S'formes'
p4
(dp5
S'name'
p6
S'S'
sS'lib'
p7
(dp8
sS'unicodes'
p9
(tsS'width'
p10
I556
sS'contours'
p11
(tsS'components'
p12
(tsS'anchors'
p13
(tssS'mask'
p14
(dp15
g6
S'S'
sg7
(dp16
sg9
(tsg10
I556
sg11
(tsg12
(tsg13
(tsss."
LayerCount: 2
Fore
SplineSet
10 123 m 1,0,1
 95 -14 95 -14 283 -14 c 0,2,3
 399 -14 399 -14 472.5 42 c 128,-1,4
 546 98 546 98 546 199 c 0,5,6
 546 239 546 239 532 272.5 c 128,-1,7
 518 306 518 306 501 326.5 c 128,-1,8
 484 347 484 347 452 367 c 128,-1,9
 420 387 420 387 400.5 395.5 c 128,-1,10
 381 404 381 404 346 418 c 2,11,-1
 286 442 l 2,12,13
 204 475 204 475 204 531 c 0,14,15
 204 562 204 562 227 583.5 c 128,-1,16
 250 605 250 605 290 605 c 0,17,18
 363 605 363 605 394 554 c 1,19,-1
 513 628 l 1,20,21
 448 730 448 730 286 730 c 0,22,23
 171 730 171 730 105.5 675.5 c 128,-1,24
 40 621 40 621 40 541 c 0,25,26
 40 463 40 463 81.5 412.5 c 128,-1,27
 123 362 123 362 206 325 c 2,28,-1
 274 295 l 2,29,30
 278 293 278 293 300 283.5 c 128,-1,31
 322 274 322 274 330 269.5 c 128,-1,32
 338 265 338 265 352 254 c 128,-1,33
 366 243 366 243 371.5 229.5 c 128,-1,34
 377 216 377 216 377 199 c 0,35,36
 377 157 377 157 348 133.5 c 128,-1,37
 319 110 319 110 271 110 c 0,38,39
 179 110 179 110 106 201 c 1,40,-1
 10 123 l 1,0,1
EndSplineSet
EndChar

StartChar: T
Encoding: 84 84 95
Width: 514
VWidth: 0
Flags: W
PickledData: "(dp1
S'com.typemytype.robofont.layerData'
p2
(dp3
S'formes'
p4
(dp5
S'name'
p6
S'T'
sS'lib'
p7
(dp8
sS'unicodes'
p9
(tsS'width'
p10
I514
sS'contours'
p11
(tsS'components'
p12
(tsS'anchors'
p13
(tssS'mask'
p14
(dp15
g6
S'T'
sg7
(dp16
sg9
(tsg10
I514
sg11
(tsg12
(tsg13
(tsss."
LayerCount: 2
Fore
SplineSet
5 717 m 1,0,-1
 509 717 l 1,1,-1
 509 592 l 1,2,-1
 337 592 l 1,3,-1
 337 0 l 1,4,-1
 176 0 l 1,5,-1
 176 592 l 1,6,-1
 5 592 l 1,7,-1
 5 717 l 1,0,-1
EndSplineSet
EndChar

StartChar: Thorn
Encoding: 222 222 98
Width: 588
VWidth: 0
Flags: W
PickledData: "(dp1
S'com.typemytype.robofont.layerData'
p2
(dp3
S'formes'
p4
(dp5
S'name'
p6
S'Thorn'
p7
sS'lib'
p8
(dp9
sS'unicodes'
p10
(tsS'width'
p11
I588
sS'contours'
p12
(tsS'components'
p13
(tsS'anchors'
p14
(tssS'mask'
p15
(dp16
g6
S'Thorn'
p17
sg8
(dp18
sg10
(tsg11
I588
sg12
(tsg13
(tsg14
(tsss."
LayerCount: 2
Fore
SplineSet
44 0 m 1,0,-1
 44 734 l 1,1,-1
 200 734 l 1,2,-1
 200 686 l 1,3,-1
 308 686 l 2,4,5
 421 686 421 686 497.5 611.5 c 128,-1,6
 574 537 574 537 574 424 c 0,7,8
 574 316 574 316 495 243.5 c 128,-1,9
 416 171 416 171 296 171 c 0,10,11
 236.934952567 171 236.934952567 171 200 173.379197567 c 1,12,-1
 200 0 l 1,13,-1
 44 0 l 1,0,-1
200 301.657337964 m 1,14,15
 238.147859833 299 238.147859833 299 296 299 c 0,16,17
 352 299 352 299 385 336 c 128,-1,18
 418 373 418 373 418 424 c 0,19,20
 418 477 418 477 389.5 517.5 c 128,-1,21
 361 558 361 558 308 558 c 2,22,-1
 200 558 l 1,23,-1
 200 301.657337964 l 1,14,15
EndSplineSet
EndChar

StartChar: U
Encoding: 85 85 99
Width: 668
VWidth: 0
Flags: W
PickledData: "(dp1
S'com.typemytype.robofont.layerData'
p2
(dp3
S'formes'
p4
(dp5
S'name'
p6
S'U'
sS'lib'
p7
(dp8
sS'unicodes'
p9
(tsS'width'
p10
I668
sS'contours'
p11
(tsS'components'
p12
(tsS'anchors'
p13
(tssS'mask'
p14
(dp15
g6
S'U'
sg7
(dp16
sg9
(tsg10
I668
sg11
(tsg12
(tsg13
(tsss."
LayerCount: 2
Fore
SplineSet
623 717 m 1,0,-1
 623 285 l 2,1,2
 623 145 623 145 542 66 c 128,-1,3
 461 -13 461 -13 335 -13 c 0,4,5
 208 -13 208 -13 126.5 65.5 c 128,-1,6
 45 144 45 144 45 285 c 2,7,-1
 45 717 l 1,8,-1
 208 717 l 1,9,-1
 208 285 l 2,10,11
 208 219 208 219 239.5 170.5 c 128,-1,12
 271 122 271 122 335 122 c 128,-1,13
 399 122 399 122 431 170.5 c 128,-1,14
 463 219 463 219 463 285 c 2,15,-1
 463 717 l 1,16,-1
 623 717 l 1,0,-1
EndSplineSet
EndChar

StartChar: V
Encoding: 86 86 110
Width: 660
VWidth: 0
Flags: W
PickledData: "(dp1
S'com.typemytype.robofont.layerData'
p2
(dp3
S'formes'
p4
(dp5
S'name'
p6
S'V'
sS'lib'
p7
(dp8
sS'unicodes'
p9
(tsS'width'
p10
I660
sS'contours'
p11
(tsS'components'
p12
(tsS'anchors'
p13
(tssS'mask'
p14
(dp15
g6
S'V'
sg7
(dp16
sg9
(tsg10
I660
sg11
(tsg12
(tsg13
(tsss."
LayerCount: 2
Fore
SplineSet
332.429906542 193.196261682 m 1,0,-1
 378 360 l 1,1,-1
 513 750 l 1,2,-1
 654 701 l 1,3,-1
 399 -8 l 1,4,-1
 262 -8 l 1,5,-1
 6 701 l 1,6,-1
 151 750 l 1,7,-1
 286 360 l 1,8,-1
 332.429906542 193.196261682 l 1,0,-1
EndSplineSet
EndChar

StartChar: W
Encoding: 87 87 111
Width: 883
VWidth: 0
Flags: W
PickledData: "(dp1
S'com.typemytype.robofont.layerData'
p2
(dp3
S'formes'
p4
(dp5
S'name'
p6
S'W'
sS'lib'
p7
(dp8
sS'unicodes'
p9
(tsS'width'
p10
I883
sS'contours'
p11
(tsS'components'
p12
(tsS'anchors'
p13
(tssS'mask'
p14
(dp15
g6
S'W'
sg7
(dp16
sg9
(tsg10
I883
sg11
(tsg12
(tsg13
(tsss."
LayerCount: 2
Fore
SplineSet
262.68 245.32 m 1,0,-1
 284 388 l 1,1,-1
 367 717 l 1,2,-1
 516 717 l 1,3,-1
 599 388 l 1,4,-1
 620.32 245.32 l 1,5,-1
 640 388 l 1,6,-1
 725 750 l 1,7,-1
 877 714 l 1,8,-1
 696 -8 l 1,9,-1
 551 -8 l 1,10,-1
 441.5 449.362804878 l 1,11,-1
 332 -8 l 1,12,-1
 187 -8 l 1,13,-1
 6 714 l 1,14,-1
 158 750 l 1,15,-1
 243 388 l 1,16,-1
 262.68 245.32 l 1,0,-1
EndSplineSet
EndChar

StartChar: X
Encoding: 88 88 116
Width: 592
VWidth: 0
Flags: W
PickledData: "(dp1
S'com.typemytype.robofont.layerData'
p2
(dp3
S'formes'
p4
(dp5
S'name'
p6
S'X'
sS'lib'
p7
(dp8
sS'unicodes'
p9
(tsS'width'
p10
I592
sS'contours'
p11
(tsS'components'
p12
(tsS'anchors'
p13
(tssS'mask'
p14
(dp15
g6
S'X'
sg7
(dp16
sg9
(tsg10
I592
sg11
(tsg12
(tsg13
(tsss."
LayerCount: 2
Fore
SplineSet
211.898702224 378.594315278 m 1,0,-1
 20 683 l 1,1,-1
 141 757 l 1,2,-1
 297.329770456 507.70798297 l 1,3,-1
 452 757 l 1,4,-1
 573 683 l 1,5,-1
 381.111103577 374.105678929 l 1,6,-1
 590 41 l 1,7,-1
 472 -34 l 1,8,-1
 295.835983762 245.446016908 l 1,9,-1
 122 -34 l 1,10,-1
 2 42 l 1,11,-1
 211.898702224 378.594315278 l 1,0,-1
EndSplineSet
EndChar

StartChar: Y
Encoding: 89 89 117
Width: 560
VWidth: 0
Flags: W
PickledData: "(dp1
S'com.typemytype.robofont.layerData'
p2
(dp3
S'formes'
p4
(dp5
S'name'
p6
S'Y'
sS'lib'
p7
(dp8
sS'unicodes'
p9
(tsS'width'
p10
I560
sS'contours'
p11
(tsS'components'
p12
(tsS'anchors'
p13
(tssS'mask'
p14
(dp15
g6
S'Y'
sg7
(dp16
sg9
(tsg10
I560
sg11
(tsg12
(tsg13
(tsss."
LayerCount: 2
Fore
SplineSet
201 256.75 m 1,0,-1
 6 688 l 1,1,-1
 139 750 l 1,2,-1
 281.584269663 436.314606742 l 1,3,-1
 421 750 l 1,4,-1
 554 688 l 1,5,-1
 361 254.715 l 1,6,-1
 361 0 l 1,7,-1
 201 0 l 1,8,-1
 201 256.75 l 1,0,-1
EndSplineSet
EndChar

StartChar: Z
Encoding: 90 90 122
Width: 521
VWidth: 0
Flags: W
PickledData: "(dp1
S'com.typemytype.robofont.layerData'
p2
(dp3
S'formes'
p4
(dp5
S'name'
p6
S'Z'
sS'lib'
p7
(dp8
sS'unicodes'
p9
(tsS'width'
p10
I521
sS'contours'
p11
(tsS'components'
p12
(tsS'anchors'
p13
(tssS'mask'
p14
(dp15
g6
S'Z'
sg7
(dp16
sg9
(tsg10
I521
sg11
(tsg12
(tsg13
(tsss."
LayerCount: 2
Fore
SplineSet
509 0 m 1,0,-1
 15 0 l 1,1,-1
 15 125 l 1,2,-1
 335.79373849 592 l 1,3,-1
 29 592 l 1,4,-1
 29 717 l 1,5,-1
 503 717 l 1,6,-1
 503 592 l 1,7,-1
 183.066298343 125 l 1,8,-1
 509 125 l 1,9,-1
 509 0 l 1,0,-1
EndSplineSet
EndChar

StartChar: a
Encoding: 97 97 126
Width: 589
VWidth: 0
Flags: W
PickledData: "(dp1
S'com.typemytype.robofont.layerData'
p2
(dp3
S'formes'
p4
(dp5
S'name'
p6
S'a'
sS'lib'
p7
(dp8
sS'unicodes'
p9
(tsS'width'
p10
I589
sS'contours'
p11
(tsS'components'
p12
(tsS'anchors'
p13
(tssS'mask'
p14
(dp15
g6
S'a'
sg7
(dp16
sg9
(tsg10
I589
sg11
(tsg12
(tsg13
(tsss."
LayerCount: 2
Fore
SplineSet
541 479 m 1,0,-1
 541 190 l 2,1,2
 541 154 541 154 550 137 c 128,-1,3
 559 120 559 120 585 115 c 1,4,-1
 567 -14 l 1,5,-1
 547 -14 l 2,6,7
 455.877000883 -14 455.877000883 -14 413.371263038 41.2205929835 c 1,8,9
 411.518049691 39.4856715856 411.518049691 39.4856715856 411 39 c 0,10,11
 385 20 385 20 374 13 c 128,-1,12
 363 6 363 6 331.5 -4 c 128,-1,13
 300 -14 300 -14 262 -14 c 0,14,15
 160 -14 160 -14 89.5 53 c 128,-1,16
 19 120 19 120 19 241 c 0,17,18
 19 354 19 354 89 421 c 128,-1,19
 159 488 159 488 259 488 c 0,20,21
 344.340971273 488 344.340971273 488 390 449.847821107 c 1,22,-1
 390 479 l 1,23,-1
 541 479 l 1,0,-1
381 237 m 2,24,-1
 381 257 l 2,25,26
 381 367 381 367 280 367 c 0,27,28
 225 367 225 367 202.5 330 c 128,-1,29
 180 293 180 293 180 241 c 0,30,31
 180 190 180 190 202.5 153 c 128,-1,32
 225 116 225 116 280 116 c 0,33,34
 381 116 381 116 381 237 c 2,24,-1
EndSplineSet
EndChar

StartChar: aasigndeva
Encoding: 2366 2366 129
Width: 324
VWidth: 0
Flags: W
PickledData: "(dp1
S'com.typemytype.robofont.layerData'
p2
(dp3
S'formes'
p4
(dp5
S'name'
p6
S'aasigndeva'
p7
sS'lib'
p8
(dp9
sS'unicodes'
p10
(tsS'width'
p11
I324
sS'contours'
p12
((dp13
S'points'
p14
((dp15
S'segmentType'
p16
S'curve'
p17
sS'x'
I154
sS'smooth'
p18
I01
sS'y'
I0
s(dp19
S'y'
I-3
sS'x'
I154
sg18
I00
s(dp20
S'y'
I-5
sS'x'
I152
sg18
I00
s(dp21
g16
S'curve'
p22
sS'x'
I149
sg18
I01
sS'y'
I-5
s(dp23
S'y'
I-5
sS'x'
I146
sg18
I00
s(dp24
S'y'
I-3
sS'x'
I144
sg18
I00
s(dp25
g16
S'curve'
p26
sS'x'
I144
sg18
I01
sS'y'
I0
s(dp27
S'y'
I3
sS'x'
I144
sg18
I00
s(dp28
S'y'
I5
sS'x'
I146
sg18
I00
s(dp29
g16
S'curve'
p30
sS'x'
I149
sg18
I01
sS'y'
I5
s(dp31
S'y'
I5
sS'x'
I152
sg18
I00
s(dp32
S'y'
I3
sS'x'
I154
sg18
I00
stp33
stp34
sS'components'
p35
(tsS'anchors'
p36
((dp37
S'y'
F0
sS'x'
F-147
sg6
S'_bottom'
p38
s(dp39
S'y'
F100
sS'x'
F264
sg6
S'_right'
p40
s(dp41
S'y'
F100
sS'x'
F264
sg6
S'right'
p42
stp43
ssS'mask'
p44
(dp45
g6
S'aasigndeva'
p46
sg8
(dp47
sg10
(tsg11
I324
sg12
(tsg35
(tsg36
(tsssS'com.typemytype.robofont.mark'
p48
(F0.94889999999999997
F0.61380000000000001
F0.1515
F1
tp49
s."
AnchorPoint: "DVAnchor3" 163 687 basechar 0
LayerCount: 2
Fore
SplineSet
81 579 m 1,0,-1
 -10 579 l 1,1,-1
 -10 687 l 1,2,-1
 334 687 l 1,3,-1
 334 579 l 1,4,-1
 243 579 l 1,5,-1
 243 0 l 1,6,-1
 81 0 l 1,7,-1
 81 579 l 1,0,-1
EndSplineSet
EndChar

StartChar: abbreviationsigndeva
Encoding: 2416 2416 130
Width: 538
VWidth: 0
Flags: W
PickledData: "(dp1
S'com.typemytype.robofont.layerData'
p2
(dp3
S'formes'
p4
(dp5
S'name'
p6
S'abbreviationsigndeva'
p7
sS'lib'
p8
(dp9
sS'unicodes'
p10
(tsS'width'
p11
I538
sS'contours'
p12
((dp13
S'points'
p14
((dp15
S'segmentType'
p16
S'qcurve'
p17
sS'x'
I274
sS'smooth'
p18
I01
sS'y'
I381
s(dp19
S'y'
I381
sS'x'
I320
sg18
I00
s(dp20
S'y'
I448
sS'x'
I385
sg18
I00
s(dp21
g16
S'qcurve'
p22
sS'x'
F385
sg18
I01
sg6
S'inserted'
p23
sS'y'
F496
s(dp24
S'y'
I544
sS'x'
I385
sg18
I00
s(dp25
S'y'
I610
sS'x'
I320
sg18
I00
s(dp26
g16
S'qcurve'
p27
sS'x'
I274
sg18
I01
sS'y'
I610
s(dp28
S'y'
I610
sS'x'
I229
sg18
I00
s(dp29
S'y'
I544
sS'x'
I164
sg18
I00
s(dp30
g16
S'qcurve'
p31
sS'x'
F164
sg18
I01
sg6
S'inserted'
p32
sS'y'
F496
s(dp33
S'y'
I448
sS'x'
I164
sg18
I00
s(dp34
S'y'
I381
sS'x'
I229
sg18
I00
stp35
s(dp36
g14
((dp37
g16
S'qcurve'
p38
sS'x'
I446
sg18
I01
sS'y'
I496
s(dp39
S'y'
I425
sS'x'
I446
sg18
I00
s(dp40
S'y'
I325
sS'x'
I345
sg18
I00
s(dp41
g16
S'qcurve'
p42
sS'x'
F273
sg18
I01
sg6
S'inserted'
p43
sS'y'
F325
s(dp44
S'y'
I325
sS'x'
I201
sg18
I00
s(dp45
S'y'
I425
sS'x'
I100
sg18
I00
s(dp46
g16
S'qcurve'
p47
sS'x'
I100
sg18
I01
sS'y'
I496
s(dp48
S'y'
I566
sS'x'
I100
sg18
I00
s(dp49
S'y'
I666
sS'x'
I201
sg18
I00
s(dp50
g16
S'qcurve'
p51
sS'x'
F273
sg18
I01
sg6
S'inserted'
p52
sS'y'
F666
s(dp53
S'y'
I666
sS'x'
I345
sg18
I00
s(dp54
S'y'
I566
sS'x'
I446
sg18
I00
stp55
stp56
sS'components'
p57
(tsS'anchors'
p58
(tssS'mask'
p59
(dp60
g6
S'abbreviationsigndeva'
p61
sg8
(dp62
sg10
(tsg11
I538
sg12
(tsg57
(tsg58
(tsssS'com.typemytype.robofont.mark'
p63
(F1
F0.66759999999999997
F0.75109999999999999
F1
tp64
s."
LayerCount: 2
Fore
SplineSet
272 358 m 128,-1,1
 332 358 332 358 372.5 399.5 c 128,-1,2
 413 441 413 441 413 501 c 0,3,4
 413 562 413 562 372 602.5 c 128,-1,5
 331 643 331 643 272 643 c 128,-1,6
 213 643 213 643 172 602 c 128,-1,7
 131 561 131 561 131 501 c 128,-1,8
 131 441 131 441 171.5 399.5 c 128,-1,0
 212 358 212 358 272 358 c 128,-1,1
272 437 m 0,9,10
 247 437 247 437 229.5 455.5 c 128,-1,11
 212 474 212 474 212 501 c 128,-1,12
 212 528 212 528 229.5 546 c 128,-1,13
 247 564 247 564 272 564 c 0,14,15
 298 564 298 564 315 546.5 c 128,-1,16
 332 529 332 529 332 501 c 128,-1,17
 332 473 332 473 315 455 c 128,-1,18
 298 437 298 437 272 437 c 0,9,10
EndSplineSet
EndChar

StartChar: acandradeva
Encoding: 2418 2418 132
Width: 847
VWidth: 0
Flags: W
PickledData: "(dp1
S'com.typemytype.robofont.layerData'
p2
(dp3
S'formes'
p4
(dp5
S'name'
p6
S'acandradeva'
p7
sS'lib'
p8
(dp9
sS'unicodes'
p10
(tsS'width'
p11
I847
sS'contours'
p12
(tsS'components'
p13
((dp14
S'transformation'
p15
(I1
I0
I0
I1
I0
I0
tp16
sS'baseGlyph'
p17
S'adeva'
p18
s(dp19
g15
(I1
I0
I0
I1
I472
I0
tp20
sg17
S'ocandrasigndeva'
p21
stp22
sS'anchors'
p23
(tssS'mask'
p24
(dp25
g6
S'acandradeva'
p26
sg8
(dp27
sg10
(tsg11
I847
sg12
(tsg13
(tsg23
(tsssS'com.typemytype.robofont.mark'
p28
(F0
F0
F1
F1
tp29
s."
LayerCount: 2
Fore
SplineSet
600 960 m 1,0,1
 600 950 600 950 601.5 939.5 c 128,-1,2
 603 929 603 929 609 914.5 c 128,-1,3
 615 900 615 900 624 889.5 c 128,-1,4
 633 879 633 879 651 871.5 c 128,-1,5
 669 864 669 864 692 864 c 0,6,7
 721 864 721 864 741 875 c 128,-1,8
 761 886 761 886 769.5 903 c 128,-1,9
 778 920 778 920 781 933.5 c 128,-1,10
 784 947 784 947 784 960 c 1,11,-1
 922 960 l 1,12,13
 922 932 922 932 910.5 899.5 c 128,-1,14
 899 867 899 867 874.5 833 c 128,-1,15
 850 799 850 799 802 776.5 c 128,-1,16
 754 754 754 754 692 754 c 0,17,18
 631 754 631 754 583.5 776.5 c 128,-1,19
 536 799 536 799 511 832.5 c 128,-1,20
 486 866 486 866 474 899 c 128,-1,21
 462 932 462 932 462 960 c 1,22,-1
 600 960 l 1,0,1
116 309 m 1,23,24
 152 235 152 235 190 194 c 128,-1,25
 228 153 228 153 278 152 c 0,26,27
 325 152 325 152 346 179 c 128,-1,28
 367 206 367 206 367 246 c 0,29,30
 367 343 367 343 265 346 c 1,31,-1
 197 346 l 1,32,-1
 197 454 l 1,33,-1
 267 454 l 1,34,-1
 276 454 l 2,35,36
 313 454 313 454 333.5 477.5 c 128,-1,37
 354 501 354 501 354 530 c 0,38,39
 354 593 354 593 288 593 c 0,40,41
 220 593 220 593 165 563 c 1,42,-1
 115 661 l 1,43,44
 197 701 197 701 288 701 c 0,45,46
 394 701 394 701 455 658.5 c 128,-1,47
 516 616 516 616 516 530 c 0,48,49
 516 455.406562013 516 455.406562013 450.738942931 402.897797624 c 1,50,51
 474.682311565 385.970755293 474.682311565 385.970755293 491.529734767 364 c 1,52,-1
 611 364 l 1,53,-1
 611 579 l 1,54,-1
 611 644 l 1,55,-1
 611 645 l 1,56,-1
 611 687 l 1,57,-1
 854 687 l 1,58,-1
 854 579 l 1,59,-1
 773 579 l 1,60,-1
 773 0 l 1,61,-1
 611 0 l 1,62,-1
 611 256 l 1,63,-1
 528.794745659 256 l 1,64,65
 528.999751763 251.051934178 528.999751763 251.051934178 529 246 c 0,66,67
 529 152 529 152 459.5 98 c 128,-1,68
 390 44 390 44 278 44 c 2,69,-1
 277 44 l 1,70,71
 88 46 88 46 -10 249 c 1,72,-1
 116 309 l 1,23,24
EndSplineSet
EndChar

StartChar: acombiningletterdeva
Encoding: 43242 43242 134
Width: 0
VWidth: 0
Flags: W
PickledData: "(dp1
S'com.typemytype.robofont.layerData'
p2
(dp3
S'formes'
p4
(dp5
S'name'
p6
S'acombiningletterdeva'
p7
sS'lib'
p8
(dp9
sS'unicodes'
p10
(tsS'width'
p11
I0
sS'contours'
p12
(tsS'components'
p13
(tsS'anchors'
p14
(tssS'mask'
p15
(dp16
g6
S'acombiningletterdeva'
p17
sg8
(dp18
sg10
(tsg11
I0
sg12
(tsg13
(tsg14
(tsssS'com.typemytype.robofont.mark'
p19
(F0
F0
F1
F1
tp20
s."
AnchorPoint: "DVAnchor3" -137 681 mark 0
LayerCount: 2
Fore
SplineSet
-415 865 m 1,0,1
 -379 800 -379 800 -327 800 c 0,2,3
 -309 800 -309 800 -296 809.5 c 128,-1,4
 -283 819 -283 819 -283 837 c 0,5,6
 -283 856 -283 856 -296 867 c 128,-1,7
 -309 878 -309 878 -326 878 c 0,8,9
 -327.494504887 878.000106485 -327.494504887 878.000106485 -329 878 c 2,10,-1
 -361 878 l 1,11,-1
 -361 938 l 1,12,-1
 -329 938 l 2,13,14
 -315 938 -315 938 -303.5 946.5 c 128,-1,15
 -292 955 -292 955 -292 967 c 0,16,17
 -292 986 -292 986 -304.5 996 c 128,-1,18
 -317 1006 -317 1006 -334 1006 c 0,19,20
 -358 1006 -358 1006 -392 989 c 1,21,-1
 -414 1033 l 1,22,23
 -368 1056 -368 1056 -330 1056 c 0,24,25
 -287 1056 -287 1056 -257.5 1031 c 128,-1,26
 -228 1006 -228 1006 -228 967 c 0,27,28
 -228 957.022556611 -228 957.022556611 -230.674660288 947.235385828 c 128,-1,29
 -233.349320576 937.448215045 -233.349320576 937.448215045 -238.296304439 928.64612196 c 128,-1,30
 -243.243288303 919.844028875 -243.243288303 919.844028875 -250.265852381 912.076862815 c 1,31,32
 -247.493033168 909.726184737 -247.493033168 909.726184737 -244.934782271 907.203340188 c 128,-1,33
 -242.376531374 904.680495639 -242.376531374 904.680495639 -240.045237124 902 c 1,34,-1
 -180 902 l 1,35,-1
 -180 990 l 1,36,-1
 -217 990 l 1,37,-1
 -217 1050 l 1,38,-1
 -79 1050 l 1,39,-1
 -79 990 l 1,40,-1
 -116 990 l 1,41,-1
 -116 743 l 1,42,-1
 -180 743 l 1,43,-1
 -180 842 l 1,44,-1
 -219.113681525 842 l 1,45,46
 -221.043486028 799.887110766 -221.043486028 799.887110766 -252.059143475 774.943555383 c 128,-1,47
 -283.074800922 750 -283.074800922 750 -327 750 c 0,48,49
 -417 750 -417 750 -466 839 c 1,50,-1
 -415 865 l 1,0,1
EndSplineSet
EndChar

StartChar: acute
Encoding: 180 180 135
Width: 334
VWidth: 0
Flags: W
PickledData: "(dp1
S'com.typemytype.robofont.layerData'
p2
(dp3
S'formes'
p4
(dp5
S'name'
p6
S'acute'
p7
sS'lib'
p8
(dp9
sS'unicodes'
p10
(tsS'width'
p11
I334
sS'contours'
p12
((dp13
S'points'
p14
((dp15
S'segmentType'
p16
S'line'
p17
sS'x'
I47
sS'smooth'
p18
I00
sS'y'
I578
s(dp19
g16
S'line'
p20
sS'x'
I137
sg18
I00
sS'y'
I578
s(dp21
g16
S'line'
p22
sS'x'
I287
sg18
I00
sS'y'
I725
s(dp23
g16
S'line'
p24
sS'x'
I287
sg18
I00
sS'y'
I737
s(dp25
g16
S'line'
p26
sS'x'
I153
sg18
I00
sS'y'
I737
s(dp27
g16
S'line'
p28
sS'x'
I47
sg18
I00
sS'y'
I595
stp29
stp30
sS'components'
p31
(tsS'anchors'
p32
((dp33
S'y'
F488
sS'x'
F99
sg6
S'_top'
p34
stp35
ssS'mask'
p36
(dp37
g6
S'acute'
p38
sg8
(dp39
sg10
(tsg11
I334
sg12
(tsg31
(tsg32
(tsss."
LayerCount: 2
Fore
SplineSet
32 578 m 1,0,-1
 142 578 l 1,1,-1
 300 737 l 1,2,-1
 153 737 l 1,3,-1
 32 578 l 1,0,-1
EndSplineSet
EndChar

StartChar: acutedeva
Encoding: 2388 2388 136
Width: 0
VWidth: 0
Flags: W
PickledData: "(dp1
S'com.typemytype.robofont.layerData'
p2
(dp3
S'formes'
p4
(dp5
S'name'
p6
S'acutedeva'
p7
sS'lib'
p8
(dp9
sS'unicodes'
p10
(tsS'width'
p11
I0
sS'contours'
p12
((dp13
S'points'
p14
((dp15
S'segmentType'
p16
S'move'
p17
sS'x'
I-81
sS'smooth'
p18
I00
sS'y'
I925
s(dp19
g16
S'line'
p20
sS'x'
I-154
sg18
I00
sS'y'
I714
stp21
s(dp22
g14
((dp23
g16
S'line'
p24
sS'x'
I-178
sg18
I00
sS'y'
I714
s(dp25
g16
S'line'
p26
sS'x'
I-124
sg18
I00
sS'y'
I925
s(dp27
g16
S'line'
p28
sS'x'
I-37
sg18
I00
sS'y'
I925
s(dp29
g16
S'line'
p30
sS'x'
I-129
sg18
I00
sS'y'
I714
stp31
stp32
sS'components'
p33
(tsS'anchors'
p34
(tssS'mask'
p35
(dp36
g6
S'acutedeva'
p37
sg8
(dp38
sg10
(tsg11
I0
sg12
(tsg33
(tsg34
(tsssS'com.typemytype.robofont.mark'
p39
(F0.94889999999999997
F0.61380000000000001
F0.1515
F1
tp40
s."
AnchorPoint: "DVAnchor3" -171 669 mark 0
LayerCount: 2
Fore
SplineSet
0 960 m 1,0,-1
 -108 734 l 1,1,-1
 -216 734 l 1,2,-1
 -108 960 l 1,3,-1
 0 960 l 1,0,-1
EndSplineSet
EndChar

StartChar: adeva
Encoding: 2309 2309 137
Width: 837
VWidth: 0
Flags: W
PickledData: "(dp1
S'com.typemytype.robofont.layerData'
p2
(dp3
S'formes'
p4
(dp5
S'name'
p6
S'adeva'
p7
sS'lib'
p8
(dp9
sS'unicodes'
p10
(tsS'width'
p11
I837
sS'contours'
p12
(tsS'components'
p13
((dp14
S'transformation'
p15
(I1
I0
I0
I1
I594
I0
tp16
sS'baseGlyph'
p17
S'eprishthamatrasigndeva'
p18
stp19
sS'anchors'
p20
(tssS'mask'
p21
(dp22
g6
S'adeva'
p23
sg8
(dp24
sg10
(tsg11
I837
sg12
(tsg13
(tsg20
(tsssS'com.typemytype.robofont.mark'
p25
(F0.94889999999999997
F0.61380000000000001
F0.1515
F1
tp26
s."
AnchorPoint: "DVAnchor3" 676 669 basechar 0
LayerCount: 2
Fore
SplineSet
86 309 m 1,0,1
 122 235 122 235 160.5 193.5 c 128,-1,2
 199 152 199 152 249 152 c 0,3,4
 296 152 296 152 317 179 c 128,-1,5
 338 206 338 206 338 246 c 0,6,7
 338 343 338 343 236 346 c 1,8,-1
 162 346 l 1,9,-1
 162 454 l 1,10,-1
 236 454 l 1,11,-1
 246 454 l 2,12,13
 285 454 285 454 304.5 475.5 c 128,-1,14
 324 497 324 497 324 529 c 0,15,16
 324 593 324 593 244 593 c 0,17,18
 190 593 190 593 135 563 c 1,19,-1
 85 661 l 1,20,21
 166 701 166 701 265 702 c 1,22,23
 366 701 366 701 426 658 c 128,-1,24
 486 615 486 615 486 530 c 0,25,26
 486 455.495524311 486 455.495524311 420.876655125 403.00869418 c 1,27,28
 432.981567298 394.537432925 432.981567298 394.537432925 443.32236516 384.769896272 c 128,-1,29
 453.663163022 375.002359618 453.663163022 375.002359618 462.175411574 364 c 1,30,-1
 594 364 l 1,31,-1
 594 579 l 1,32,-1
 594 645 l 1,33,-1
 594 687 l 1,34,-1
 847 687 l 1,35,-1
 847 579 l 1,36,-1
 756 579 l 1,37,-1
 756 0 l 1,38,-1
 594 0 l 1,39,-1
 594 256 l 1,40,-1
 499.792621516 256 l 1,41,42
 499.999742215 251.051934178 499.999742215 251.051934178 500 246 c 0,43,44
 500 152 500 152 432 97.5 c 128,-1,45
 364 43 364 43 259 43 c 0,46,47
 59 43 59 43 -40 249 c 1,48,-1
 86 309 l 1,0,1
EndSplineSet
EndChar

StartChar: ae
Encoding: 230 230 139
Width: 879
VWidth: 0
Flags: W
PickledData: "(dp1
S'com.typemytype.robofont.guides'
p2
((dp3
S'angle'
p4
I0
sS'name'
p5
NsS'magnetic'
p6
I5
sS'isGlobal'
p7
I00
sS'y'
I503
sS'x'
I616
stp8
sS'com.typemytype.robofont.layerData'
p9
(dp10
S'formes'
p11
(dp12
g5
S'ae'
p13
sS'lib'
p14
(dp15
sS'unicodes'
p16
(tsS'width'
p17
I879
sS'contours'
p18
((dp19
S'points'
p20
((dp21
S'y'
I15
sS'x'
I777
sS'smooth'
p22
I00
s(dp23
S'y'
I-13
sS'x'
I709
sg22
I00
s(dp24
S'segmentType'
p25
S'curve'
p26
sS'x'
I618
sg22
I01
sS'y'
I-13
s(dp27
S'y'
I-13
sS'x'
I467
sg22
I00
s(dp28
S'y'
I89
sS'x'
I348
sg22
I00
s(dp29
g25
S'curve'
p30
sS'x'
I348
sg22
I01
sS'y'
I253
s(dp31
S'y'
I402
sS'x'
I348
sg22
I00
s(dp32
S'y'
I501
sS'x'
I459
sg22
I00
s(dp33
g25
S'curve'
p34
sS'x'
I604
sg22
I01
sS'y'
I501
s(dp35
S'y'
I501
sS'x'
I742
sg22
I00
s(dp36
S'y'
I415
sS'x'
I852
sg22
I00
s(dp37
g25
S'curve'
p38
sS'x'
I864
sg22
I00
sS'y'
I253
s(dp39
g25
S'line'
p40
sS'x'
I792
sg22
I00
sS'y'
I190
s(dp41
g25
S'line'
p42
sS'x'
I452
sg22
I00
sS'y'
I190
s(dp43
g25
S'line'
p44
sS'x'
I442
sg22
I00
sS'y'
I299
s(dp45
g25
S'line'
p46
sS'x'
I782
sg22
I00
sS'y'
I299
s(dp47
g25
S'line'
p48
sS'x'
I700
sg22
I00
sS'y'
I241
s(dp49
S'y'
I301
sS'x'
I696
sg22
I00
s(dp50
S'y'
I377
sS'x'
I678
sg22
I00
s(dp51
g25
S'curve'
p52
sS'x'
I604
sg22
I01
sS'y'
I377
s(dp53
S'y'
I377
sS'x'
I531
sg22
I00
s(dp54
S'y'
I306
sS'x'
I512
sg22
I00
s(dp55
g25
S'curve'
p56
sS'x'
I512
sg22
I01
sS'y'
I253
s(dp57
S'y'
I169
sS'x'
I512
sg22
I00
s(dp58
S'y'
I111
sS'x'
I536
sg22
I00
s(dp59
g25
S'curve'
p60
sS'x'
I635
sg22
I00
sS'y'
I111
s(dp61
S'y'
I111
sS'x'
I677
sg22
I00
s(dp62
S'y'
I122
sS'x'
I715
sg22
I00
s(dp63
g25
S'curve'
p64
sS'x'
I754
sg22
I00
sS'y'
I156
s(dp65
g25
S'line'
p66
sS'x'
I840
sg22
I00
sS'y'
I71
stp67
s(dp68
g20
((dp69
g25
S'line'
p70
sS'x'
I11
sg22
I01
sS'y'
I461
s(dp71
S'y'
I509
sS'x'
I69
sg22
I00
s(dp72
S'y'
I526
sS'x'
I150
sg22
I00
s(dp73
g25
S'curve'
p74
sS'x'
I237
sg22
I01
sS'y'
I526
s(dp75
S'y'
I526
sS'x'
I386
sg22
I00
s(dp76
S'y'
I457
sS'x'
I493
sg22
I00
s(dp77
g25
S'curve'
p78
sS'x'
I493
sg22
I01
sS'y'
I311
s(dp79
g25
S'line'
p80
sS'x'
I493
sg22
I01
sS'y'
I232
s(dp81
g25
S'line'
p82
sS'x'
I493
sg22
I00
sS'y'
I170
s(dp83
g25
S'line'
p84
sS'x'
I347
sg22
I00
sS'y'
I170
s(dp85
g25
S'line'
p86
sS'x'
I347
sg22
I01
sS'y'
I311
s(dp87
S'y'
I373
sS'x'
I347
sg22
I00
s(dp88
S'y'
I402
sS'x'
I300
sg22
I00
s(dp89
g25
S'curve'
p90
sS'x'
I237
sg22
I01
sS'y'
I402
s(dp91
S'y'
I402
sS'x'
I182
sg22
I00
s(dp92
S'y'
I373
sS'x'
I141
sg22
I00
s(dp93
g25
S'curve'
p94
sS'x'
I109
sg22
I01
sS'y'
I345
s(dp95
g25
S'line'
p96
sS'x'
I61
sg22
I00
sS'y'
I305
s(dp97
g25
S'line'
p98
sS'x'
I-36
sg22
I00
sS'y'
I421
stp99
s(dp100
g20
((dp101
g25
S'line'
p102
sS'x'
I422
sg22
I01
sS'y'
I215
s(dp103
S'y'
I214
sS'x'
I314
sg22
I00
s(dp104
S'y'
I216
sS'x'
I229
sg22
I00
s(dp105
g25
S'curve'
p106
sS'x'
I184
sg22
I01
sS'y'
I207
s(dp107
S'y'
I202
sS'x'
I158
sg22
I00
s(dp108
S'y'
I180
sS'x'
I132
sg22
I00
s(dp109
g25
S'curve'
p110
sS'x'
I132
sg22
I00
sS'y'
I146
s(dp111
S'y'
I97
sS'x'
I132
sg22
I00
s(dp112
S'y'
I81
sS'x'
I173
sg22
I00
s(dp113
g25
S'curve'
p114
sS'x'
I210
sg22
I01
sS'y'
I81
s(dp115
S'y'
I81
sS'x'
I288
sg22
I00
s(dp116
S'y'
I145
sS'x'
I334
sg22
I00
s(dp117
g25
S'curve'
p118
sS'x'
I350
sg22
I01
sS'y'
I186
s(dp119
g25
S'line'
p120
sS'x'
I372
sg22
I00
sS'y'
I244
s(dp121
g25
S'line'
p122
sS'x'
I524
sg22
I00
sS'y'
I186
s(dp123
g25
S'line'
p124
sS'x'
I502
sg22
I01
sS'y'
I128
s(dp125
S'y'
I43
sS'x'
I470
sg22
I00
s(dp126
S'y'
I-43
sS'x'
I350
sg22
I00
s(dp127
g25
S'curve'
p128
sS'x'
I210
sg22
I01
sS'y'
I-43
s(dp129
S'y'
I-43
sS'x'
I101
sg22
I00
s(dp130
S'y'
I5
sS'x'
I-14
sg22
I00
s(dp131
g25
S'curve'
p132
sS'x'
I-14
sg22
I01
sS'y'
I146
s(dp133
S'y'
I258
sS'x'
I-14
sg22
I00
s(dp134
S'y'
I318
sS'x'
I80
sg22
I00
s(dp135
g25
S'curve'
p136
sS'x'
I160
sg22
I01
sS'y'
I333
s(dp137
S'y'
I342
sS'x'
I209
sg22
I00
s(dp138
S'y'
I338
sS'x'
I302
sg22
I00
s(dp139
g25
S'curve'
p140
sS'x'
I420
sg22
I01
sS'y'
I339
s(dp141
g25
S'line'
p142
sS'x'
I482
sg22
I00
sS'y'
I340
s(dp143
g25
S'line'
p144
sS'x'
I484
sg22
I00
sS'y'
I215
stp145
s(dp146
g20
((dp147
S'y'
I15
sS'x'
I777
sg22
I00
s(dp148
S'y'
I-13
sS'x'
I709
sg22
I00
s(dp149
g25
S'curve'
p150
sS'x'
I618
sg22
I01
sS'y'
I-13
s(dp151
S'y'
I-13
sS'x'
I467
sg22
I00
s(dp152
S'y'
I89
sS'x'
I348
sg22
I00
s(dp153
g25
S'curve'
p154
sS'x'
I348
sg22
I01
sS'y'
I253
s(dp155
S'y'
I402
sS'x'
I348
sg22
I00
s(dp156
S'y'
I501
sS'x'
I459
sg22
I00
s(dp157
g25
S'curve'
p158
sS'x'
I604
sg22
I01
sS'y'
I501
s(dp159
S'y'
I501
sS'x'
I742
sg22
I00
s(dp160
S'y'
I415
sS'x'
I852
sg22
I00
s(dp161
g25
S'curve'
p162
sS'x'
I864
sg22
I00
sS'y'
I253
s(dp163
g25
S'line'
p164
sS'x'
I792
sg22
I00
sS'y'
I190
s(dp165
g25
S'line'
p166
sS'x'
I452
sg22
I00
sS'y'
I190
s(dp167
g25
S'line'
p168
sS'x'
I442
sg22
I00
sS'y'
I299
s(dp169
g25
S'line'
p170
sS'x'
I782
sg22
I00
sS'y'
I299
s(dp171
g25
S'line'
p172
sS'x'
I700
sg22
I00
sS'y'
I241
s(dp173
S'y'
I301
sS'x'
I696
sg22
I00
s(dp174
S'y'
I377
sS'x'
I678
sg22
I00
s(dp175
g25
S'curve'
p176
sS'x'
I604
sg22
I01
sS'y'
I377
s(dp177
S'y'
I377
sS'x'
I531
sg22
I00
s(dp178
S'y'
I306
sS'x'
I512
sg22
I00
s(dp179
g25
S'curve'
p180
sS'x'
I512
sg22
I01
sS'y'
I253
s(dp181
S'y'
I169
sS'x'
I512
sg22
I00
s(dp182
S'y'
I111
sS'x'
I536
sg22
I00
s(dp183
g25
S'curve'
p184
sS'x'
I635
sg22
I00
sS'y'
I111
s(dp185
S'y'
I111
sS'x'
I677
sg22
I00
s(dp186
S'y'
I122
sS'x'
I715
sg22
I00
s(dp187
g25
S'curve'
p188
sS'x'
I754
sg22
I00
sS'y'
I156
s(dp189
g25
S'line'
p190
sS'x'
I840
sg22
I00
sS'y'
I71
stp191
s(dp192
g20
((dp193
S'y'
F509.309007603
sS'x'
F99.738083934000002
sg22
I00
s(dp194
S'y'
I503
sS'x'
I211
sg22
I00
s(dp195
g25
S'curve'
p196
sS'x'
I249
sg22
I01
sS'y'
I503
s(dp197
S'y'
I503
sS'x'
I398
sg22
I00
s(dp198
S'y'
I440
sS'x'
I493
sg22
I00
s(dp199
g25
S'curve'
p200
sS'x'
I493
sg22
I01
sS'y'
I311
s(dp201
g25
S'line'
p202
sS'x'
I493
sg22
I01
sS'y'
I232
s(dp203
g25
S'line'
p204
sS'x'
I493
sg22
I00
sS'y'
I170
s(dp205
g25
S'line'
p206
sS'x'
I347
sg22
I00
sS'y'
I170
s(dp207
g25
S'line'
p208
sS'x'
I347
sg22
I01
sS'y'
I311
s(dp209
S'y'
I357
sS'x'
I347
sg22
I00
s(dp210
S'y'
I379
sS'x'
I300
sg22
I00
s(dp211
g25
S'curve'
p212
sS'x'
I237
sg22
I01
sS'y'
I379
s(dp213
S'y'
I379
sS'x'
I193
sg22
I00
s(dp214
S'y'
F379.90176903899999
sS'x'
F132.08212284699999
sg22
I00
s(dp215
g25
S'curve'
p216
sS'x'
I53
sg22
I00
sS'y'
I314
s(dp217
g25
S'line'
p218
sS'x'
I-24
sg22
I00
sS'y'
I404
stp219
s(dp220
g20
((dp221
g25
S'line'
p222
sS'x'
I422
sg22
I01
sS'y'
I190
s(dp223
S'y'
I190
sS'x'
F323.99489809200003
sg22
I00
s(dp224
S'y'
F189
sS'x'
F266.83333333300004
sg22
I00
s(dp225
g25
S'curve'
p226
sS'x'
I226
sg22
I01
sS'y'
I189
s(dp227
S'y'
F189
sS'x'
F192.972972973
sg22
I00
s(dp228
S'y'
F180
sS'x'
F132
sg22
I00
s(dp229
g25
S'curve'
p230
sS'x'
I132
sg22
I00
sS'y'
I146
s(dp231
S'y'
I120
sS'x'
I132
sg22
I00
s(dp232
S'y'
I111
sS'x'
I173
sg22
I00
s(dp233
g25
S'curve'
p234
sS'x'
I210
sg22
I01
sS'y'
I111
s(dp235
S'y'
I111
sS'x'
I288
sg22
I00
s(dp236
S'y'
I155
sS'x'
I338
sg22
I00
s(dp237
g25
S'curve'
p238
sS'x'
I350
sg22
I01
sS'y'
I186
s(dp239
g25
S'line'
p240
sS'x'
I372
sg22
I00
sS'y'
I244
s(dp241
g25
S'line'
p242
sS'x'
I507
sg22
I00
sS'y'
I183
s(dp243
S'y'
I43
sS'x'
I481
sg22
I00
s(dp244
S'y'
I-13
sS'x'
I350
sg22
I00
s(dp245
g25
S'curve'
p246
sS'x'
I210
sg22
I01
sS'y'
I-13
s(dp247
S'y'
I-13
sS'x'
I101
sg22
I00
s(dp248
S'y'
I27
sS'x'
I-28
sg22
I00
s(dp249
g25
S'curve'
p250
sS'x'
I-28
sg22
I01
sS'y'
I146
s(dp251
S'y'
F258
sS'x'
F-28
sg22
I00
s(dp252
S'y'
F297
sS'x'
F104.1666666667
sg22
I00
s(dp253
g25
S'curve'
p254
sS'x'
I232
sg22
I01
sS'y'
I297
s(dp255
S'y'
F297
sS'x'
F332.326923077
sg22
I00
s(dp256
S'y'
F296.27992478300001
sS'x'
F313.35533655799998
sg22
I00
s(dp257
g25
S'curve'
p258
sS'x'
I420
sg22
I01
sS'y'
I298
s(dp259
g25
S'line'
p260
sS'x'
I482
sg22
I00
sS'y'
I299
s(dp261
g25
S'line'
p262
sS'x'
I484
sg22
I00
sS'y'
I190
stp263
stp264
sS'components'
p265
(tsS'anchors'
p266
(tssS'mask'
p267
(dp268
g5
S'ae'
p269
sg14
(dp270
sg16
(tsg17
I879
sg18
(tsg265
(tsg266
(tsssS'com.typemytype.robofont.mark'
p271
(F1
F0.43530000000000002
F0.81179999999999997
F1
tp272
s."
LayerCount: 2
Fore
SplineSet
350.592761347 189.725928469 m 1,0,1
 337.623067216 189.626791276 337.623067216 189.626791276 306.490295361 189.313395638 c 128,-1,2
 275.357523505 189 275.357523505 189 263 189 c 0,3,4
 169 189 169 189 169 146 c 0,5,6
 169 111 169 111 241 111 c 0,7,8
 286 111 286 111 315.5 132.5 c 128,-1,9
 345 154 345 154 350 186 c 2,10,-1
 350.592761347 189.725928469 l 1,0,1
347 297.162942208 m 1,11,-1
 347 311 l 2,12,13
 347 345 347 345 317 362 c 128,-1,14
 287 379 287 379 237 379 c 0,15,16
 167 379 167 379 90 314 c 1,17,-1
 13 404 l 1,18,19
 130 503 130 503 249 503 c 0,20,21
 378.537475056 503 378.537475056 503 437.8988658 441.273405825 c 1,22,23
 470.648536411 470.126304419 470.648536411 470.126304419 513.184392388 485.563152209 c 128,-1,24
 555.720248365 501 555.720248365 501 604 501 c 0,25,26
 711 501 711 501 783 436 c 128,-1,27
 855 371 855 371 864 253 c 1,28,-1
 792 190 l 1,29,-1
 518.572874831 190 l 1,30,31
 528.402377089 151.505643277 528.402377089 151.505643277 555.953862404 131.252821639 c 128,-1,32
 583.505347719 111 583.505347719 111 635 111 c 0,33,34
 702 111 702 111 754 156 c 1,35,-1
 840 71 l 1,36,37
 746 -13 746 -13 618 -13 c 0,38,39
 499.636943852 -13 499.636943852 -13 425.922825067 66.4195127817 c 1,40,41
 361.753237535 -13 361.753237535 -13 239 -13 c 0,42,43
 183 -13 183 -13 134 1 c 128,-1,44
 85 15 85 15 47 52.5 c 128,-1,45
 9 90 9 90 9 146 c 0,46,47
 9 199 9 199 48.5 234.5 c 128,-1,48
 88 270 88 270 144 283.5 c 128,-1,49
 200 297 200 297 269 297 c 0,50,51
 293.940764746 297 293.940764746 297 317.27937535 297.081471104 c 128,-1,52
 340.617985953 297.162942208 340.617985953 297.162942208 347 297.162942208 c 1,11,-1
690.902524571 299 m 1,53,54
 669.415672027 377 669.415672027 377 604 377 c 0,55,56
 535.256374894 377 535.256374894 377 517.048354401 299 c 1,57,-1
 690.902524571 299 l 1,53,54
EndSplineSet
EndChar

StartChar: aisign_ra_virama.alt1
Encoding: 65541 -1 142
Width: 0
VWidth: 0
Flags: W
PickledData: "(dp1
S'com.typemytype.robofont.layerData'
p2
(dp3
S'formes'
p4
(dp5
S'name'
p6
S'aisign_ra_virama.alt1'
p7
sS'lib'
p8
(dp9
sS'unicodes'
p10
(tsS'width'
p11
I0
sS'contours'
p12
(tsS'components'
p13
(tsS'anchors'
p14
(tssS'mask'
p15
(dp16
g6
S'aisign_ra_virama.alt1'
p17
sg8
(dp18
sg10
(tsg11
I0
sg12
(tsg13
(tsg14
(tsssS'com.typemytype.robofont.mark'
p19
(F0
F0
F1
F1
tp20
s."
AnchorPoint: "DVAnchor3" -55 683 mark 0
LayerCount: 2
Fore
SplineSet
-351 783 m 1,0,-1
 -351 864 l 1,1,-1
 -270 864 l 2,2,3
 -184.637577105 864 -184.637577105 864 -144.312010536 846.487213913 c 1,4,5
 -165.740587137 893.676824028 -165.740587137 893.676824028 -185.610333371 905.83841186 c 128,-1,6
 -205.480079606 917.999999691 -205.480079606 917.999999691 -261 918 c 2,7,-1
 -351 918 l 1,8,-1
 -351 999 l 1,9,-1
 -261 999 l 2,10,11
 -246.509373799 999 -246.509373799 999 -235.010888661 998.721717364 c 128,-1,12
 -223.512403522 998.443434729 -223.512403522 998.443434729 -211.428919403 997.718435137 c 128,-1,13
 -199.345435284 996.993435545 -199.345435284 996.993435545 -189.554130843 995.686036141 c 128,-1,14
 -179.762826402 994.378636737 -179.762826402 994.378636737 -169.7664205 992.373643575 c 128,-1,15
 -159.770014599 990.368650413 -159.770014599 990.368650413 -151.293836398 987.473590904 c 128,-1,16
 -142.817658196 984.578531395 -142.817658196 984.578531395 -134.516276055 980.735001325 c 128,-1,17
 -126.214893914 976.891471256 -126.214893914 976.891471256 -118.661787495 971.850208305 c 128,-1,18
 -111.108681076 966.808945354 -111.108681076 966.808945354 -104.038277644 960.564785682 c 1,19,20
 -47.3491404081 1031.38152023 -47.3491404081 1031.38152023 130 1021 c 1,21,-1
 130 905 l 1,22,23
 45 912 45 912 22.5 882.5 c 128,-1,24
 -0 853 -0 853 12 785 c 1,25,-1
 -8.02222222222 785 l 1,26,-1
 0 766 l 1,27,-1
 -93 728 l 1,28,29
 -136 764 -136 764 -166.5 773.5 c 128,-1,30
 -197 783 -197 783 -269 783 c 2,31,-1
 -351 783 l 1,0,-1
EndSplineSet
Ligature2: "AboveBaseSubstitutionslookup subtable" aisigndeva radeva_viramadeva
EndChar

StartChar: aisign_ra_virama_anusvara
Encoding: 65542 -1 143
Width: 0
VWidth: 0
Flags: W
PickledData: "(dp1
S'com.typemytype.robofont.guides'
p2
((dp3
S'angle'
p4
I0
sS'name'
p5
NsS'magnetic'
p6
I5
sS'isGlobal'
p7
I00
sS'y'
I903
sS'x'
I250
stp8
sS'com.typemytype.robofont.layerData'
p9
(dp10
S'formes'
p11
(dp12
g5
S'aisign_ra_virama_anusvara'
p13
sS'lib'
p14
(dp15
sS'unicodes'
p16
(tsS'width'
p17
I0
sS'contours'
p18
(tsS'components'
p19
(tsS'anchors'
p20
(tssS'mask'
p21
(dp22
g5
S'aisign_ra_virama_anusvara'
p23
sg14
(dp24
sg16
(tsg17
I0
sg18
(tsg19
(tsg20
(tsssS'com.typemytype.robofont.mark'
p25
(F0
F0
F1
F1
tp26
s."
AnchorPoint: "DVAnchor3" -198 689 mark 0
LayerCount: 2
Fore
SplineSet
-490 783 m 1,0,-1
 -490 864 l 1,1,-1
 -409 864 l 2,2,3
 -323.637577105 864 -323.637577105 864 -283.312010536 846.487213913 c 1,4,5
 -304.740587137 893.676824029 -304.740587137 893.676824029 -324.610333371 905.83841186 c 128,-1,6
 -344.480079605 917.999999691 -344.480079605 917.999999691 -400 918 c 2,7,-1
 -490 918 l 1,8,-1
 -490 999 l 1,9,-1
 -400 999 l 2,10,11
 -339.876833884 999 -339.876833884 999 -304.761027377 991.533786575 c 128,-1,12
 -269.64522087 984.067573149 -269.64522087 984.067573149 -243.026833583 960.554677868 c 1,13,14
 -187.929004352 1032.41546383 -187.929004352 1032.41546383 -10 1022 c 1,15,-1
 -10 906 l 1,16,17
 -96 913 -96 913 -121.5 883 c 128,-1,18
 -147 853 -147 853 -135 786 c 1,19,-1
 -130.5 766 l 1,20,-1
 -232 728 l 1,21,22
 -275 764 -275 764 -305.5 773.5 c 128,-1,23
 -336 783 -336 783 -408 783 c 2,24,-1
 -490 783 l 1,0,-1
-19 840 m 0,25,26
 -19 819 -19 819 -34.5 806.5 c 128,-1,27
 -50 794 -50 794 -71 794 c 0,28,29
 -91 794 -91 794 -107 806.5 c 128,-1,30
 -123 819 -123 819 -123 840 c 0,31,32
 -123 862 -123 862 -107.5 874.5 c 128,-1,33
 -92 887 -92 887 -71 887 c 128,-1,34
 -50 887 -50 887 -34.5 875 c 128,-1,35
 -19 863 -19 863 -19 840 c 0,25,26
EndSplineSet
Ligature2: "AboveBaseSubstitutionslookup subtable" aisigndeva radeva_viramadeva anusvaradeva
Colour: ff00ff
EndChar

StartChar: aisigndeva
Encoding: 2376 2376 144
Width: 0
VWidth: 0
Flags: W
PickledData: "(dp1
S'com.typemytype.robofont.layerData'
p2
(dp3
S'formes'
p4
(dp5
S'name'
p6
S'aisigndeva'
p7
sS'lib'
p8
(dp9
sS'unicodes'
p10
(tsS'width'
p11
I0
sS'contours'
p12
((dp13
S'points'
p14
((dp15
S'segmentType'
p16
S'move'
p17
sS'x'
I-10
sS'smooth'
p18
I00
sS'y'
I771
s(dp19
g16
S'line'
p20
sS'x'
I94
sg18
I01
sS'y'
I771
s(dp21
S'y'
I771
sS'x'
I261
sg18
I00
s(dp22
S'y'
I742
sS'x'
I311
sg18
I00
s(dp23
g16
S'curve'
p24
sS'x'
I359
sg18
I01
sS'y'
I681
s(dp25
g16
S'line'
p26
sS'x'
I399
sg18
I00
sS'y'
I630
stp27
s(dp28
g14
((dp29
g16
S'line'
p30
sS'x'
I-486
sg18
I00
sS'y'
I960
s(dp31
g16
S'line'
p32
sS'x'
I-366
sg18
I01
sS'y'
I960
s(dp33
S'y'
I960
sS'x'
I-263
sg18
I00
s(dp34
S'y'
I966
sS'x'
I-208
sg18
I00
s(dp35
g16
S'curve'
p36
sS'x'
I-140
sg18
I01
sS'y'
I862
s(dp37
g16
S'line'
p38
sS'x'
I-64
sg18
I00
sS'y'
I746
s(dp39
g16
S'line'
p40
sS'x'
I-135
sg18
I00
sS'y'
I696
s(dp41
S'y'
I828
sS'x'
I-225
sg18
I00
s(dp42
S'y'
I872
sS'x'
F-228.73214285714283
sg18
I00
s(dp43
g16
S'curve'
p44
sS'x'
I-316
sg18
I01
sS'y'
I872
s(dp45
g16
S'line'
p46
sS'x'
I-486
sg18
I00
sS'y'
I872
stp47
s(dp48
g14
((dp49
g16
S'line'
p50
sS'x'
I-486
sg18
I00
sS'y'
I810
s(dp51
g16
S'line'
p52
sS'x'
I-158
sg18
I00
sS'y'
I810
s(dp53
g16
S'line'
p54
sS'x'
I-158
sg18
I00
sS'y'
I729
s(dp55
g16
S'line'
p56
sS'x'
I-486
sg18
I00
sS'y'
I729
stp57
stp58
sS'components'
p59
((dp60
S'transformation'
p61
(I1
I0
I0
I1
I0
I0
tp62
sS'baseGlyph'
p63
S'esigndeva'
p64
stp65
sS'anchors'
p66
((dp67
S'y'
F100
sS'x'
F0
sg6
S'_right'
p68
s(dp69
S'y'
F100
sS'x'
F0
sg6
S'right'
p70
stp71
ssS'mask'
p72
(dp73
g6
S'aisigndeva'
p74
sg8
(dp75
sg10
(tsg11
I0
sg12
(tsg59
((dp76
g61
(I1
I0
I0
I1
I0
I0
tp77
sg63
S'esigndeva'
p78
stp79
sg66
(tsssS'com.typemytype.robofont.mark'
p80
(F0
F0
F1
F1
tp81
s."
AnchorPoint: "DVAnchor3" -68 662 mark 0
LayerCount: 2
Fore
SplineSet
-351 783 m 1,0,-1
 -351 864 l 1,1,-1
 -270 864 l 2,2,3
 -184.637442665 864 -184.637442665 864 -144.312106193 846.487424498 c 1,4,5
 -159.341555834 879.584970624 -159.341555834 879.584970624 -171.84831549 893.627220841 c 128,-1,6
 -184.355075147 907.669471059 -184.355075147 907.669471059 -203.20668789 912.834735412 c 128,-1,7
 -222.058300633 917.999999765 -222.058300633 917.999999765 -261 918 c 2,8,-1
 -351 918 l 1,9,-1
 -351 999 l 1,10,-1
 -261 999 l 2,11,12
 -212 999 -212 999 -183.5 995 c 128,-1,13
 -155 991 -155 991 -127 976.5 c 128,-1,14
 -99 962 -99 962 -79 933.5 c 128,-1,15
 -59 905 -59 905 -38 856 c 2,16,-1
 0 766 l 1,17,-1
 -93 728 l 1,18,19
 -136 764 -136 764 -166.5 773.5 c 128,-1,20
 -197 783 -197 783 -269 783 c 2,21,-1
 -351 783 l 1,0,-1
EndSplineSet
EndChar

StartChar: aisigndeva_anusvaradeva
Encoding: 65543 -1 145
Width: 0
VWidth: 0
Flags: W
PickledData: "(dp1
S'com.typemytype.robofont.layerData'
p2
(dp3
S'formes'
p4
(dp5
S'name'
p6
S'aisigndeva_anusvaradeva'
p7
sS'lib'
p8
(dp9
sS'unicodes'
p10
(tsS'width'
p11
I0
sS'contours'
p12
((dp13
S'points'
p14
((dp15
S'segmentType'
p16
S'line'
p17
sS'x'
I-112
sS'smooth'
p18
I00
sS'y'
I832
s(dp19
g16
S'line'
p20
sS'x'
I-112
sg18
I00
sS'y'
I925
s(dp21
g16
S'line'
p22
sS'x'
I-12
sg18
I00
sS'y'
I925
s(dp23
g16
S'line'
p24
sS'x'
I-12
sg18
I00
sS'y'
I832
stp25
s(dp26
g14
((dp27
g16
S'line'
p28
sS'x'
I-192
sg18
I00
sS'y'
I666
s(dp29
g16
S'line'
p30
sS'x'
I-478
sg18
I00
sS'y'
I806
s(dp31
g16
S'line'
p32
sS'x'
I-445
sg18
I00
sS'y'
I866
s(dp33
g16
S'line'
p34
sS'x'
I-145
sg18
I00
sS'y'
I672
s(dp35
g16
S'line'
p36
sS'x'
I-292
sg18
I00
sS'y'
I959
s(dp37
g16
S'line'
p38
sS'x'
I-225
sg18
I00
sS'y'
I999
s(dp39
g16
S'line'
p40
sS'x'
I-105
sg18
I00
sS'y'
I666
stp41
stp42
sS'components'
p43
(tsS'anchors'
p44
(tssS'mask'
p45
(dp46
g6
S'aisigndeva_anusvaradeva'
p47
sg8
(dp48
sg10
(tsg11
I0
sg12
(tsg43
((dp49
S'transformation'
p50
(I1
I0
I0
I1
I0
I0
tp51
sS'baseGlyph'
p52
S'esigndeva_anusvaradeva'
p53
s(dp54
g50
(I1
I0
I0
I1
I0
I0
tp55
sg52
S'aisigndeva'
p56
stp57
sg44
((dp58
S'y'
F100
sS'x'
F0
sg6
S'_right'
p59
s(dp60
S'y'
F100
sS'x'
F0
sg6
S'right'
p61
stp62
sssS'com.typemytype.robofont.mark'
p63
(F0
F0
F1
F1
tp64
s."
AnchorPoint: "DVAnchor3" -48 662 mark 0
LayerCount: 2
Fore
SplineSet
-351 783 m 1,0,-1
 -351 864 l 1,1,-1
 -270 864 l 2,2,3
 -184.637577105 864 -184.637577105 864 -144.312010536 846.487213913 c 1,4,5
 -165.740587137 893.676824028 -165.740587137 893.676824028 -185.610333371 905.83841186 c 128,-1,6
 -205.480079606 917.999999691 -205.480079606 917.999999691 -261 918 c 2,7,-1
 -351 918 l 1,8,-1
 -351 999 l 1,9,-1
 -261 999 l 2,10,11
 -212 999 -212 999 -183.5 995 c 128,-1,12
 -155 991 -155 991 -127 976.5 c 128,-1,13
 -99 962 -99 962 -79 933.5 c 128,-1,14
 -59 905 -59 905 -38 856 c 2,15,-1
 0 766 l 1,16,-1
 -93 728 l 1,17,18
 -136 764 -136 764 -166.5 773.5 c 128,-1,19
 -197 783 -197 783 -269 783 c 2,20,-1
 -351 783 l 1,0,-1
60 922 m 0,21,22
 60 901 60 901 44.5 888.5 c 128,-1,23
 29 876 29 876 8 876 c 0,24,25
 -12 876 -12 876 -28 888.5 c 128,-1,26
 -44 901 -44 901 -44 922 c 0,27,28
 -44 944 -44 944 -28.5 956.5 c 128,-1,29
 -13 969 -13 969 8 969 c 128,-1,30
 29 969 29 969 44.5 957 c 128,-1,31
 60 945 60 945 60 922 c 0,21,22
EndSplineSet
Ligature2: "AboveBaseSubstitutionslookup subtable" aisigndeva anusvaradeva
EndChar

StartChar: ampersand
Encoding: 38 38 147
Width: 634
VWidth: 0
Flags: W
PickledData: "(dp1
S'com.fontlab.hintData'
p2
(dp3
S'vhints'
p4
((dp5
S'position'
p6
I101
sS'width'
p7
I40
s(dp8
g6
I486
sg7
I41
stp9
sS'hhints'
p10
((dp11
g6
I-11
sg7
I21
s(dp12
g6
I748
sg7
I20
stp13
ssS'com.typemytype.robofont.layerData'
p14
(dp15
S'formes'
p16
(dp17
S'name'
p18
S'ampersand'
p19
sS'lib'
p20
(dp21
sS'unicodes'
p22
(tsg7
I634
sS'contours'
p23
((dp24
S'points'
p25
((dp26
S'segmentType'
p27
S'line'
p28
sS'x'
I333
sS'smooth'
p29
I00
sS'y'
I318
s(dp30
S'y'
I311
sS'x'
I277
sg29
I00
s(dp31
S'y'
I276
sS'x'
I212
sg29
I00
s(dp32
g27
S'curve'
p33
sS'x'
I212
sg29
I00
sS'y'
I203
s(dp34
S'y'
I152
sS'x'
I212
sg29
I00
s(dp35
S'y'
I114
sS'x'
I246
sg29
I00
s(dp36
g27
S'curve'
p37
sS'x'
I312
sg29
I01
sS'y'
I114
s(dp38
S'y'
I114
sS'x'
I375
sg29
I00
s(dp39
S'y'
I150
sS'x'
I410
sg29
I00
s(dp40
g27
S'curve'
p41
sS'x'
I410
sg29
I00
sS'y'
I206
s(dp42
S'y'
I288
sS'x'
I410
sg29
I00
s(dp43
S'y'
I310
sS'x'
I340
sg29
I00
s(dp44
g27
S'curve'
p45
sS'x'
I280
sg29
I00
sS'y'
I326
s(dp46
g27
S'line'
p47
sS'x'
I355
sg29
I00
sS'y'
I434
s(dp48
S'y'
I423
sS'x'
I454
sg29
I00
s(dp49
S'y'
I338
sS'x'
I573
sg29
I00
s(dp50
g27
S'curve'
p51
sS'x'
I573
sg29
I00
sS'y'
I209
s(dp52
S'y'
I105
sS'x'
I573
sg29
I00
s(dp53
S'y'
I-14
sS'x'
I500
sg29
I00
s(dp54
g27
S'curve'
p55
sS'x'
I314
sg29
I00
sS'y'
I-14
s(dp56
S'y'
I-14
sS'x'
I120
sg29
I00
s(dp57
S'y'
I104
sS'x'
I49
sg29
I00
s(dp58
g27
S'curve'
p59
sS'x'
I49
sg29
I00
sS'y'
I211
s(dp60
S'y'
I338
sS'x'
I49
sg29
I00
s(dp61
S'y'
I422
sS'x'
I160
sg29
I00
s(dp62
g27
S'curve'
p63
sS'x'
I266
sg29
I00
sS'y'
I435
stp64
s(dp65
g25
((dp66
g27
S'line'
p67
sS'x'
I323
sg29
I00
sS'y'
I327
s(dp68
S'y'
I330
sS'x'
I297
sg29
I00
s(dp69
S'y'
I314
sS'x'
I291
sg29
I00
s(dp70
g27
S'curve'
p71
sS'x'
I266
sg29
I01
sS'y'
I317
s(dp72
S'y'
I329
sS'x'
I165
sg29
I00
s(dp73
S'y'
I419
sS'x'
I59
sg29
I00
s(dp74
g27
S'curve'
p75
sS'x'
I59
sg29
I00
sS'y'
I542
s(dp76
S'y'
I644
sS'x'
I59
sg29
I00
s(dp77
S'y'
I756
sS'x'
I127
sg29
I00
s(dp78
g27
S'curve'
p79
sS'x'
I314
sg29
I00
sS'y'
I756
s(dp80
S'y'
I756
sS'x'
I493
sg29
I00
s(dp81
S'y'
I642
sS'x'
I563
sg29
I00
s(dp82
g27
S'curve'
p83
sS'x'
I563
sg29
I00
sS'y'
I543
s(dp84
S'y'
I423
sS'x'
I563
sg29
I00
s(dp85
S'y'
I335
sS'x'
I443
sg29
I00
s(dp86
g27
S'curve'
p87
sS'x'
I332
sg29
I00
sS'y'
I323
s(dp88
g27
S'line'
p89
sS'x'
I290
sg29
I00
sS'y'
I416
s(dp90
S'y'
I431
sS'x'
I345
sg29
I00
s(dp91
S'y'
I462
sS'x'
I410
sg29
I00
s(dp92
g27
S'curve'
p93
sS'x'
I410
sg29
I01
sS'y'
I535
s(dp94
S'y'
I590
sS'x'
I410
sg29
I00
s(dp95
S'y'
I628
sS'x'
I377
sg29
I00
s(dp96
g27
S'curve'
p97
sS'x'
I313
sg29
I01
sS'y'
I628
s(dp98
S'y'
I628
sS'x'
I248
sg29
I00
s(dp99
S'y'
I589
sS'x'
I212
sg29
I00
s(dp100
g27
S'curve'
p101
sS'x'
I212
sg29
I00
sS'y'
I535
s(dp102
S'y'
I466
sS'x'
I212
sg29
I00
s(dp103
S'y'
I438
sS'x'
I281
sg29
I00
s(dp104
g27
S'curve'
p105
sS'x'
I338
sg29
I00
sS'y'
I434
stp106
s(dp107
g25
((dp108
g27
S'move'
p109
sS'x'
I660
sg29
I00
sS'y'
I30
s(dp110
S'y'
I27
sS'x'
I551
sg29
I00
s(dp111
S'y'
I133
sS'x'
I435
sg29
I00
s(dp112
g27
S'curve'
p113
sS'x'
I323
sg29
I01
sS'y'
I276
s(dp114
S'y'
I352
sS'x'
I263
sg29
I00
s(dp115
S'y'
I458
sS'x'
I173
sg29
I00
s(dp116
g27
S'curve'
p117
sS'x'
I173
sg29
I01
sS'y'
I559
s(dp118
S'y'
I641
sS'x'
I173
sg29
I00
s(dp119
S'y'
I705
sS'x'
I237
sg29
I00
s(dp120
g27
S'curve'
p121
sS'x'
I331
sg29
I01
sS'y'
I705
s(dp122
S'y'
I705
sS'x'
I432
sg29
I00
s(dp123
S'y'
I637
sS'x'
I484
sg29
I00
s(dp124
g27
S'curve'
p125
sS'x'
I484
sg29
I01
sS'y'
I571
s(dp126
S'y'
I512
sS'x'
I484
sg29
I00
s(dp127
S'y'
I435
sS'x'
I440
sg29
I00
s(dp128
g27
S'curve'
p129
sS'x'
I324
sg29
I01
sS'y'
I399
s(dp130
S'y'
I356
sS'x'
I189
sg29
I00
s(dp131
S'y'
I302
sS'x'
I111
sg29
I00
s(dp132
g27
S'curve'
p133
sS'x'
I111
sg29
I01
sS'y'
I191
s(dp134
S'y'
I116
sS'x'
I111
sg29
I00
s(dp135
S'y'
I31
sS'x'
I174
sg29
I00
s(dp136
g27
S'curve'
p137
sS'x'
I292
sg29
I01
sS'y'
I31
s(dp138
S'y'
I31
sS'x'
I353
sg29
I00
s(dp139
S'y'
I41
sS'x'
I419
sg29
I00
s(dp140
g27
S'curve'
p141
sS'x'
I491
sg29
I01
sS'y'
I143
s(dp142
S'y'
I204
sS'x'
I532
sg29
I00
s(dp143
S'y'
I292
sS'x'
I552
sg29
I00
s(dp144
g27
S'curve'
p145
sS'x'
I569
sg29
I01
sS'y'
I365
stp146
stp147
sS'components'
p148
(tsS'anchors'
p149
(tssS'mask'
p150
(dp151
g18
S'ampersand'
p152
sg20
(dp153
g14
(dp154
g150
(dp155
g18
S'eight'
p156
sg20
(dp157
sg22
(tsg7
I587
sg23
((dp158
g25
((dp159
g27
S'curve'
p160
sS'x'
I106
sg29
I01
sS'y'
I524
s(dp161
S'y'
I614
sS'x'
I106
sg29
I00
s(dp162
S'y'
I689
sS'x'
I190
sg29
I00
s(dp163
g27
S'curve'
p164
sS'x'
I292
sg29
I01
sS'y'
I689
s(dp165
S'y'
I689
sS'x'
I394
sg29
I00
s(dp166
S'y'
I615
sS'x'
I476
sg29
I00
s(dp167
g27
S'curve'
p168
sS'x'
I476
sg29
I01
sS'y'
I527
s(dp169
S'y'
I440
sS'x'
I476
sg29
I00
s(dp170
S'y'
I359
sS'x'
I394
sg29
I00
s(dp171
g27
S'curve'
p172
sS'x'
I292
sg29
I01
sS'y'
I359
s(dp173
S'y'
I359
sS'x'
I190
sg29
I00
s(dp174
S'y'
I442
sS'x'
I106
sg29
I00
stp175
s(dp176
g25
((dp177
g27
S'curve'
p178
sS'x'
I94
sg29
I01
sS'y'
I186
s(dp179
S'y'
I282
sS'x'
I94
sg29
I00
s(dp180
S'y'
I360
sS'x'
I182
sg29
I00
s(dp181
g27
S'curve'
p182
sS'x'
I292
sg29
I01
sS'y'
I360
s(dp183
S'y'
I360
sS'x'
I401
sg29
I00
s(dp184
S'y'
I282
sS'x'
I488
sg29
I00
s(dp185
g27
S'curve'
p186
sS'x'
I488
sg29
I01
sS'y'
I189
s(dp187
S'y'
I95
sS'x'
I488
sg29
I00
s(dp188
S'y'
I11
sS'x'
I403
sg29
I00
s(dp189
g27
S'curve'
p190
sS'x'
I292
sg29
I01
sS'y'
I11
s(dp191
S'y'
I11
sS'x'
I180
sg29
I00
s(dp192
S'y'
I97
sS'x'
I94
sg29
I00
stp193
stp194
sg148
(tsg149
(tssssg22
(tsg7
I634
sg23
((dp195
g25
((dp196
g27
S'move'
p197
sS'x'
I375
sg29
I00
sS'y'
I364
s(dp198
S'y'
I393
sS'x'
I458
sg29
I00
s(dp199
S'y'
I465
sS'x'
I497
sg29
I00
s(dp200
g27
S'curve'
p201
sS'x'
I497
sg29
I01
sS'y'
I536
s(dp202
S'y'
I631
sS'x'
I497
sg29
I00
s(dp203
S'y'
I704
sS'x'
I441
sg29
I00
s(dp204
g27
S'curve'
p205
sS'x'
I306
sg29
I01
sS'y'
I704
s(dp206
S'y'
I704
sS'x'
I175
sg29
I00
s(dp207
S'y'
I628
sS'x'
I113
sg29
I00
s(dp208
g27
S'curve'
p209
sS'x'
I113
sg29
I01
sS'y'
I532
s(dp210
S'y'
I437
sS'x'
I113
sg29
I00
s(dp211
S'y'
I374
sS'x'
I175
sg29
I00
s(dp212
g27
S'curve'
p213
sS'x'
I286
sg29
I01
sS'y'
I367
s(dp214
S'y'
I365
sS'x'
I317
sg29
I00
s(dp215
S'y'
I365
sS'x'
I328
sg29
I00
s(dp216
g27
S'curve'
p217
sS'x'
I358
sg29
I01
sS'y'
I363
s(dp218
S'y'
I355
sS'x'
I446
sg29
I00
s(dp219
S'y'
I285
sS'x'
I497
sg29
I00
s(dp220
g27
S'curve'
p221
sS'x'
I497
sg29
I01
sS'y'
I198
s(dp222
S'y'
I104
sS'x'
I497
sg29
I00
s(dp223
S'y'
I31
sS'x'
I441
sg29
I00
s(dp224
g27
S'curve'
p225
sS'x'
I306
sg29
I01
sS'y'
I31
s(dp226
S'y'
I31
sS'x'
I175
sg29
I00
s(dp227
S'y'
I107
sS'x'
I113
sg29
I00
s(dp228
g27
S'curve'
p229
sS'x'
I113
sg29
I01
sS'y'
I203
s(dp230
S'y'
I293
sS'x'
I113
sg29
I00
s(dp231
S'y'
I342
sS'x'
I167
sg29
I00
s(dp232
g27
S'curve'
p233
sS'x'
I243
sg29
I00
sS'y'
I369
stp234
s(dp235
g25
((dp236
g27
S'move'
p237
sS'x'
F642.70100000000002
sg29
I00
sS'y'
F-31.134799999999998
s(dp238
g27
S'line'
p239
sS'x'
I218
sg29
I01
sS'y'
I454
s(dp240
S'y'
F511.68599999999998
sS'x'
F167.5
sg29
I00
s(dp241
S'y'
F560.79700000000003
sS'x'
I150
sg29
I00
s(dp242
g27
S'curve'
p243
sS'x'
I150
sg29
I01
sS'y'
I604
s(dp244
S'y'
F694.52999999999997
sS'x'
I150
sg29
I00
s(dp245
S'y'
I761
sS'x'
F221.37
sg29
I00
s(dp246
g27
S'curve'
p247
sS'x'
I311
sg29
I01
sS'y'
I761
s(dp248
S'y'
I761
sS'x'
F400.62900000000002
sg29
I00
s(dp249
S'y'
I684
sS'x'
I462
sg29
I00
s(dp250
g27
S'curve'
p251
sS'x'
I462
sg29
I01
sS'y'
I624
s(dp252
S'y'
I543
sS'x'
I462
sg29
I00
s(dp253
S'y'
I465
sS'x'
I418
sg29
I00
s(dp254
g27
S'curve'
p255
sS'x'
I304
sg29
I01
sS'y'
I424
s(dp256
S'y'
F376.15899999999999
sS'x'
F170.97800000000001
sg29
I00
s(dp257
S'y'
F305.96100000000001
sS'x'
F88.223600000000005
sg29
I00
s(dp258
g27
S'curve'
p259
sS'x'
F88.223600000000005
sg29
I01
sS'y'
F198.785
s(dp260
S'y'
F96.997100000000003
sS'x'
F88.223600000000005
sg29
I00
s(dp261
S'y'
F2.39453
sS'x'
F172.33099999999999
sg29
I00
s(dp262
g27
S'curve'
p263
sS'x'
F281.72399999999999
sg29
I01
sS'y'
F2.39453
s(dp264
S'y'
F2.39453
sS'x'
F332.72000000000003
sg29
I00
s(dp265
S'y'
F11.582000000000001
sS'x'
F397.745
sg29
I00
s(dp266
g27
S'curve'
p267
sS'x'
I468
sg29
I01
sS'y'
I127
s(dp268
S'y'
I196
sS'x'
I510
sg29
I00
s(dp269
S'y'
I296
sS'x'
I529
sg29
I00
s(dp270
g27
S'curve'
p271
sS'x'
I546
sg29
I01
sS'y'
I377
stp272
s(dp273
g25
((dp274
g27
S'move'
p275
sS'x'
I572
sg29
I00
sS'y'
I0
stp276
stp277
sg148
(tsg149
(tsssS'com.typemytype.robofont.mark'
p278
(F0
F1
F0
F1
tp279
s."
HStem: -11 21 748 20
VStem: 101 40 486 41
LayerCount: 2
Fore
SplineSet
662 -32 m 1,0,1
 577.60969052 -34.0583002312 577.60969052 -34.0583002312 481.500472575 28.5204549257 c 1,2,3
 449.795162989 1.58388241135 449.795162989 1.58388241135 413.35255423 -12.3599889628 c 128,-1,4
 376.909945472 -26.3038603369 376.909945472 -26.3038603369 353.179231305 -28.6519301685 c 128,-1,5
 329.448517138 -31 329.448517138 -31 292 -31 c 0,6,7
 175 -31 175 -31 102 36.5 c 128,-1,8
 29 104 29 104 29 191 c 0,9,10
 29 258.169408472 29 258.169408472 59.3298942009 306.059963011 c 128,-1,11
 89.6597884019 353.950517549 89.6597884019 353.950517549 149.875752728 389.682800913 c 1,12,13
 91 480.985088192 91 480.985088192 91 552 c 0,14,15
 91 643 91 643 160 699.5 c 128,-1,16
 229 756 229 756 331 756 c 0,17,18
 437 756 437 756 501.5 699 c 128,-1,19
 566 642 566 642 566 564 c 0,20,21
 566 500.258183371 566 500.258183371 513.09938932 438.728106097 c 128,-1,22
 460.198778641 377.198028824 460.198778641 377.198028824 357.772295153 342.1231329 c 1,23,24
 363.101134335 335.373582081 363.101134335 335.373582081 377 318 c 0,25,26
 387.703514557 304.304105029 387.703514557 304.304105029 396.721282195 292.941867024 c 128,-1,27
 405.739049834 281.579629019 405.739049834 281.579629019 415.79819052 269.165805546 c 128,-1,28
 425.857331206 256.751982074 425.857331206 256.751982074 435.74793021 245.006743086 c 128,-1,29
 445.638529213 233.261504099 445.638529213 233.261504099 455.061495751 222.556137694 c 1,30,31
 460.154983189 234.446318588 460.154983189 234.446318588 464.851121596 248.239480164 c 128,-1,32
 469.547260003 262.03264174 469.547260003 262.03264174 473.013852898 274.34090123 c 128,-1,33
 476.480445792 286.649160721 476.480445792 286.649160721 480.158045492 301.67346831 c 128,-1,34
 483.835645193 316.697775898 483.835645193 316.697775898 486.362904316 328.200438948 c 128,-1,35
 488.890163438 339.703101999 488.890163438 339.703101999 492.272061931 354.924867888 c 128,-1,36
 495.653960423 370.146633778 495.653960423 370.146633778 498 380 c 1,37,-1
 646 347 l 1,38,39
 615.34416844 214.695884844 615.34416844 214.695884844 561.451999652 124.214179358 c 1,40,41
 612.434017001 90.5610742211 612.434017001 90.5610742211 658 92 c 1,42,-1
 662 -32 l 1,0,1
285.278262753 448.278310965 m 1,43,44
 290.336489311 449.963665398 290.336489311 449.963665398 295.515836202 451.643427728 c 128,-1,45
 300.695183094 453.323190058 300.695183094 453.323190058 306 455 c 0,46,47
 358 471 358 471 380 501.5 c 128,-1,48
 402 532 402 532 402 564 c 0,49,50
 402 590 402 590 385 611 c 128,-1,51
 368 632 368 632 331 632 c 128,-1,52
 294 632 294 632 274.5 608 c 128,-1,53
 255 584 255 584 255 552 c 0,54,55
 255 505.423496486 255 505.423496486 285.278262753 448.278310965 c 1,43,44
231.332449799 280.842555051 m 1,56,57
 212.188302526 263.281806163 212.188302526 263.281806163 202.594151263 241.216517468 c 128,-1,58
 193 219.151228773 193 219.151228773 193 191 c 0,59,60
 193 154 193 154 218 123.5 c 128,-1,61
 243 93 243 93 292 93 c 0,62,63
 306.10286663 93 306.10286663 93 318.674944623 95.1386785606 c 128,-1,64
 331.247022615 97.2773571211 331.247022615 97.2773571211 345.168246891 102.898766759 c 128,-1,65
 359.089471167 108.520176398 359.089471167 108.520176398 372.303095217 117.700764649 c 1,66,67
 320.539752246 168.296651717 320.539752246 168.296651717 269 234 c 0,68,69
 265.694744398 238.228782903 265.694744398 238.228782903 262.220468012 242.605961841 c 128,-1,70
 258.746191627 246.983140779 258.746191627 246.983140779 254.316411467 252.477721941 c 128,-1,71
 249.886631307 257.972303103 249.886631307 257.972303103 247.313174952 261.153389469 c 128,-1,72
 244.739718597 264.334475834 244.739718597 264.334475834 238.976739533 271.428964116 c 128,-1,73
 233.213760469 278.523452397 233.213760469 278.523452397 231.332449799 280.842555051 c 1,56,57
EndSplineSet
EndChar

StartChar: anudattadeva
Encoding: 2386 2386 148
Width: 0
VWidth: 0
Flags: W
PickledData: "(dp1
S'com.typemytype.robofont.layerData'
p2
(dp3
S'formes'
p4
(dp5
S'name'
p6
S'anudattadeva'
p7
sS'lib'
p8
(dp9
sS'unicodes'
p10
(tsS'width'
p11
I0
sS'contours'
p12
((dp13
S'points'
p14
((dp15
S'segmentType'
p16
S'move'
p17
sS'x'
I-637
sS'smooth'
p18
I00
sS'y'
I-140
s(dp19
g16
S'line'
p20
sS'x'
I-110
sg18
I00
sS'y'
I-140
stp21
stp22
sS'components'
p23
(tsS'anchors'
p24
(tssS'mask'
p25
(dp26
g6
S'anudattadeva'
p27
sg8
(dp28
sg10
(tsg11
I0
sg12
(tsg23
(tsg24
(tsssS'com.typemytype.robofont.mark'
p29
(F0.94889999999999997
F0.61380000000000001
F0.1515
F1
tp30
s."
LayerCount: 2
Fore
SplineSet
-323 -108 m 1,0,-1
 0 -108 l 1,1,-1
 0 -200 l 1,2,-1
 -323 -200 l 1,3,-1
 -323 -108 l 1,0,-1
EndSplineSet
EndChar

StartChar: anusvaradeva
Encoding: 2306 2306 149
Width: 0
VWidth: 0
Flags: W
PickledData: "(dp1
S'com.typemytype.robofont.layerData'
p2
(dp3
S'formes'
p4
(dp5
S'name'
p6
S'anusvaradeva'
p7
sS'lib'
p8
(dp9
sS'unicodes'
p10
(tsS'width'
p11
I0
sS'contours'
p12
((dp13
S'points'
p14
((dp15
S'segmentType'
p16
S'curve'
p17
sS'x'
I-83
sS'smooth'
p18
I01
sS'y'
I946
s(dp19
S'y'
I943
sS'x'
I-83
sg18
I00
s(dp20
S'y'
I941
sS'x'
I-85
sg18
I00
s(dp21
g16
S'curve'
p22
sS'x'
I-88
sg18
I01
sS'y'
I941
s(dp23
S'y'
I941
sS'x'
I-91
sg18
I00
s(dp24
S'y'
I943
sS'x'
I-93
sg18
I00
s(dp25
g16
S'curve'
p26
sS'x'
I-93
sg18
I01
sS'y'
I946
s(dp27
S'y'
I949
sS'x'
I-93
sg18
I00
s(dp28
S'y'
I951
sS'x'
I-91
sg18
I00
s(dp29
g16
S'curve'
p30
sS'x'
I-88
sg18
I01
sS'y'
I951
s(dp31
S'y'
I951
sS'x'
I-85
sg18
I00
s(dp32
S'y'
I949
sS'x'
I-83
sg18
I00
stp33
stp34
sS'components'
p35
(tsS'anchors'
p36
(tssS'mask'
p37
(dp38
g6
S'anusvaradeva'
p39
sg8
(dp40
sg10
(tsg11
I0
sg12
((dp41
g14
((dp42
g16
S'curve'
p43
sS'x'
I-77
sg18
I01
sS'y'
I882
s(dp44
S'y'
I832
sS'x'
I-77
sg18
I00
s(dp45
S'y'
I805
sS'x'
I-119
sg18
I00
s(dp46
g16
S'curve'
p47
sS'x'
I-162
sg18
I01
sS'y'
I805
s(dp48
S'y'
I805
sS'x'
I-205
sg18
I00
s(dp49
S'y'
I832
sS'x'
I-249
sg18
I00
s(dp50
g16
S'curve'
p51
sS'x'
I-249
sg18
I01
sS'y'
I882
s(dp52
S'y'
I934
sS'x'
I-249
sg18
I00
s(dp53
S'y'
I960
sS'x'
I-205
sg18
I00
s(dp54
g16
S'curve'
p55
sS'x'
I-163
sg18
I01
sS'y'
I960
s(dp56
S'y'
I960
sS'x'
I-121
sg18
I00
s(dp57
S'y'
I934
sS'x'
I-77
sg18
I00
stp58
stp59
sg35
(tsg36
(tsssS'com.typemytype.robofont.mark'
p60
(F0.94889999999999997
F0.61380000000000001
F0.1515
F1
tp61
s."
AnchorPoint: "DVAnchor3" -164 717 mark 0
LayerCount: 2
Fore
SplineSet
-77 882 m 0,0,1
 -77 846 -77 846 -102 825.5 c 128,-1,2
 -127 805 -127 805 -162 805 c 128,-1,3
 -197 805 -197 805 -223 825.5 c 128,-1,4
 -249 846 -249 846 -249 882 c 0,5,6
 -249 919 -249 919 -223 939.5 c 128,-1,7
 -197 960 -197 960 -163 960 c 128,-1,8
 -129 960 -129 960 -103 939.5 c 128,-1,9
 -77 919 -77 919 -77 882 c 0,0,1
EndSplineSet
EndChar

StartChar: asciicircum
Encoding: 94 94 154
Width: 449
VWidth: 0
Flags: W
PickledData: "(dp1
S'com.typemytype.robofont.layerData'
p2
(dp3
S'formes'
p4
(dp5
S'name'
p6
S'less'
p7
sS'lib'
p8
(dp9
sS'unicodes'
p10
(tsS'width'
p11
I449
sS'contours'
p12
(tsS'components'
p13
(tsS'anchors'
p14
(tssS'mask'
p15
(dp16
g6
S'asciicircum'
p17
sg8
(dp18
sg10
(tsg11
I449
sg12
(tsg13
(tsg14
(tsss."
LayerCount: 2
Fore
SplineSet
175 763 m 1,0,-1
 19 390 l 1,1,-1
 132 390 l 1,2,-1
 222 621 l 1,3,-1
 310 390 l 1,4,-1
 419 390 l 1,5,-1
 267 763 l 1,6,-1
 175 763 l 1,0,-1
EndSplineSet
EndChar

StartChar: asciitilde
Encoding: 126 126 155
Width: 508
VWidth: 0
Flags: W
PickledData: "(dp1
S'com.typemytype.robofont.layerData'
p2
(dp3
S'formes'
p4
(dp5
S'name'
p6
S'asciitilde'
p7
sS'lib'
p8
(dp9
sS'unicodes'
p10
(tsS'width'
p11
I508
sS'contours'
p12
(tsS'components'
p13
(tsS'anchors'
p14
(tssS'mask'
p15
(dp16
g6
S'asciitilde'
p17
sg8
(dp18
sg10
(tsg11
I508
sg12
(tsg13
(tsg14
(tsss."
LayerCount: 2
Fore
SplineSet
345 219 m 0,0,1
 414 219 414 219 447.5 264.5 c 128,-1,2
 481 310 481 310 483 367 c 1,3,-1
 404 383 l 1,4,5
 395 319 395 319 348 319 c 0,6,7
 322 319 322 319 258.5 357.5 c 128,-1,8
 195 396 195 396 156 396 c 0,9,10
 91 396 91 396 59.5 350 c 128,-1,11
 28 304 28 304 26 246 c 1,12,-1
 100 232 l 1,13,14
 104 295 104 295 155 295 c 0,15,16
 177 295 177 295 207.5 276 c 128,-1,17
 238 257 238 257 274 238 c 128,-1,18
 310 219 310 219 345 219 c 0,0,1
EndSplineSet
EndChar

StartChar: asterisk
Encoding: 42 42 157
Width: 559
VWidth: 0
Flags: W
PickledData: "(dp1
S'com.typemytype.robofont.layerData'
p2
(dp3
S'formes'
p4
(dp5
S'name'
p6
S'asterisk'
p7
sS'lib'
p8
(dp9
sS'unicodes'
p10
(tsS'width'
p11
I559
sS'contours'
p12
((dp13
S'points'
p14
((dp15
S'segmentType'
p16
S'line'
p17
sS'x'
I210
sS'smooth'
p18
I00
sS'y'
I400
s(dp19
g16
S'line'
p20
sS'x'
I150
sg18
I00
sS'y'
I439
s(dp21
g16
S'line'
p22
sS'x'
I250
sg18
I00
sS'y'
I559
s(dp23
g16
S'line'
p24
sS'x'
I97
sg18
I00
sS'y'
I533
s(dp25
g16
S'line'
p26
sS'x'
I90
sg18
I00
sS'y'
I613
s(dp27
g16
S'line'
p28
sS'x'
I243
sg18
I00
sS'y'
I599
s(dp29
g16
S'line'
p30
sS'x'
I157
sg18
I00
sS'y'
I706
s(dp31
g16
S'line'
p32
sS'x'
I230
sg18
I00
sS'y'
I739
s(dp33
g16
S'line'
p34
sS'x'
I276
sg18
I00
sS'y'
I626
s(dp35
g16
S'line'
p36
sS'x'
I330
sg18
I00
sS'y'
I739
s(dp37
g16
S'line'
p38
sS'x'
I396
sg18
I00
sS'y'
I706
s(dp39
g16
S'line'
p40
sS'x'
I316
sg18
I00
sS'y'
I599
s(dp41
g16
S'line'
p42
sS'x'
I470
sg18
I00
sS'y'
I619
s(dp43
g16
S'line'
p44
sS'x'
I470
sg18
I00
sS'y'
I546
s(dp45
g16
S'line'
p46
sS'x'
I316
sg18
I00
sS'y'
I559
s(dp47
g16
S'line'
p48
sS'x'
I430
sg18
I00
sS'y'
I439
s(dp49
g16
S'line'
p50
sS'x'
I356
sg18
I00
sS'y'
I400
s(dp51
g16
S'line'
p52
sS'x'
I290
sg18
I00
sS'y'
I546
stp53
s(dp54
g14
((dp55
g16
S'move'
p56
sS'x'
I435
sg18
I00
sS'y'
I475
s(dp57
g16
S'line'
p58
sS'x'
I107
sg18
I00
sS'y'
I664
stp59
s(dp60
g14
((dp61
g16
S'move'
p62
sS'x'
I107
sg18
I00
sS'y'
I475
s(dp63
g16
S'line'
p64
sS'x'
I435
sg18
I00
sS'y'
I663
stp65
s(dp66
g14
((dp67
g16
S'move'
p68
sS'x'
I271
sg18
I00
sS'y'
I758
s(dp69
g16
S'line'
p70
sS'x'
I271
sg18
I00
sS'y'
I380
stp71
s(dp72
g14
((dp73
g16
S'line'
p74
sS'x'
I440
sg18
I00
sS'y'
I409
s(dp75
g16
S'line'
p76
sS'x'
I44
sg18
I00
sS'y'
I620
s(dp77
g16
S'line'
p78
sS'x'
I102
sg18
I00
sS'y'
I730
s(dp79
g16
S'line'
p80
sS'x'
I498
sg18
I00
sS'y'
I519
stp81
s(dp82
g14
((dp83
g16
S'line'
p84
sS'x'
I44
sg18
I00
sS'y'
I519
s(dp85
g16
S'line'
p86
sS'x'
I440
sg18
I00
sS'y'
I729
s(dp87
g16
S'line'
p88
sS'x'
I498
sg18
I00
sS'y'
I619
s(dp89
g16
S'line'
p90
sS'x'
I102
sg18
I00
sS'y'
I409
stp91
s(dp92
g14
((dp93
g16
S'line'
p94
sS'x'
I333
sg18
I00
sS'y'
I781
s(dp95
g16
S'line'
p96
sS'x'
I333
sg18
I00
sS'y'
I357
s(dp97
g16
S'line'
p98
sS'x'
I209
sg18
I00
sS'y'
I357
s(dp99
g16
S'line'
p100
sS'x'
I209
sg18
I00
sS'y'
I781
stp101
stp102
sS'components'
p103
(tsS'anchors'
p104
(tssS'mask'
p105
(dp106
g6
S'asterisk'
p107
sg8
(dp108
sg10
(tsg11
I559
sg12
(tsg103
(tsg104
(tsss."
LayerCount: 2
Fore
SplineSet
213.104050892 478.753509798 m 1,0,-1
 112 415 l 1,1,-1
 54 517 l 1,2,-1
 161.624238348 571.853644061 l 1,3,-1
 54 626 l 1,4,-1
 112 728 l 1,5,-1
 215.076807568 664.865455365 l 1,6,-1
 209 781 l 1,7,-1
 333 781 l 1,8,-1
 326.65965689 661.237963475 l 1,9,-1
 430 727 l 1,10,-1
 488 625 l 1,11,-1
 378.971428571 571.514285714 l 1,12,-1
 488 517 l 1,13,-1
 430 415 l 1,14,-1
 326.020856528 481.228753804 l 1,15,-1
 333 357 l 1,16,-1
 209 357 l 1,17,-1
 213.104050892 478.753509798 l 1,0,-1
EndSplineSet
EndChar

StartChar: at
Encoding: 64 64 158
Width: 918
VWidth: 0
Flags: W
PickledData: "(dp1
S'com.typemytype.robofont.layerData'
p2
(dp3
S'formes'
p4
(dp5
S'name'
p6
S'at'
p7
sS'lib'
p8
(dp9
S'com.fontlab.hintData'
p10
(dp11
S'vhints'
p12
((dp13
S'position'
p14
I40
sS'width'
p15
I130
s(dp16
g14
I528
sg15
I111
s(dp17
g14
I528
sg15
I128
s(dp18
g14
I729
sg15
I126
stp19
sS'hhints'
p20
((dp21
g14
I-136
sg15
I129
s(dp22
g14
I81
sg15
I112
s(dp23
g14
I464
sg15
I90
s(dp24
g14
I464
sg15
I107
s(dp25
g14
I668
sg15
I129
stp26
ssg2
(dp27
S'mask'
p28
(dp29
g6
S'at'
p30
sg8
(dp31
sS'unicodes'
p32
(tsg15
I1043
sS'contours'
p33
((dp34
S'points'
p35
((dp36
S'segmentType'
p37
S'qcurve'
p38
sS'x'
I382
sS'smooth'
p39
I01
sS'y'
I320
s(dp40
S'y'
I265
sS'x'
I382
sg39
I00
s(dp41
S'y'
I185
sS'x'
I451
sg39
I00
s(dp42
g37
S'qcurve'
p43
sS'x'
F502
sg39
I01
sg6
S'inserted'
p44
sS'y'
F185
s(dp45
S'y'
I185
sS'x'
I553
sg39
I00
s(dp46
S'y'
I265
sS'x'
I622
sg39
I00
s(dp47
g37
S'qcurve'
p48
sS'x'
I622
sg39
I01
sS'y'
I320
s(dp49
S'y'
I374
sS'x'
I622
sg39
I00
s(dp50
S'y'
I453
sS'x'
I553
sg39
I00
s(dp51
g37
S'qcurve'
p52
sS'x'
F502
sg39
I01
sg6
S'inserted'
p53
sS'y'
F453
s(dp54
S'y'
I453
sS'x'
I451
sg39
I00
s(dp55
S'y'
I374
sS'x'
I382
sg39
I00
stp56
s(dp57
g35
((dp58
g37
S'qcurve'
p59
sS'x'
I317
sg39
I01
sS'y'
I320
s(dp60
S'y'
I398
sS'x'
I317
sg39
I00
s(dp61
S'y'
I511
sS'x'
I425
sg39
I00
s(dp62
g37
S'qcurve'
p63
sS'x'
I502
sg39
I01
sS'y'
I511
s(dp64
S'y'
I511
sS'x'
I537
sg39
I00
s(dp65
S'y'
I483
sS'x'
I599
sg39
I00
s(dp66
g37
S'qcurve'
p67
sS'x'
I622
sg39
I00
sS'y'
I457
s(dp68
g37
S'line'
p69
sS'x'
I622
sg39
I00
sS'y'
I505
s(dp70
g37
S'line'
p71
sS'x'
I688
sg39
I00
sS'y'
I505
s(dp72
g37
S'line'
p73
sS'x'
I688
sg39
I01
sS'y'
I208
s(dp74
S'y'
I188
sS'x'
I688
sg39
I00
s(dp75
S'y'
I158
sS'x'
I723
sg39
I00
s(dp76
g37
S'qcurve'
p77
sS'x'
I748
sg39
I01
sS'y'
I158
s(dp78
S'y'
I158
sS'x'
I803
sg39
I00
s(dp79
S'y'
I266
sS'x'
I880
sg39
I00
s(dp80
g37
S'qcurve'
p81
sS'x'
I880
sg39
I01
sS'y'
I344
s(dp82
S'y'
I475
sS'x'
I880
sg39
I00
s(dp83
S'y'
I662
sS'x'
I678
sg39
I00
s(dp84
g37
S'qcurve'
p85
sS'x'
I535
sg39
I01
sS'y'
I662
s(dp86
S'y'
I662
sS'x'
I381
sg39
I00
s(dp87
S'y'
I458
sS'x'
I162
sg39
I00
s(dp88
g37
S'qcurve'
p89
sS'x'
I162
sg39
I01
sS'y'
I314
s(dp90
S'y'
I184
sS'x'
I162
sg39
I00
s(dp91
S'y'
I0
sS'x'
I381
sg39
I00
s(dp92
g37
S'qcurve'
p93
sS'x'
I535
sg39
I01
sS'y'
I0
s(dp94
S'y'
I0
sS'x'
I595
sg39
I00
s(dp95
S'y'
I32
sS'x'
I700
sg39
I00
s(dp96
g37
S'qcurve'
p97
sS'x'
I740
sg39
I00
sS'y'
I63
s(dp98
g37
S'line'
p99
sS'x'
I772
sg39
I00
sS'y'
I8
s(dp100
S'y'
I-27
sS'x'
I722
sg39
I00
s(dp101
S'y'
I-64
sS'x'
I601
sg39
I00
s(dp102
g37
S'qcurve'
p103
sS'x'
I535
sg39
I01
sS'y'
I-64
s(dp104
S'y'
I-64
sS'x'
I356
sg39
I00
s(dp105
S'y'
I157
sS'x'
I100
sg39
I00
s(dp106
g37
S'qcurve'
p107
sS'x'
I100
sg39
I01
sS'y'
I314
s(dp108
S'y'
I483
sS'x'
I100
sg39
I00
s(dp109
S'y'
I723
sS'x'
I356
sg39
I00
s(dp110
g37
S'qcurve'
p111
sS'x'
I535
sg39
I01
sS'y'
I723
s(dp112
S'y'
I723
sS'x'
I704
sg39
I00
s(dp113
S'y'
I501
sS'x'
I944
sg39
I00
s(dp114
g37
S'qcurve'
p115
sS'x'
I944
sg39
I01
sS'y'
I344
s(dp116
S'y'
I241
sS'x'
I944
sg39
I00
s(dp117
S'y'
I95
sS'x'
I830
sg39
I00
s(dp118
g37
S'qcurve'
p119
sS'x'
I748
sg39
I01
sS'y'
I95
s(dp120
S'y'
I95
sS'x'
I702
sg39
I00
s(dp121
S'y'
I144
sS'x'
I631
sg39
I00
s(dp122
g37
S'qcurve'
p123
sS'x'
I625
sg39
I00
sS'y'
I182
s(dp124
S'y'
I152
sS'x'
I607
sg39
I00
s(dp125
S'y'
I119
sS'x'
I541
sg39
I00
s(dp126
g37
S'qcurve'
p127
sS'x'
I502
sg39
I01
sS'y'
I119
s(dp128
S'y'
I119
sS'x'
I423
sg39
I00
s(dp129
S'y'
I237
sS'x'
I317
sg39
I00
stp130
stp131
sS'components'
p132
(tsS'anchors'
p133
(tssssg32
(tsg15
I918
sg33
((dp134
g35
((dp135
g37
S'curve'
p136
sS'x'
I1496
sg39
I01
sS'y'
I86
s(dp137
S'y'
I86
sS'x'
I1547
sg39
I00
s(dp138
S'y'
I113
sS'x'
I1598
sg39
I00
s(dp139
g37
S'curve'
p140
sS'x'
I1631
sg39
I00
sS'y'
I149
s(dp141
S'y'
I111
sS'x'
I1653
sg39
I00
s(dp142
S'y'
I85
sS'x'
I1687
sg39
I00
s(dp143
g37
S'curve'
p144
sS'x'
I1754
sg39
I01
sS'y'
I85
s(dp145
S'y'
I85
sS'x'
I1895
sg39
I00
s(dp146
S'y'
I218
sS'x'
I1964
sg39
I00
s(dp147
g37
S'curve'
p148
sS'x'
I1964
sg39
I01
sS'y'
I342
s(dp149
S'y'
I584
sS'x'
I1964
sg39
I00
s(dp150
S'y'
I774
sS'x'
I1761
sg39
I00
s(dp151
g37
S'curve'
p152
sS'x'
I1504
sg39
I01
sS'y'
I774
s(dp153
S'y'
I774
sS'x'
I1251
sg39
I00
s(dp154
S'y'
I570
sS'x'
I1045
sg39
I00
s(dp155
g37
S'curve'
p156
sS'x'
I1045
sg39
I01
sS'y'
I317
s(dp157
S'y'
I60
sS'x'
I1045
sg39
I00
s(dp158
S'y'
I-144
sS'x'
I1251
sg39
I00
s(dp159
g37
S'curve'
p160
sS'x'
I1504
sg39
I01
sS'y'
I-144
s(dp161
S'y'
I-144
sS'x'
I1593
sg39
I00
s(dp162
S'y'
I-126
sS'x'
I1680
sg39
I00
s(dp163
g37
S'curve'
p164
sS'x'
I1758
sg39
I00
sS'y'
I-79
s(dp165
g37
S'line'
p166
sS'x'
I1704
sg39
I00
sS'y'
I14
s(dp167
S'y'
I-23
sS'x'
I1642
sg39
I00
s(dp168
S'y'
I-38
sS'x'
I1574
sg39
I00
s(dp169
g37
S'curve'
p170
sS'x'
I1504
sg39
I01
sS'y'
I-38
s(dp171
S'y'
I-38
sS'x'
I1309
sg39
I00
s(dp172
S'y'
I119
sS'x'
I1153
sg39
I00
s(dp173
g37
S'curve'
p174
sS'x'
I1153
sg39
I01
sS'y'
I317
s(dp175
S'y'
I510
sS'x'
I1153
sg39
I00
s(dp176
S'y'
I668
sS'x'
I1309
sg39
I00
s(dp177
g37
S'curve'
p178
sS'x'
I1504
sg39
I01
sS'y'
I668
s(dp179
S'y'
I668
sS'x'
I1709
sg39
I00
s(dp180
S'y'
I523
sS'x'
I1857
sg39
I00
s(dp181
g37
S'curve'
p182
sS'x'
I1857
sg39
I01
sS'y'
I342
s(dp183
S'y'
I264
sS'x'
I1857
sg39
I00
s(dp184
S'y'
I187
sS'x'
I1832
sg39
I00
s(dp185
g37
S'curve'
p186
sS'x'
I1762
sg39
I01
sS'y'
I187
s(dp187
S'y'
I187
sS'x'
I1729
sg39
I00
s(dp188
S'y'
I208
sS'x'
I1709
sg39
I00
s(dp189
g37
S'curve'
p190
sS'x'
I1709
sg39
I01
sS'y'
I245
s(dp191
g37
S'line'
p192
sS'x'
I1709
sg39
I00
sS'y'
I529
s(dp193
g37
S'line'
p194
sS'x'
I1602
sg39
I00
sS'y'
I529
s(dp195
g37
S'line'
p196
sS'x'
I1599
sg39
I00
sS'y'
I494
s(dp197
S'y'
I517
sS'x'
I1568
sg39
I00
s(dp198
S'y'
I531
sS'x'
I1532
sg39
I00
s(dp199
g37
S'curve'
p200
sS'x'
I1488
sg39
I01
sS'y'
I531
s(dp201
S'y'
I531
sS'x'
I1365
sg39
I00
s(dp202
S'y'
I428
sS'x'
I1267
sg39
I00
s(dp203
g37
S'curve'
p204
sS'x'
I1267
sg39
I01
sS'y'
I309
s(dp205
S'y'
I188
sS'x'
I1267
sg39
I00
s(dp206
S'y'
I86
sS'x'
I1363
sg39
I00
stp207
s(dp208
g35
((dp209
g37
S'curve'
p210
sS'x'
I1496
sg39
I01
sS'y'
I202
s(dp211
S'y'
I202
sS'x'
I1434
sg39
I00
s(dp212
S'y'
I247
sS'x'
I1387
sg39
I00
s(dp213
g37
S'curve'
p214
sS'x'
I1387
sg39
I01
sS'y'
I309
s(dp215
S'y'
I369
sS'x'
I1387
sg39
I00
s(dp216
S'y'
I418
sS'x'
I1435
sg39
I00
s(dp217
g37
S'curve'
p218
sS'x'
I1496
sg39
I01
sS'y'
I418
s(dp219
S'y'
I418
sS'x'
I1539
sg39
I00
s(dp220
S'y'
I389
sS'x'
I1577
sg39
I00
s(dp221
g37
S'curve'
p222
sS'x'
I1595
sg39
I00
sS'y'
I346
s(dp223
g37
S'line'
p224
sS'x'
I1595
sg39
I00
sS'y'
I269
s(dp225
S'y'
I228
sS'x'
I1575
sg39
I00
s(dp226
S'y'
I202
sS'x'
I1539
sg39
I00
stp227
s(dp228
g35
((dp229
g37
S'line'
p230
sS'x'
I639
sg39
I00
sS'y'
I259
s(dp231
S'y'
I172
sS'x'
I611
sg39
I00
s(dp232
S'y'
I112
sS'x'
I535
sg39
I00
s(dp233
g37
S'curve'
p234
sS'x'
I441
sg39
I01
sS'y'
I112
s(dp235
S'y'
I112
sS'x'
I333
sg39
I00
s(dp236
S'y'
I200
sS'x'
I246
sg39
I00
s(dp237
g37
S'curve'
p238
sS'x'
I246
sg39
I01
sS'y'
I327
s(dp239
S'y'
I451
sS'x'
I246
sg39
I00
s(dp240
S'y'
I542
sS'x'
I336
sg39
I00
s(dp241
g37
S'curve'
p242
sS'x'
I441
sg39
I01
sS'y'
I542
s(dp243
S'y'
I542
sS'x'
I535
sg39
I00
s(dp244
S'y'
I475
sS'x'
I617
sg39
I00
s(dp245
g37
S'curve'
p246
sS'x'
I640
sg39
I00
sS'y'
I380
s(dp247
g37
S'line'
p248
sS'x'
I552
sg39
I00
sS'y'
I358
s(dp249
S'y'
I411
sS'x'
I539
sg39
I00
s(dp250
S'y'
I458
sS'x'
I498
sg39
I00
s(dp251
g37
S'curve'
p252
sS'x'
I441
sg39
I01
sS'y'
I458
s(dp253
S'y'
I458
sS'x'
I377
sg39
I00
s(dp254
S'y'
I392
sS'x'
I338
sg39
I00
s(dp255
g37
S'curve'
p256
sS'x'
I338
sg39
I01
sS'y'
I327
s(dp257
S'y'
I260
sS'x'
I338
sg39
I00
s(dp258
S'y'
I196
sS'x'
I375
sg39
I00
s(dp259
g37
S'curve'
p260
sS'x'
I441
sg39
I01
sS'y'
I196
s(dp261
S'y'
I196
sS'x'
I498
sg39
I00
s(dp262
S'y'
I237
sS'x'
I537
sg39
I00
s(dp263
g37
S'curve'
p264
sS'x'
I553
sg39
I00
sS'y'
I287
stp265
s(dp266
g35
((dp267
g37
S'line'
p268
sS'x'
I640
sg39
I00
sS'y'
I537
s(dp269
g37
S'line'
p270
sS'x'
I640
sg39
I00
sS'y'
I125
s(dp271
g37
S'line'
p272
sS'x'
I548
sg39
I00
sS'y'
I125
s(dp273
g37
S'line'
p274
sS'x'
I548
sg39
I00
sS'y'
I537
stp275
s(dp276
g35
((dp277
g37
S'line'
p278
sS'x'
I597
sg39
I00
sS'y'
I196
s(dp279
S'y'
I183
sS'x'
I615
sg39
I00
s(dp280
S'y'
I181
sS'x'
I637
sg39
I00
s(dp281
g37
S'curve'
p282
sS'x'
I666
sg39
I01
sS'y'
I181
s(dp283
S'y'
I181
sS'x'
I740
sg39
I00
s(dp284
S'y'
I284
sS'x'
I763
sg39
I00
s(dp285
g37
S'curve'
p286
sS'x'
I763
sg39
I01
sS'y'
I361
s(dp287
S'y'
I529
sS'x'
I763
sg39
I00
s(dp288
S'y'
I679
sS'x'
I655
sg39
I00
s(dp289
g37
S'curve'
p290
sS'x'
I450
sg39
I01
sS'y'
I679
s(dp291
S'y'
I679
sS'x'
I261
sg39
I00
s(dp292
S'y'
I522
sS'x'
I131
sg39
I00
s(dp293
g37
S'curve'
p294
sS'x'
I131
sg39
I01
sS'y'
I336
s(dp295
S'y'
I148
sS'x'
I131
sg39
I00
s(dp296
S'y'
I-8
sS'x'
I257
sg39
I00
s(dp297
g37
S'curve'
p298
sS'x'
I460
sg39
I01
sS'y'
I-8
s(dp299
S'y'
I-8
sS'x'
I515
sg39
I00
s(dp300
S'y'
I-1
sS'x'
I570
sg39
I00
s(dp301
g37
S'curve'
p302
sS'x'
I611
sg39
I00
sS'y'
I13
s(dp303
g37
S'line'
p304
sS'x'
I639
sg39
I00
sS'y'
I-65
s(dp305
S'y'
I-83
sS'x'
I592
sg39
I00
s(dp306
S'y'
I-92
sS'x'
I525
sg39
I00
s(dp307
g37
S'curve'
p308
sS'x'
I460
sg39
I01
sS'y'
I-92
s(dp309
S'y'
I-92
sS'x'
I207
sg39
I00
s(dp310
S'y'
I96
sS'x'
I39
sg39
I00
s(dp311
g37
S'curve'
p312
sS'x'
I39
sg39
I00
sS'y'
I336
s(dp313
S'y'
I576
sS'x'
I39
sg39
I00
s(dp314
S'y'
I763
sS'x'
I215
sg39
I00
s(dp315
g37
S'curve'
p316
sS'x'
I450
sg39
I01
sS'y'
I763
s(dp317
S'y'
I763
sS'x'
I709
sg39
I00
s(dp318
S'y'
I579
sS'x'
I855
sg39
I00
s(dp319
g37
S'curve'
p320
sS'x'
I855
sg39
I01
sS'y'
I361
s(dp321
S'y'
I212
sS'x'
I855
sg39
I00
s(dp322
S'y'
I97
sS'x'
I775
sg39
I00
s(dp323
g37
S'curve'
p324
sS'x'
I666
sg39
I01
sS'y'
I97
s(dp325
S'y'
I97
sS'x'
I617
sg39
I00
s(dp326
S'y'
I105
sS'x'
I581
sg39
I00
s(dp327
g37
S'curve'
p328
sS'x'
I549
sg39
I00
sS'y'
I126
stp329
stp330
sg132
(tsg133
(tssg28
(dp331
g6
S'at'
p332
sg8
(dp333
sg32
(tsg15
I918
sg33
(tsg132
(tsg133
(tsssS'com.typemytype.robofont.mark'
p334
(F0
F1
F0
F1
tp335
s."
LayerCount: 2
Fore
SplineSet
550.875123196 112.36643727 m 1,0,-1
 548 112 l 1,1,-1
 548 149.918176003 l 1,2,3
 509.832697025 112 509.832697025 112 451 112 c 0,4,5
 361 112 361 112 308.5 170 c 128,-1,6
 256 228 256 228 256 327 c 128,-1,7
 256 426 256 426 309 484 c 128,-1,8
 362 542 362 542 451 542 c 0,9,10
 498.308509888 542 498.308509888 542 533 512.968283793 c 1,11,-1
 533 537 l 1,12,-1
 650 537 l 1,13,-1
 650 209.159426906 l 1,14,15
 656.526914346 209 656.526914346 209 662 209 c 0,16,17
 706 209 706 209 730 254.5 c 128,-1,18
 754 300 754 300 754 370 c 0,19,20
 754 489 754 489 675.5 574 c 128,-1,21
 597 659 597 659 460 659 c 0,22,23
 331 659 331 659 247 564.5 c 128,-1,24
 163 470 163 470 163 336 c 0,25,26
 163 198 163 198 247 105 c 128,-1,27
 331 12 331 12 470 12 c 0,28,29
 566 12 566 12 638 37 c 1,30,-1
 666 -65 l 1,31,32
 585 -96 585 -96 470 -96 c 0,33,34
 272 -96 272 -96 155.5 24 c 128,-1,35
 39 144 39 144 39 336 c 0,36,37
 39 526 39 526 156.5 646.5 c 128,-1,38
 274 767 274 767 460 767 c 0,39,40
 653 767 653 767 764 654.5 c 128,-1,41
 875 542 875 542 875 370 c 0,42,43
 875 246 875 246 812.5 173.5 c 128,-1,44
 750 101 750 101 647 101 c 0,45,46
 585.108478827 101 585.108478827 101 550.875123196 112.36643727 c 1,0,-1
533 282.133139387 m 1,47,-1
 533 362.027969644 l 1,48,49
 523.316941462 392.954762086 523.316941462 392.954762086 502.581014352 412.477381043 c 128,-1,50
 481.845087242 432 481.845087242 432 452 432 c 0,51,52
 415 432 415 432 392.5 400.5 c 128,-1,53
 370 369 370 369 370 327 c 0,54,55
 370 284 370 284 392 252.5 c 128,-1,56
 414 221 414 221 452 221 c 0,57,58
 509.480616527 221 509.480616527 221 533 282.133139387 c 1,47,-1
EndSplineSet
EndChar

StartChar: audeva
Encoding: 2324 2324 160
Width: 1161
VWidth: 0
Flags: W
PickledData: "(dp1
S'com.typemytype.robofont.layerData'
p2
(dp3
S'formes'
p4
(dp5
S'name'
p6
S'audeva'
p7
sS'lib'
p8
(dp9
sS'unicodes'
p10
(tsS'width'
p11
I1161
sS'contours'
p12
((dp13
S'points'
p14
((dp15
S'segmentType'
p16
S'move'
p17
sS'x'
I611
sS'smooth'
p18
I00
sS'y'
I633
s(dp19
g16
S'line'
p20
sS'x'
I1151
sg18
I00
sS'y'
I633
stp21
stp22
sS'components'
p23
((dp24
S'transformation'
p25
(I1
I0
I0
I1
I0
I0
tp26
sS'baseGlyph'
p27
S'adeva'
p28
s(dp29
g25
(I1
I0
I0
I1
I837
I-1
tp30
sg27
S'ausigndeva'
p31
stp32
sS'anchors'
p33
(tssS'mask'
p34
(dp35
g6
S'audeva'
p36
sg8
(dp37
sg10
(tsg11
I1161
sg12
(tsg23
(tsg33
(tsssS'com.typemytype.robofont.mark'
p38
(F0.94889999999999997
F0.61380000000000001
F0.1515
F1
tp39
s."
LayerCount: 2
Fore
SplineSet
86 309 m 1,0,1
 122 235 122 235 160.5 193.5 c 128,-1,2
 199 152 199 152 249 152 c 0,3,4
 296 152 296 152 317 179 c 128,-1,5
 338 206 338 206 338 246 c 0,6,7
 338 343 338 343 236 346 c 1,8,-1
 162 346 l 1,9,-1
 162 454 l 1,10,-1
 236 454 l 1,11,-1
 246 454 l 2,12,13
 285 454 285 454 304.5 475.5 c 128,-1,14
 324 497 324 497 324 529 c 0,15,16
 324 593 324 593 244 593 c 0,17,18
 190 593 190 593 135 563 c 1,19,-1
 85 661 l 1,20,21
 166 701 166 701 265 702 c 1,22,23
 366 701 366 701 426 658 c 128,-1,24
 486 615 486 615 486 530 c 0,25,26
 486 455.495524311 486 455.495524311 420.876655125 403.00869418 c 1,27,28
 432.981567298 394.537432925 432.981567298 394.537432925 443.32236516 384.769896272 c 128,-1,29
 453.663163022 375.002359618 453.663163022 375.002359618 462.175411574 364 c 1,30,-1
 594 364 l 1,31,-1
 594 579 l 1,32,-1
 594 645 l 1,33,-1
 594 687 l 1,34,-1
 827 687 l 1,35,-1
 847 687 l 1,36,-1
 905.229276867 687 l 1,37,38
 846.201909091 744 846.201909091 744 781 744 c 2,39,-1
 733 744 l 1,40,-1
 733 825 l 1,41,-1
 780 825 l 2,42,43
 828.989608714 825 828.989608714 825 875.619280751 800.827372045 c 128,-1,44
 922.248952788 776.65474409 922.248952788 776.65474409 966.737290791 738.068569959 c 1,45,-1
 943 791 l 2,46,47
 919 845 919 845 886 862 c 128,-1,48
 853 879 853 879 789 879 c 2,49,-1
 759 879 l 1,50,-1
 759 960 l 1,51,-1
 789 960 l 2,52,53
 882 960 882 960 926 934 c 128,-1,54
 970 908 970 908 1012 817 c 2,55,-1
 1071.46188341 687 l 1,56,-1
 1151 687 l 1,57,-1
 1171 687 l 1,58,-1
 1171 579 l 1,59,-1
 1151 579 l 1,60,-1
 1080 579 l 1,61,-1
 1080 0 l 1,62,-1
 918 0 l 1,63,-1
 918 579 l 1,64,-1
 847 579 l 1,65,-1
 827 579 l 1,66,-1
 756 579 l 1,67,-1
 756 0 l 1,68,-1
 594 0 l 1,69,-1
 594 256 l 1,70,-1
 499.792621516 256 l 1,71,72
 499.999742215 251.051934178 499.999742215 251.051934178 500 246 c 0,73,74
 500 152 500 152 432 97.5 c 128,-1,75
 364 43 364 43 259 43 c 0,76,77
 59 43 59 43 -40 249 c 1,78,-1
 86 309 l 1,0,1
EndSplineSet
EndChar

StartChar: ausign_ra_virama.alt1
Encoding: 65545 -1 161
Width: 324
VWidth: 0
Flags: W
PickledData: "(dp1
S'com.typemytype.robofont.layerData'
p2
(dp3
S'formes'
p4
(dp5
S'name'
p6
S'ausign_ra_virama.alt1'
p7
sS'lib'
p8
(dp9
sS'unicodes'
p10
(tsS'width'
p11
I324
sS'contours'
p12
((dp13
S'points'
p14
((dp15
S'segmentType'
p16
S'line'
p17
sS'x'
I-13
sS'smooth'
p18
I00
sS'y'
I606
s(dp19
g16
S'line'
p20
sS'x'
I-13
sg18
I00
sS'y'
I666
s(dp21
g16
S'line'
p22
sS'x'
I87
sg18
I00
sS'y'
I666
s(dp23
g16
S'line'
p24
sS'x'
I-193
sg18
I00
sS'y'
I799
s(dp25
g16
S'line'
p26
sS'x'
I-160
sg18
I00
sS'y'
I866
s(dp27
g16
S'line'
p28
sS'x'
I146
sg18
I00
sS'y'
I666
s(dp29
g16
S'line'
p30
sS'x'
I-20
sg18
I00
sS'y'
I959
s(dp31
g16
S'line'
p32
sS'x'
I47
sg18
I00
sS'y'
I999
s(dp33
g16
S'line'
p34
sS'x'
I107
sg18
I00
sS'y'
I859
s(dp35
S'y'
I899
sS'x'
I127
sg18
I00
s(dp36
S'y'
I945
sS'x'
I205
sg18
I00
s(dp37
g16
S'qcurve'
p38
sS'x'
I253
sg18
I01
sS'y'
I945
s(dp39
S'y'
I945
sS'x'
I272
sg18
I00
s(dp40
S'y'
I939
sS'x'
I308
sg18
I00
s(dp41
g16
S'qcurve'
p42
sS'x'
I326
sg18
I00
sS'y'
I932
s(dp43
g16
S'line'
p44
sS'x'
I326
sg18
I00
sS'y'
I872
s(dp45
S'y'
I883
sS'x'
I298
sg18
I00
s(dp46
S'y'
I892
sS'x'
I262
sg18
I00
s(dp47
g16
S'qcurve'
p48
sS'x'
I253
sg18
I01
sS'y'
I892
s(dp49
S'y'
I892
sS'x'
I206
sg18
I00
s(dp50
S'y'
I834
sS'x'
I140
sg18
I00
s(dp51
g16
S'qcurve'
p52
sS'x'
I140
sg18
I00
sS'y'
I792
s(dp53
g16
S'line'
p54
sS'x'
I184
sg18
I00
sS'y'
I666
s(dp55
g16
S'line'
p56
sS'x'
I280
sg18
I00
sS'y'
I666
s(dp57
g16
S'line'
p58
sS'x'
I280
sg18
I00
sS'y'
I606
s(dp59
g16
S'line'
p60
sS'x'
I166
sg18
I00
sS'y'
I606
s(dp61
g16
S'line'
p62
sS'x'
I166
sg18
I00
sS'y'
I0
s(dp63
g16
S'line'
p64
sS'x'
I100
sg18
I00
sS'y'
I0
s(dp65
g16
S'line'
p66
sS'x'
I100
sg18
I00
sS'y'
I606
stp67
stp68
sS'components'
p69
(tsS'anchors'
p70
(tssS'mask'
p71
(dp72
g6
S'ausign_ra_virama.alt1'
p73
sg8
(dp74
sg10
(tsg11
I324
sg12
(tsg69
(tsg70
(tsssS'com.typemytype.robofont.mark'
p75
(F0
F0
F1
F1
tp76
s."
LayerCount: 2
Fore
SplineSet
-78 960 m 1,0,-1
 -48 960 l 2,1,2
 31.8448311775 960 31.8448311775 960 72.8830095677 942.957497616 c 128,-1,3
 113.921187958 925.914995232 113.921187958 925.914995232 147.776319152 869.6459494 c 1,4,5
 195.398224548 969.540006764 195.398224548 969.540006764 381 958 c 1,6,-1
 381 887 l 1,7,8
 308.166110308 893.22921425 308.166110308 893.22921425 270.681854753 871.696219648 c 128,-1,9
 233.197599198 850.163225047 233.197599198 850.163225047 227.324962866 804.534672137 c 128,-1,10
 221.452326534 758.906119227 221.452326534 758.906119227 232.108348185 692.145474066 c 1,11,-1
 234.461883408 687 l 1,12,-1
 334 687 l 1,13,-1
 334 579 l 1,14,-1
 243 579 l 1,15,-1
 243 0 l 1,16,-1
 81 0 l 1,17,-1
 81 579 l 1,18,-1
 -10 579 l 1,19,-1
 -10 687 l 1,20,-1
 68.2292768669 687 l 1,21,22
 9.20190909155 744 9.20190909155 744 -56 744 c 2,23,-1
 -104 744 l 1,24,-1
 -104 825 l 1,25,-1
 -57 825 l 2,26,27
 -8.01039128651 825 -8.01039128651 825 38.6192807505 800.827372045 c 128,-1,28
 85.2489527874 776.65474409 85.2489527874 776.65474409 129.737290791 738.068569959 c 1,29,-1
 106 791 l 2,30,31
 82 845 82 845 49 862 c 128,-1,32
 16 879 16 879 -48 879 c 2,33,-1
 -78 879 l 1,34,-1
 -78 960 l 1,0,-1
EndSplineSet
Ligature2: "AboveBaseSubstitutionslookup subtable" ausigndeva radeva_viramadeva
EndChar

StartChar: ausign_ra_virama_anusvara
Encoding: 65546 -1 162
Width: 324
VWidth: 0
Flags: W
PickledData: "(dp1
S'com.typemytype.robofont.guides'
p2
((dp3
S'angle'
p4
I0
sS'name'
p5
NsS'magnetic'
p6
I5
sS'isGlobal'
p7
I00
sS'y'
I903
sS'x'
I-38
stp8
sS'com.typemytype.robofont.layerData'
p9
(dp10
S'formes'
p11
(dp12
g5
S'ausign_ra_virama_anusvara'
p13
sS'lib'
p14
(dp15
sS'unicodes'
p16
(tsS'width'
p17
I324
sS'contours'
p18
((dp19
S'points'
p20
((dp21
S'segmentType'
p22
S'line'
p23
sS'x'
I213
sS'smooth'
p24
I00
sS'y'
I739
s(dp25
g22
S'line'
p26
sS'x'
I213
sg24
I00
sS'y'
I812
s(dp27
g22
S'line'
p28
sS'x'
I286
sg24
I00
sS'y'
I812
s(dp29
g22
S'line'
p30
sS'x'
I286
sg24
I00
sS'y'
I739
stp31
s(dp32
g20
((dp33
g22
S'line'
p34
sS'x'
I-13
sg24
I00
sS'y'
I606
s(dp35
g22
S'line'
p36
sS'x'
I-13
sg24
I00
sS'y'
I666
s(dp37
g22
S'line'
p38
sS'x'
I80
sg24
I00
sS'y'
I666
s(dp39
g22
S'line'
p40
sS'x'
I-193
sg24
I00
sS'y'
I806
s(dp41
g22
S'line'
p42
sS'x'
I-166
sg24
I00
sS'y'
I866
s(dp43
g22
S'line'
p44
sS'x'
I146
sg24
I00
sS'y'
I666
s(dp45
g22
S'line'
p46
sS'x'
I-27
sg24
I00
sS'y'
I959
s(dp47
g22
S'line'
p48
sS'x'
I40
sg24
I00
sS'y'
I999
s(dp49
g22
S'line'
p50
sS'x'
I100
sg24
I00
sS'y'
I859
s(dp51
S'y'
I899
sS'x'
I120
sg24
I00
s(dp52
S'y'
I945
sS'x'
I198
sg24
I00
s(dp53
g22
S'qcurve'
p54
sS'x'
I246
sg24
I01
sS'y'
I945
s(dp55
S'y'
I945
sS'x'
I265
sg24
I00
s(dp56
S'y'
I939
sS'x'
I301
sg24
I00
s(dp57
g22
S'qcurve'
p58
sS'x'
I320
sg24
I00
sS'y'
I932
s(dp59
g22
S'line'
p60
sS'x'
I320
sg24
I00
sS'y'
I872
s(dp61
S'y'
I883
sS'x'
I292
sg24
I00
s(dp62
S'y'
I892
sS'x'
I256
sg24
I00
s(dp63
g22
S'qcurve'
p64
sS'x'
I246
sg24
I01
sS'y'
I892
s(dp65
S'y'
I892
sS'x'
I200
sg24
I00
s(dp66
S'y'
I834
sS'x'
I133
sg24
I00
s(dp67
g22
S'qcurve'
p68
sS'x'
I133
sg24
I00
sS'y'
I792
s(dp69
g22
S'line'
p70
sS'x'
I177
sg24
I00
sS'y'
I666
s(dp71
g22
S'line'
p72
sS'x'
I280
sg24
I00
sS'y'
I666
s(dp73
g22
S'line'
p74
sS'x'
I280
sg24
I00
sS'y'
I606
s(dp75
g22
S'line'
p76
sS'x'
I166
sg24
I00
sS'y'
I606
s(dp77
g22
S'line'
p78
sS'x'
I166
sg24
I00
sS'y'
I0
s(dp79
g22
S'line'
p80
sS'x'
I100
sg24
I00
sS'y'
I0
s(dp81
g22
S'line'
p82
sS'x'
I100
sg24
I00
sS'y'
I606
stp83
stp84
sS'components'
p85
(tsS'anchors'
p86
(tssS'mask'
p87
(dp88
g5
S'ausign_ra_virama_anusvara'
p89
sg14
(dp90
sg16
(tsg17
I324
sg18
(tsg85
(tsg86
(tsssS'com.typemytype.robofont.mark'
p91
(F0
F0
F1
F1
tp92
s."
LayerCount: 2
Fore
SplineSet
-78 960 m 1,0,-1
 -48 960 l 2,1,2
 31.8448311775 960 31.8448311775 960 72.8830095677 942.957497616 c 128,-1,3
 113.921187958 925.914995232 113.921187958 925.914995232 147.776319152 869.6459494 c 1,4,5
 195.398224548 969.540006764 195.398224548 969.540006764 381 958 c 1,6,-1
 381 887 l 1,7,8
 308.166110308 893.22921425 308.166110308 893.22921425 270.681854753 871.696219648 c 128,-1,9
 233.197599198 850.163225047 233.197599198 850.163225047 227.324962866 804.534672137 c 128,-1,10
 221.452326534 758.906119227 221.452326534 758.906119227 232.108348185 692.145474066 c 1,11,-1
 234.461883408 687 l 1,12,-1
 334 687 l 1,13,-1
 334 579 l 1,14,-1
 243 579 l 1,15,-1
 243 0 l 1,16,-1
 81 0 l 1,17,-1
 81 579 l 1,18,-1
 -10 579 l 1,19,-1
 -10 687 l 1,20,-1
 68.2292768669 687 l 1,21,22
 9.20190909155 744 9.20190909155 744 -56 744 c 2,23,-1
 -104 744 l 1,24,-1
 -104 825 l 1,25,-1
 -57 825 l 2,26,27
 -8.01039128651 825 -8.01039128651 825 38.6192807505 800.827372045 c 128,-1,28
 85.2489527874 776.65474409 85.2489527874 776.65474409 129.737290791 738.068569959 c 1,29,-1
 106 791 l 2,30,31
 82 845 82 845 49 862 c 128,-1,32
 16 879 16 879 -48 879 c 2,33,-1
 -78 879 l 1,34,-1
 -78 960 l 1,0,-1
376 805 m 0,35,36
 376 784 376 784 360.5 771.5 c 128,-1,37
 345 759 345 759 324 759 c 0,38,39
 304 759 304 759 288 771.5 c 128,-1,40
 272 784 272 784 272 805 c 0,41,42
 272 827 272 827 287.5 839.5 c 128,-1,43
 303 852 303 852 324 852 c 128,-1,44
 345 852 345 852 360.5 840 c 128,-1,45
 376 828 376 828 376 805 c 0,35,36
EndSplineSet
Ligature2: "AboveBaseSubstitutionslookup subtable" ausigndeva radeva_viramadeva anusvaradeva
EndChar

StartChar: ausigndeva
Encoding: 2380 2380 163
Width: 324
VWidth: 0
Flags: W
PickledData: "(dp1
S'com.typemytype.robofont.layerData'
p2
(dp3
S'formes'
p4
(dp5
S'name'
p6
S'ausigndeva'
p7
sS'lib'
p8
(dp9
sS'unicodes'
p10
(tsS'width'
p11
I324
sS'contours'
p12
((dp13
S'points'
p14
((dp15
S'segmentType'
p16
S'line'
p17
sS'x'
I-108
sS'smooth'
p18
I00
sS'y'
I783
s(dp19
g16
S'line'
p20
sS'x'
I-108
sg18
I00
sS'y'
I864
s(dp21
g16
S'line'
p22
sS'x'
I-27
sg18
I01
sS'y'
I864
s(dp23
S'y'
I864
sS'x'
I82
sg18
I00
s(dp24
S'y'
I848
sS'x'
I113
sg18
I00
s(dp25
g16
S'curve'
p26
sS'x'
I161
sg18
I00
sS'y'
I801
s(dp27
g16
S'line'
p28
sS'x'
I150
sg18
I00
sS'y'
I728
s(dp29
S'y'
I775
sS'x'
I93
sg18
I00
s(dp30
S'y'
I783
sS'x'
I72
sg18
I00
s(dp31
g16
S'curve'
p32
sS'x'
I-26
sg18
I01
sS'y'
I783
stp33
s(dp34
g14
((dp35
g16
S'line'
p36
sS'x'
I-108
sg18
I00
sS'y'
I999
s(dp37
g16
S'line'
p38
sS'x'
I-18
sg18
I01
sS'y'
I999
s(dp39
S'y'
I999
sS'x'
I100
sg18
I00
s(dp40
S'y'
I986
sS'x'
I150
sg18
I00
s(dp41
g16
S'curve'
p42
sS'x'
I205
sg18
I01
sS'y'
I856
s(dp43
g16
S'line'
p44
sS'x'
I243
sg18
I00
sS'y'
I766
s(dp45
g16
S'line'
p46
sS'x'
I150
sg18
I00
sS'y'
I728
s(dp47
g16
S'line'
p48
sS'x'
I106
sg18
I01
sS'y'
I830
s(dp49
S'y'
I908
sS'x'
I72
sg18
I00
s(dp50
S'y'
I918
sS'x'
I62
sg18
I00
s(dp51
g16
S'curve'
p52
sS'x'
I-18
sg18
I01
sS'y'
I918
s(dp53
g16
S'line'
p54
sS'x'
I-108
sg18
I00
sS'y'
I918
stp55
stp56
sS'components'
p57
((dp58
S'transformation'
p59
(I1
I0
I0
I1
I243
I0
tp60
sS'baseGlyph'
p61
S'aisigndeva'
p62
s(dp63
g59
(I1
I0
I0
I1
I76
I0
tp64
sg61
S'eprishthamatrasigndeva'
p65
stp66
sS'anchors'
p67
(tssS'mask'
p68
(dp69
g6
S'ausigndeva'
p70
sg8
(dp71
sg10
(tsg11
I324
sg12
(tsg57
(tsg67
(tsssS'com.typemytype.robofont.mark'
p72
(F0
F0
F1
F1
tp73
s."
LayerCount: 2
Fore
SplineSet
-78 960 m 1,0,-1
 -48 960 l 2,1,2
 45 960 45 960 89 934 c 128,-1,3
 133 908 133 908 175 817 c 2,4,-1
 234.461883408 687 l 1,5,-1
 334 687 l 1,6,-1
 334 579 l 1,7,-1
 243 579 l 1,8,-1
 243 0 l 1,9,-1
 81 0 l 1,10,-1
 81 579 l 1,11,-1
 -10 579 l 1,12,-1
 -10 687 l 1,13,-1
 68.2292768669 687 l 1,14,15
 9.20190909155 744 9.20190909155 744 -56 744 c 2,16,-1
 -104 744 l 1,17,-1
 -104 825 l 1,18,-1
 -57 825 l 2,19,20
 -8.01039128651 825 -8.01039128651 825 38.6192807505 800.827372045 c 128,-1,21
 85.2489527874 776.65474409 85.2489527874 776.65474409 129.737290791 738.068569959 c 1,22,-1
 106 791 l 2,23,24
 82 845 82 845 49 862 c 128,-1,25
 16 879 16 879 -48 879 c 2,26,-1
 -78 879 l 1,27,-1
 -78 960 l 1,0,-1
EndSplineSet
EndChar

StartChar: avagrahacombiningsigndeva
Encoding: 43249 43249 165
Width: 0
VWidth: 0
Flags: W
PickledData: "(dp1
S'com.typemytype.robofont.layerData'
p2
(dp3
S'formes'
p4
(dp5
S'name'
p6
S'avagrahacombiningsigndeva'
p7
sS'lib'
p8
(dp9
sS'unicodes'
p10
(tsS'width'
p11
I0
sS'contours'
p12
(tsS'components'
p13
(tsS'anchors'
p14
(tssS'mask'
p15
(dp16
g6
S'avagrahacombiningsigndeva'
p17
sg8
(dp18
sg10
(tsg11
I0
sg12
(tsg13
(tsg14
(tsssS'com.typemytype.robofont.mark'
p19
(F0
F0
F1
F1
tp20
s."
AnchorPoint: "DVAnchor3" -137 681 mark 0
LayerCount: 2
Fore
SplineSet
-57 1035 m 1,0,-1
 -142 1035 l 2,1,2
 -228 1035 -228 1035 -228 993 c 0,3,4
 -228 971 -228 971 -208 959.5 c 128,-1,5
 -188 948 -188 948 -156 948 c 2,6,-1
 -136 948 l 2,7,8
 -94 948 -94 948 -65.5 937 c 128,-1,9
 -37 926 -37 926 -24 908 c 128,-1,10
 -11 890 -11 890 -6 874 c 128,-1,11
 -1 858 -1 858 -1 841 c 0,12,13
 -1 785 -1 785 -41.5 755 c 128,-1,14
 -82 725 -82 725 -135 725 c 0,15,16
 -192 725 -192 725 -240.5 751 c 128,-1,17
 -289 777 -289 777 -320 823 c 1,18,-1
 -270 859 l 1,19,20
 -218 785 -218 785 -135 785 c 0,21,22
 -108 785 -108 785 -86.5 798.5 c 128,-1,23
 -65 812 -65 812 -65 841 c 0,24,25
 -65 859 -65 859 -82.5 873.5 c 128,-1,26
 -100 888 -100 888 -136 888 c 2,27,-1
 -156 888 l 2,28,29
 -223 888 -223 888 -257.5 917 c 128,-1,30
 -292 946 -292 946 -292 993 c 0,31,32
 -292 1095 -292 1095 -142 1095 c 2,33,-1
 -57 1095 l 1,34,-1
 -57 1035 l 1,0,-1
EndSplineSet
EndChar

StartChar: avagrahadeva
Encoding: 2365 2365 166
Width: 593
VWidth: 0
Flags: W
PickledData: "(dp1
S'com.typemytype.robofont.layerData'
p2
(dp3
S'formes'
p4
(dp5
S'name'
p6
S'avagrahadeva'
p7
sS'lib'
p8
(dp9
sS'unicodes'
p10
(tsS'width'
p11
I593
sS'contours'
p12
((dp13
S'points'
p14
((dp15
S'segmentType'
p16
S'move'
p17
sS'x'
I63
sS'smooth'
p18
I00
sS'y'
I133
s(dp19
S'y'
I83
sS'x'
I111
sg18
I00
s(dp20
S'y'
I43
sS'x'
I196
sg18
I00
s(dp21
g16
S'curve'
p22
sS'x'
I284
sg18
I01
sS'y'
I43
s(dp23
S'y'
I43
sS'x'
I403
sg18
I00
s(dp24
S'y'
I102
sS'x'
I477
sg18
I00
s(dp25
g16
S'curve'
p26
sS'x'
I477
sg18
I00
sS'y'
I190
s(dp27
S'y'
I271
sS'x'
I477
sg18
I00
s(dp28
S'y'
I310
sS'x'
I419
sg18
I00
s(dp29
g16
S'curve'
p30
sS'x'
I327
sg18
I01
sS'y'
I350
s(dp31
g16
S'line'
p32
sS'x'
I263
sg18
I01
sS'y'
I378
s(dp33
S'y'
I419
sS'x'
I170
sg18
I00
s(dp34
S'y'
I450
sS'x'
I120
sg18
I00
s(dp35
g16
S'curve'
p36
sS'x'
I120
sg18
I00
sS'y'
I519
s(dp37
S'y'
I595
sS'x'
I120
sg18
I00
s(dp38
S'y'
I633
sS'x'
I183
sg18
I00
s(dp39
g16
S'curve'
p40
sS'x'
I307
sg18
I01
sS'y'
I633
s(dp41
g16
S'line'
p42
sS'x'
I481
sg18
I00
sS'y'
I633
stp43
stp44
sS'components'
p45
(tsS'anchors'
p46
(tssS'mask'
p47
(dp48
g6
S'avagrahadeva'
p49
sg8
(dp50
sg10
(tsg11
I593
sg12
(tsg45
(tsg46
(tsssS'com.typemytype.robofont.mark'
p51
(F0
F0
F1
F1
tp52
s."
LayerCount: 2
Fore
SplineSet
106 174 m 1,0,1
 137 142 137 142 185 119.5 c 128,-1,2
 233 97 233 97 284 97 c 0,3,4
 338 97 338 97 367 123.5 c 128,-1,5
 396 150 396 150 396 190 c 0,6,7
 396 228 396 228 374.5 254 c 128,-1,8
 353 280 353 280 305 300 c 2,9,-1
 241 328 l 2,10,11
 186 352 186 352 155 368.5 c 128,-1,12
 124 385 124 385 94 407.5 c 128,-1,13
 64 430 64 430 51.5 457 c 128,-1,14
 39 484 39 484 39 519 c 0,15,16
 39 687 39 687 307 687 c 2,17,-1
 546 687 l 1,18,-1
 546 579 l 1,19,-1
 307 579 l 2,20,21
 201 579 201 579 201 519 c 0,22,23
 201 488 201 488 220 468 c 128,-1,24
 239 448 239 448 285 428 c 2,25,-1
 349 400 l 2,26,27
 403 376 403 376 434 359.5 c 128,-1,28
 465 343 465 343 497 317.5 c 128,-1,29
 529 292 529 292 543.5 261 c 128,-1,30
 558 230 558 230 558 190 c 0,31,32
 558 97 558 97 483 43 c 128,-1,33
 408 -11 408 -11 284 -11 c 0,34,35
 207 -11 207 -11 135.5 17.5 c 128,-1,36
 64 46 64 46 20 92 c 1,37,-1
 106 174 l 1,0,1
EndSplineSet
EndChar

StartChar: awdeva
Encoding: 2421 2421 167
Width: 1162
VWidth: 0
Flags: W
PickledData: "(dp1
S'com.typemytype.robofont.layerData'
p2
(dp3
S'formes'
p4
(dp5
S'name'
p6
S'awdeva'
p7
sS'lib'
p8
(dp9
sS'unicodes'
p10
(tsS'width'
p11
I1162
sS'contours'
p12
((dp13
S'points'
p14
((dp15
S'segmentType'
p16
S'qcurve'
p17
sS'x'
I310
sS'smooth'
p18
I01
sS'y'
I47
s(dp19
S'y'
I47
sS'x'
I230
sg18
I00
s(dp20
S'y'
I180
sS'x'
I80
sg18
I00
s(dp21
g16
S'qcurve'
p22
sS'x'
I24
sg18
I00
sS'y'
I300
s(dp23
g16
S'line'
p24
sS'x'
I71
sg18
I00
sS'y'
I340
s(dp25
S'y'
I232
sS'x'
I121
sg18
I00
s(dp26
S'y'
I113
sS'x'
I246
sg18
I00
s(dp27
g16
S'qcurve'
p28
sS'x'
I310
sg18
I01
sS'y'
I113
s(dp29
S'y'
I113
sS'x'
I352
sg18
I00
s(dp30
S'y'
I176
sS'x'
I410
sg18
I00
s(dp31
g16
S'qcurve'
p32
sS'x'
I410
sg18
I01
sS'y'
I220
s(dp33
S'y'
I272
sS'x'
I410
sg18
I00
s(dp34
S'y'
I346
sS'x'
I344
sg18
I00
s(dp35
g16
S'qcurve'
p36
sS'x'
I297
sg18
I01
sS'y'
I346
s(dp37
S'y'
I346
sS'x'
I282
sg18
I00
s(dp38
S'y'
I340
sS'x'
I249
sg18
I00
s(dp39
g16
S'qcurve'
p40
sS'x'
I230
sg18
I00
sS'y'
I333
s(dp41
g16
S'line'
p42
sS'x'
I204
sg18
I00
sS'y'
I393
s(dp43
S'y'
I398
sS'x'
I264
sg18
I00
s(dp44
S'y'
I471
sS'x'
I357
sg18
I00
s(dp45
g16
S'qcurve'
p46
sS'x'
I357
sg18
I01
sS'y'
I513
s(dp47
S'y'
I551
sS'x'
I357
sg18
I00
s(dp48
S'y'
I606
sS'x'
I294
sg18
I00
s(dp49
g16
S'qcurve'
p50
sS'x'
I250
sg18
I01
sS'y'
I606
s(dp51
S'y'
I606
sS'x'
I220
sg18
I00
s(dp52
S'y'
I561
sS'x'
I152
sg18
I00
s(dp53
g16
S'qcurve'
p54
sS'x'
I124
sg18
I00
sS'y'
I519
s(dp55
g16
S'line'
p56
sS'x'
I71
sg18
I00
sS'y'
I559
s(dp57
S'y'
I613
sS'x'
I108
sg18
I00
s(dp58
S'y'
I672
sS'x'
I204
sg18
I00
s(dp59
g16
S'qcurve'
p60
sS'x'
I250
sg18
I01
sS'y'
I672
s(dp61
S'y'
I672
sS'x'
I322
sg18
I00
s(dp62
S'y'
I579
sS'x'
I423
sg18
I00
s(dp63
g16
S'qcurve'
p64
sS'x'
I423
sg18
I01
sS'y'
I513
s(dp65
S'y'
I479
sS'x'
I423
sg18
I00
s(dp66
S'y'
I417
sS'x'
I391
sg18
I00
s(dp67
g16
S'qcurve'
p68
sS'x'
I364
sg18
I00
sS'y'
I393
s(dp69
S'y'
I364
sS'x'
I414
sg18
I00
s(dp70
S'y'
I333
sS'x'
I499
sg18
I00
s(dp71
g16
S'qcurve'
p72
sS'x'
I530
sg18
I01
sS'y'
I333
s(dp73
S'y'
I333
sS'x'
I539
sg18
I00
s(dp74
S'y'
I349
sS'x'
I573
sg18
I00
s(dp75
g16
S'qcurve'
p76
sS'x'
I603
sg18
I00
sS'y'
I366
s(dp77
g16
S'line'
p78
sS'x'
I603
sg18
I00
sS'y'
I606
s(dp79
g16
S'line'
p80
sS'x'
I483
sg18
I00
sS'y'
I606
s(dp81
g16
S'line'
p82
sS'x'
I483
sg18
I00
sS'y'
I666
s(dp83
g16
S'line'
p84
sS'x'
I844
sg18
I00
sS'y'
I666
s(dp85
S'y'
F678
sS'x'
F837.5
sg6
S'inserted'
p86
s(dp87
S'y'
F699
sS'x'
F819.5
s(dp88
g16
S'qcurve'
p89
sS'x'
I808
sg18
I01
sS'y'
I708
s(dp90
S'y'
F726
sS'x'
F785.5
sg6
S'inserted'
p91
s(dp92
S'y'
F740
sS'x'
F736
s(dp93
g16
S'qcurve'
p94
sS'x'
I709
sg18
I01
sS'y'
I736
s(dp95
S'y'
I725
sS'x'
I636
sg18
I00
s(dp96
S'y'
I786
sS'x'
I519
sg18
I00
s(dp97
g16
S'qcurve'
p98
sS'x'
I494
sg18
I00
sS'y'
I863
s(dp99
g16
S'line'
p100
sS'x'
I560
sg18
I00
sS'y'
I872
s(dp101
S'y'
I819
sS'x'
I577
sg18
I00
s(dp102
S'y'
I781
sS'x'
I653
sg18
I00
s(dp103
g16
S'qcurve'
p104
sS'x'
I701
sg18
I01
sS'y'
I788
s(dp105
S'y'
F794
sS'x'
F742
sg6
S'inserted'
p106
s(dp107
S'y'
F775
sS'x'
F807
s(dp108
g16
S'qcurve'
p109
sS'x'
I831
sg18
I01
sS'y'
I750
s(dp110
S'y'
F732.5
sS'x'
F847.5
sg6
S'inserted'
p111
s(dp112
S'y'
F690.5
sS'x'
F872
s(dp113
g16
S'qcurve'
p114
sS'x'
I880
sg18
I00
sS'y'
I666
s(dp115
g16
S'line'
p116
sS'x'
I916
sg18
I00
sS'y'
I666
s(dp117
S'y'
F683.5
sS'x'
F916
sg6
S'inserted'
p118
s(dp119
S'y'
F717.5
sS'x'
F907
s(dp120
g16
S'qcurve'
p121
sS'x'
I898
sg18
I01
sS'y'
I734
s(dp122
S'y'
F759
sS'x'
F884.5
sg6
S'inserted'
p123
s(dp124
S'y'
F790.5
sS'x'
F844
s(dp125
g16
S'qcurve'
p126
sS'x'
I817
sg18
I00
sS'y'
I797
s(dp127
S'y'
I816
sS'x'
I747
sg18
I00
s(dp128
S'y'
I918
sS'x'
I662
sg18
I00
s(dp129
g16
S'qcurve'
p130
sS'x'
I669
sg18
I00
sS'y'
I998
s(dp131
g16
S'line'
p132
sS'x'
I733
sg18
I00
sS'y'
I981
s(dp133
S'y'
I925
sS'x'
I728
sg18
I00
s(dp134
S'y'
I861
sS'x'
I784
sg18
I00
s(dp135
g16
S'qcurve'
p136
sS'x'
I831
sg18
I01
sS'y'
I849
s(dp137
S'y'
F838.5
sS'x'
F871
sg6
S'inserted'
p138
s(dp139
S'y'
F795.5
sS'x'
F923.5
s(dp140
g16
S'qcurve'
p141
sS'x'
I936
sg18
I01
sS'y'
I763
s(dp142
S'y'
F740.5
sS'x'
F944.5
sg6
S'inserted'
p143
s(dp144
S'y'
F692
sS'x'
F951
s(dp145
g16
S'qcurve'
p146
sS'x'
I949
sg18
I00
sS'y'
I666
s(dp147
g16
S'line'
p148
sS'x'
I1056
sg18
I00
sS'y'
I666
s(dp149
g16
S'line'
p150
sS'x'
I1056
sg18
I00
sS'y'
I606
s(dp151
g16
S'line'
p152
sS'x'
I943
sg18
I00
sS'y'
I606
s(dp153
g16
S'line'
p154
sS'x'
I943
sg18
I00
sS'y'
I0
s(dp155
g16
S'line'
p156
sS'x'
I876
sg18
I00
sS'y'
I0
s(dp157
g16
S'line'
p158
sS'x'
I876
sg18
I00
sS'y'
I606
s(dp159
g16
S'line'
p160
sS'x'
I670
sg18
I00
sS'y'
I606
s(dp161
g16
S'line'
p162
sS'x'
I670
sg18
I00
sS'y'
I0
s(dp163
g16
S'line'
p164
sS'x'
I603
sg18
I00
sS'y'
I0
s(dp165
g16
S'line'
p166
sS'x'
I603
sg18
I00
sS'y'
I300
s(dp167
S'y'
I286
sS'x'
I587
sg18
I00
s(dp168
S'y'
I273
sS'x'
I554
sg18
I00
s(dp169
g16
S'qcurve'
p170
sS'x'
I537
sg18
I01
sS'y'
I273
s(dp171
S'y'
I273
sS'x'
I509
sg18
I00
s(dp172
S'y'
I284
sS'x'
I463
sg18
I00
s(dp173
g16
S'qcurve'
p174
sS'x'
I450
sg18
I00
sS'y'
I293
s(dp175
S'y'
I282
sS'x'
I463
sg18
I00
s(dp176
S'y'
I244
sS'x'
I477
sg18
I00
s(dp177
g16
S'qcurve'
p178
sS'x'
I477
sg18
I01
sS'y'
I220
s(dp179
S'y'
I148
sS'x'
I477
sg18
I00
s(dp180
S'y'
I47
sS'x'
I380
sg18
I00
stp181
stp182
sS'components'
p183
(tsS'anchors'
p184
(tssS'mask'
p185
(dp186
g6
S'awdeva'
p187
sg8
(dp188
sg10
(tsg11
I1162
sg12
(tsg183
(tsg184
(tsssS'com.typemytype.robofont.mark'
p189
(F0
F0
F1
F1
tp190
s."
LayerCount: 2
Fore
SplineSet
1081 645 m 1,0,-1
 1081 0 l 1025,1,-1
757 960 m 1,2,3
 757 925 757 925 779.5 913.5 c 128,-1,4
 802 902 802 902 873.998540239 888.755109164 c 0,5,6
 878 888 878 888 880.5 887.5 c 128,-1,7
 883 887 883 887 886.5 886.5 c 128,-1,8
 890 886 890 886 893.5 885.5 c 128,-1,9
 897 885 897 885 900 884 c 0,10,11
 947 875 947 875 974 865.5 c 128,-1,12
 1001 856 1001 856 1028.5 835.5 c 128,-1,13
 1056 815 1056 815 1068.5 778.5 c 128,-1,14
 1081 742 1081 742 1081 687 c 1,15,-1
 1172 687 l 1,16,-1
 1172 579 l 1,17,-1
 1081 579 l 1,18,-1
 1081 0 l 1,19,-1
 919 0 l 1,20,-1
 919 579 l 1,21,-1
 847 579 l 1,22,-1
 828 579 l 1,23,-1
 756 579 l 1,24,-1
 756 0 l 1,25,-1
 594 0 l 1,26,-1
 594 256 l 1,27,-1
 499.792621516 256 l 1,28,29
 499.999742215 251.051934178 499.999742215 251.051934178 500 246 c 0,30,31
 500 152 500 152 432 97.5 c 128,-1,32
 364 43 364 43 259 43 c 0,33,34
 59 43 59 43 -40 249 c 1,35,-1
 86 309 l 1,36,37
 122 235 122 235 160.5 193.5 c 128,-1,38
 199 152 199 152 249 152 c 0,39,40
 296 152 296 152 317 179 c 128,-1,41
 338 206 338 206 338 246 c 0,42,43
 338 343 338 343 236 346 c 1,44,-1
 162 346 l 1,45,-1
 162 454 l 1,46,-1
 236 454 l 1,47,-1
 246 454 l 2,48,49
 285 454 285 454 304.5 475.5 c 128,-1,50
 324 497 324 497 324 529 c 0,51,52
 324 593 324 593 244 593 c 0,53,54
 190 593 190 593 135 563 c 1,55,-1
 85 661 l 1,56,57
 166 701 166 701 265 702 c 1,58,59
 366 701 366 701 426 658 c 128,-1,60
 486 615 486 615 486 530 c 0,61,62
 486 455.495524311 486 455.495524311 420.876655125 403.00869418 c 1,63,64
 432.981567298 394.537432925 432.981567298 394.537432925 443.32236516 384.769896272 c 128,-1,65
 453.663163022 375.002359618 453.663163022 375.002359618 462.175411574 364 c 1,66,-1
 594 364 l 1,67,-1
 594 579 l 1,68,-1
 594 645 l 1,69,-1
 594 687 l 1,70,-1
 828 687 l 1,71,-1
 847 687 l 1,72,-1
 923.714761782 687 l 1,73,74
 906.251420678 698.392117582 906.251420678 698.392117582 884.113150138 703.13966612 c 128,-1,75
 861.974879597 707.887214657 861.974879597 707.887214657 844.837185248 707.704463126 c 128,-1,76
 827.699490899 707.521711595 827.699490899 707.521711595 793.993049288 705.760855798 c 128,-1,77
 760.286607677 704 760.286607677 704 739 704 c 0,78,79
 603 704 603 704 545.5 758 c 128,-1,80
 488 812 488 812 488 917 c 1,81,-1
 590 917 l 1,82,83
 599 848 599 848 635 817 c 128,-1,84
 671 786 671 786 773 774 c 0,85,86
 787.312905443 772.287344648 787.312905443 772.287344648 815.523708382 769.417691864 c 128,-1,87
 843.734511321 766.548039081 843.734511321 766.548039081 857.227917105 764.774262651 c 128,-1,88
 870.72132289 763.00048622 870.72132289 763.00048622 893.122310551 759.173567025 c 128,-1,89
 915.523298211 755.34664783 915.523298211 755.34664783 928.540907354 750.21149261 c 128,-1,90
 941.558516496 745.07633739 941.558516496 745.07633739 957.805102945 737.092425209 c 128,-1,91
 974.051689393 729.108513027 974.051689393 729.108513027 986.24891596 717.412252442 c 128,-1,92
 998.446142527 705.715991858 998.446142527 705.715991858 1008.88203078 690.274828978 c 1,93,94
 1007.31408359 737.076740008 1007.31408359 737.076740008 981.997053181 754.888033281 c 128,-1,95
 956.680022777 772.699326554 956.680022777 772.699326554 888 785 c 0,96,97
 875 787 875 787 845 792 c 128,-1,98
 815 797 815 797 801.5 799.5 c 128,-1,99
 788 802 788 802 763.5 808.5 c 128,-1,100
 739 815 739 815 727 822 c 128,-1,101
 715 829 715 829 698.5 841.5 c 128,-1,102
 682 854 682 854 674.5 870 c 128,-1,103
 667 886 667 886 661 908.5 c 128,-1,104
 655 931 655 931 655 960 c 1,105,-1
 757 960 l 1,2,3
EndSplineSet
EndChar

StartChar: awsigndeva
Encoding: 2383 2383 168
Width: 321
VWidth: 0
Flags: W
PickledData: "(dp1
S'com.typemytype.robofont.layerData'
p2
(dp3
S'formes'
p4
(dp5
S'name'
p6
S'awsigndeva'
p7
sS'lib'
p8
(dp9
sS'unicodes'
p10
(tsS'width'
p11
I321
sS'contours'
p12
((dp13
S'points'
p14
((dp15
S'segmentType'
p16
S'move'
p17
sS'x'
I-360
sS'smooth'
p18
I00
sS'y'
I862
s(dp19
S'y'
F787
sS'x'
F-360
sg18
I00
s(dp20
S'y'
F745.05688655971369
sS'x'
F-324.39614788769177
sg18
I00
s(dp21
g16
S'curve'
p22
sS'x'
I-203
sg18
I01
sS'y'
I730
s(dp23
S'y'
I712
sS'x'
I-60
sg18
I00
s(dp24
S'y'
I719
sS'x'
I13
sg18
I00
s(dp25
g16
S'curve'
p26
sS'x'
I80
sg18
I01
sS'y'
I654
s(dp27
g16
S'line'
p28
sS'x'
I115
sg18
I00
sS'y'
I620
stp29
stp30
sS'components'
p31
(tsS'anchors'
p32
(tssS'mask'
p33
(dp34
g6
S'awsigndeva'
p35
sg8
(dp36
sg10
(tsg11
I321
sg12
(tsg31
(tsg32
(tsssS'com.typemytype.robofont.mark'
p37
(F0
F0
F1
F1
tp38
s."
LayerCount: 2
Fore
SplineSet
243 645 m 1,0,-1
 243 0 l 1025,1,-1
-81 960 m 1,2,3
 -81 925 -81 925 -58.5 913.5 c 128,-1,4
 -36 902 -36 902 35.9985402389 888.755109164 c 0,5,6
 40 888 40 888 42.5 887.5 c 128,-1,7
 45 887 45 887 48.5 886.5 c 128,-1,8
 52 886 52 886 55.5 885.5 c 128,-1,9
 59 885 59 885 62 884 c 0,10,11
 84.519454806 879.790756111 84.519454806 879.790756111 100.369245744 876.031003257 c 128,-1,12
 116.219036683 872.271250402 116.219036683 872.271250402 134.665411053 866.35278507 c 128,-1,13
 153.111785424 860.434319738 153.111785424 860.434319738 165.736805109 853.082682243 c 128,-1,14
 178.361824794 845.731044747 178.361824794 845.731044747 191.610718631 835.289264809 c 128,-1,15
 204.859612469 824.84748487 204.859612469 824.84748487 213.323528701 811.026454022 c 128,-1,16
 221.787444933 797.205423174 221.787444933 797.205423174 228.902526037 779.362819917 c 128,-1,17
 236.017607142 761.520216661 236.017607142 761.520216661 239.384087721 738.352283748 c 128,-1,18
 242.7505683 715.184350835 242.7505683 715.184350835 242.983572369 687 c 1,19,-1
 334 687 l 1,20,-1
 334 579 l 1,21,-1
 243 579 l 1,22,-1
 243 0 l 1,23,-1
 81 0 l 1,24,-1
 81 579 l 1,25,-1
 -10 579 l 1,26,-1
 -10 687 l 1,27,-1
 85.7147617825 687 l 1,28,29
 68.2514206783 698.392117582 68.2514206783 698.392117582 46.1131501379 703.13966612 c 128,-1,30
 23.9748795975 707.887214657 23.9748795975 707.887214657 6.8371852483 707.704463126 c 128,-1,31
 -10.3005091009 707.521711595 -10.3005091009 707.521711595 -44.0069507118 705.760855798 c 128,-1,32
 -77.7133923226 704 -77.7133923226 704 -99 704 c 0,33,34
 -235 704 -235 704 -292.5 758 c 128,-1,35
 -350 812 -350 812 -350 917 c 1,36,-1
 -248 917 l 1,37,38
 -239 848 -239 848 -203 817 c 128,-1,39
 -167 786 -167 786 -65 774 c 0,40,41
 -50.8813778567 772.310592222 -50.8813778567 772.310592222 -27.4065728509 769.882078584 c 128,-1,42
 -3.93176784503 767.453564946 -3.93176784503 767.453564946 9.10882812753 766.024810282 c 128,-1,43
 22.1494241001 764.596055618 22.1494241001 764.596055618 41.8318481876 761.535076017 c 128,-1,44
 61.5142722752 758.474096416 61.5142722752 758.474096416 73.6172724116 755.136904557 c 128,-1,45
 85.720272548 751.799712698 85.720272548 751.799712698 101.379470063 745.962700303 c 128,-1,46
 117.038667578 740.125687908 117.038667578 740.125687908 127.973226225 732.736492024 c 128,-1,47
 138.907784871 725.34729614 138.907784871 725.34729614 150.31291016 714.590684119 c 128,-1,48
 161.718035448 703.834072099 161.718035448 703.834072099 170.882030962 690.274828835 c 1,49,50
 169.314088562 737.076679608 169.314088562 737.076679608 143.99714644 754.887873672 c 128,-1,51
 118.680204319 772.699067735 118.680204319 772.699067735 50 785 c 0,52,53
 37 787 37 787 7 792 c 128,-1,54
 -23 797 -23 797 -36.5 799.5 c 128,-1,55
 -50 802 -50 802 -74.5 808.5 c 128,-1,56
 -99 815 -99 815 -111 822 c 128,-1,57
 -123 829 -123 829 -139.5 841.5 c 128,-1,58
 -156 854 -156 854 -163.5 870 c 128,-1,59
 -171 886 -171 886 -177 908.5 c 128,-1,60
 -183 931 -183 931 -183 960 c 1,61,-1
 -81 960 l 1,2,3
EndSplineSet
EndChar

StartChar: b
Encoding: 98 98 169
Width: 569
VWidth: 0
Flags: W
PickledData: "(dp1
S'com.typemytype.robofont.layerData'
p2
(dp3
S'formes'
p4
(dp5
S'name'
p6
S'b'
sS'lib'
p7
(dp8
sS'unicodes'
p9
(tsS'width'
p10
I569
sS'contours'
p11
(tsS'components'
p12
(tsS'anchors'
p13
(tssS'mask'
p14
(dp15
g6
S'b'
sg7
(dp16
sg9
(tsg10
I569
sg11
(tsg12
(tsg13
(tsss."
LayerCount: 2
Fore
SplineSet
553 247 m 0,0,1
 553 123 553 123 482.5 54.5 c 128,-1,2
 412 -14 412 -14 310 -14 c 0,3,4
 236.917078955 -14 236.917078955 -14 182 24.4735689959 c 1,5,-1
 182 0 l 1,6,-1
 32 0 l 1,7,-1
 32 237 l 1,8,-1
 32 257 l 1,9,-1
 32 781 l 1,10,-1
 192 781 l 1,11,-1
 192 465.059851094 l 1,12,13
 207.335768228 475.380266202 207.335768228 475.380266202 222.416689498 482.232335636 c 128,-1,14
 237.497610768 489.08440507 237.497610768 489.08440507 261.403817864 494.042202535 c 128,-1,15
 285.31002496 499 285.31002496 499 314 499 c 0,16,17
 414 499 414 499 483.5 431 c 128,-1,18
 553 363 553 363 553 247 c 0,0,1
192 237 m 2,19,20
 192 116 192 116 293 116 c 0,21,22
 348 116 348 116 370 154.5 c 128,-1,23
 392 193 392 193 392 247 c 128,-1,24
 392 301 392 301 370 339.5 c 128,-1,25
 348 378 348 378 293 378 c 0,26,27
 192 378 192 378 192 257 c 2,28,-1
 192 237 l 2,19,20
EndSplineSet
EndChar

StartChar: ba_virama_ra_viramadeva
Encoding: 65548 -1 170
Width: 593
VWidth: 0
Flags: W
PickledData: "(dp1
S'com.typemytype.robofont.layerData'
p2
(dp3
S'formes'
p4
(dp5
S'name'
p6
S'ba_virama_ra_viramadeva'
p7
sS'lib'
p8
(dp9
sS'unicodes'
p10
(tsS'width'
p11
I593
sS'contours'
p12
((dp13
S'points'
p14
((dp15
S'segmentType'
p16
S'line'
p17
sS'x'
I-13
sS'smooth'
p18
I00
sS'y'
I606
s(dp19
g16
S'line'
p20
sS'x'
I-13
sg18
I00
sS'y'
I666
s(dp21
g16
S'line'
p22
sS'x'
I380
sg18
I00
sS'y'
I666
s(dp23
g16
S'line'
p24
sS'x'
I380
sg18
I00
sS'y'
I606
stp25
s(dp26
g14
((dp27
g16
S'curve'
p28
sS'x'
I226
sg18
I01
sS'y'
I211
s(dp29
S'y'
F211
sS'x'
F258.16000000000003
sg18
I00
s(dp30
S'y'
F219.24000000000001
sS'x'
F284.56
sg18
I00
s(dp31
g16
S'curve'
p32
sS'x'
I306
sg18
I00
sS'y'
I238
s(dp33
g16
S'line'
p34
sS'x'
I126
sg18
I00
sS'y'
I384
s(dp35
S'y'
F367.92000000000002
sS'x'
F113.94
sg18
I00
s(dp36
S'y'
F346.13999999999999
sS'x'
F106
sg18
I00
s(dp37
g16
S'curve'
p38
sS'x'
I106
sg18
I01
sS'y'
I318
s(dp39
S'y'
F259.04000000000002
sS'x'
F106
sg18
I00
s(dp40
S'y'
F211
sS'x'
F160.33999999999997
sg18
I00
stp41
s(dp42
g14
((dp43
g16
S'line'
p44
sS'x'
I373
sg18
I00
sS'y'
I198
s(dp45
g16
S'line'
p46
sS'x'
I73
sg18
I00
sS'y'
I-2
s(dp47
g16
S'line'
p48
sS'x'
I40
sg18
I00
sS'y'
I51
s(dp49
g16
S'line'
p50
sS'x'
I195
sg18
I00
sS'y'
I152
s(dp51
S'y'
F172.09999999999999
sS'x'
F103.88
sg18
I00
s(dp52
S'y'
F240.28
sS'x'
F40
sg18
I00
s(dp53
g16
S'curve'
p54
sS'x'
I40
sg18
I01
sS'y'
I318
s(dp55
S'y'
F423.86000000000001
sS'x'
F40
sg18
I00
s(dp56
S'y'
F511
sS'x'
F129.12
sg18
I00
s(dp57
g16
S'curve'
p58
sS'x'
I239
sg18
I01
sS'y'
I511
s(dp59
S'y'
F511
sS'x'
F273.84000000000003
sg18
I00
s(dp60
S'y'
F503.06
sS'x'
F303.22000000000003
sg18
I00
s(dp61
g16
S'curve'
p62
sS'x'
I326
sg18
I00
sS'y'
I491
s(dp63
g16
S'line'
p64
sS'x'
I306
sg18
I00
sS'y'
I437
s(dp65
S'y'
F446.38
sS'x'
F285.89999999999998
sg18
I00
s(dp66
S'y'
F451
sS'x'
F264.45999999999998
sg18
I00
s(dp67
g16
S'curve'
p68
sS'x'
I239
sg18
I01
sS'y'
I451
s(dp69
S'y'
F451
sS'x'
F200.13999999999999
sg18
I00
s(dp70
S'y'
F440.07999999999998
sS'x'
F172.40000000000001
sg18
I00
s(dp71
g16
S'curve'
p72
sS'x'
I159
sg18
I00
sS'y'
I424
s(dp73
g16
S'line'
p74
sS'x'
I353
sg18
I00
sS'y'
I278
s(dp75
g16
S'line'
p76
sS'x'
I373
sg18
I00
sS'y'
I304
stp77
stp78
sS'components'
p79
((dp80
S'transformation'
p81
(I1
I0
I0
I1
I0
I0
tp82
sS'baseGlyph'
p83
S'badeva_viramadeva_radeva'
p84
stp85
sS'anchors'
p86
(tssS'mask'
p87
(dp88
g6
S'ba_virama_ra_viramadeva'
p89
sg8
(dp90
sg10
(tsg11
I593
sg12
(tsg79
(tsg86
(tsssS'com.typemytype.robofont.mark'
p91
(F0
F0
F1
F1
tp92
s."
LayerCount: 2
Fore
SplineSet
604 579 m 1,0,-1
 -10 579 l 1,1,-1
 -10 687 l 1,2,-1
 604 687 l 1,3,-1
 604 579 l 1,0,-1
218.010226448 378.530571535 m 1,4,-1
 444.13598246 262.552031919 l 1,5,-1
 475 299 l 1,6,-1
 558 228 l 1,7,-1
 254 -131 l 1,8,-1
 171 -60 l 1,9,-1
 283.62409956 73.0001702043 l 1,10,11
 170.369401463 73.1027506453 170.369401463 73.1027506453 98.6847007315 131.044274116 c 128,-1,12
 27 188.985797588 27 188.985797588 27 293 c 128,-1,13
 27 397 27 397 98.5 455 c 128,-1,14
 170 513 170 513 283 513 c 0,15,16
 367 513 367 513 436.5 477.5 c 128,-1,17
 506 442 506 442 529 371 c 1,18,-1
 378 325 l 1,19,20
 367 359 367 359 342.5 381.5 c 128,-1,21
 318 404 318 404 283 404 c 0,22,23
 242.390469012 404 242.390469012 404 218.010226448 378.530571535 c 1,4,-1
189.093880952 287.097786852 m 1,24,25
 190.548129172 241.633657603 190.548129172 241.633657603 213.745912667 211.316828801 c 128,-1,26
 236.943696162 181 236.943696162 181 283 181 c 0,27,28
 301.225284754 181 301.225284754 181 316.922823394 187.689124528 c 128,-1,29
 332.620362035 194.378249055 332.620362035 194.378249055 345.273329849 206.443922198 c 1,30,-1
 189.093880952 287.097786852 l 1,24,25
EndSplineSet
Ligature2: "VattuVariantslookup30 subtable" badeva_viramadeva viramadeva_radeva
Ligature2: "VattuVariantslookup30 subtable" badeva viramadeva_radeva viramadeva
Ligature2: "HalfFormslookup10 subtable" badeva_viramadeva_radeva viramadeva
EndChar

StartChar: backslash
Encoding: 92 92 171
Width: 672
VWidth: 0
Flags: W
PickledData: "(dp1
S'com.typemytype.robofont.layerData'
p2
(dp3
S'formes'
p4
(dp5
S'name'
p6
S'backslash'
p7
sS'lib'
p8
(dp9
sS'unicodes'
p10
(tsS'width'
p11
I672
sS'contours'
p12
((dp13
S'points'
p14
((dp15
S'segmentType'
p16
S'line'
p17
sS'x'
I506
sS'smooth'
p18
I00
sS'y'
I-129
s(dp19
g16
S'line'
p20
sS'x'
I438
sg18
I00
sS'y'
I-129
s(dp21
g16
S'line'
p22
sS'x'
I100
sg18
I00
sS'y'
I812
s(dp23
g16
S'line'
p24
sS'x'
I168
sg18
I00
sS'y'
I812
stp25
stp26
sS'components'
p27
(tsS'anchors'
p28
(tssS'mask'
p29
(dp30
g6
S'backslash'
p31
sg8
(dp32
sg10
(tsg11
I672
sg12
(tsg27
(tsg28
(tsss."
LayerCount: 2
Fore
SplineSet
672 -161 m 1,0,-1
 165 905 l 1,1,-1
 60 856 l 1,2,-1
 567 -210 l 1,3,-1
 672 -161 l 1,0,-1
EndSplineSet
EndChar

StartChar: badeva
Encoding: 2348 2348 172
Width: 621
VWidth: 0
Flags: W
PickledData: "(dp1
S'com.typemytype.robofont.layerData'
p2
(dp3
S'formes'
p4
(dp5
S'name'
p6
S'badeva'
p7
sS'lib'
p8
(dp9
sS'unicodes'
p10
(tsS'width'
p11
I621
sS'contours'
p12
(tsS'components'
p13
((dp14
S'transformation'
p15
(I1
I0
I0
I1
I321
I0
tp16
sS'baseGlyph'
p17
S'aasigndeva'
p18
s(dp19
g15
(I1
I0
I0
I1
I0
I0
tp20
sg17
S'badeva_viramadeva'
p21
stp22
sS'anchors'
p23
(tssS'mask'
p24
(dp25
g6
S'badeva'
p26
sg8
(dp27
sg10
(tsg11
I621
sg12
(tsg13
(tsg23
(tsssS'com.typemytype.robofont.mark'
p28
(F0
F1
F0
F1
tp29
s."
AnchorPoint: "DVAnchor3" 471 669 basechar 0
LayerCount: 2
Fore
SplineSet
200.724003448 410.848114254 m 1,0,-1
 378 306.75 l 1,1,-1
 378 327 l 2,2,3
 378 372 378 372 344.5 400 c 128,-1,4
 311 428 311 428 262 428 c 0,5,6
 254.495223843 428 254.495223843 428 247.429802907 427.242693822 c 128,-1,7
 240.364381972 426.485387645 240.364381972 426.485387645 234.032209369 425.056241215 c 128,-1,8
 227.700036767 423.627094786 227.700036767 423.627094786 221.806295598 421.517238547 c 128,-1,9
 215.912554428 419.407382309 215.912554428 419.407382309 210.70386822 416.755664104 c 128,-1,10
 205.495182012 414.1039459 205.495182012 414.1039459 200.724003448 410.848114254 c 1,0,-1
157.320804914 325.974411068 m 1,11,12
 157 321.026631592 157 321.026631592 157 316 c 0,13,14
 157 269 157 269 184.5 236.5 c 128,-1,15
 212 204 212 204 268 204 c 0,16,17
 304.532829365 204 304.532829365 204 333.077384306 222.768512704 c 1,18,-1
 157.320804914 325.974411068 l 1,11,12
378 130.159749131 m 1,19,20
 326.203584043 96 326.203584043 96 248 96 c 0,21,22
 152 96 152 96 87.5 154.5 c 128,-1,23
 23 213 23 213 23 316 c 128,-1,24
 23 419 23 419 87.5 477.5 c 128,-1,25
 152 536 152 536 247 536 c 0,26,27
 326.825456247 536 326.825456247 536 378 496.013548489 c 1,28,-1
 378 579 l 1,29,-1
 311 579 l 1,30,-1
 -10 579 l 1,31,-1
 -10 687 l 1,32,-1
 311 687 l 1,33,-1
 540 687 l 1,34,-1
 631 687 l 1,35,-1
 631 579 l 1,36,-1
 540 579 l 1,37,-1
 540 0 l 1,38,-1
 378 0 l 1,39,-1
 378 130.159749131 l 1,19,20
EndSplineSet
EndChar

StartChar: badeva_viramadeva
Encoding: 65549 -1 173
Width: 540
VWidth: 0
Flags: W
PickledData: "(dp1
S'com.typemytype.robofont.layerData'
p2
(dp3
S'formes'
p4
(dp5
S'name'
p6
S'badeva_viramadeva'
p7
sS'lib'
p8
(dp9
sS'unicodes'
p10
(tsS'width'
p11
I540
sS'contours'
p12
((dp13
S'points'
p14
((dp15
S'segmentType'
p16
S'move'
p17
sS'x'
I495
sS'smooth'
p18
I00
sS'y'
I196
s(dp19
g16
S'line'
p20
sS'x'
I162
sg18
I00
sS'y'
I390
stp21
stp22
sS'components'
p23
((dp24
S'transformation'
p25
(I1
I0
I0
I1
I0
I0
tp26
sS'baseGlyph'
p27
S'vadeva_viramadeva'
p28
stp29
sS'anchors'
p30
(tssS'mask'
p31
(dp32
g6
S'badeva_viramadeva'
p33
sg8
(dp34
sg10
(tsg11
I540
sg12
(tsg23
(tsg30
(tsssS'com.typemytype.robofont.mark'
p35
(F0
F1
F0
F1
tp36
s."
LayerCount: 2
Fore
SplineSet
218.010226448 378.530571535 m 1,0,-1
 531 218 l 1,1,-1
 528.762283991 214.270473318 l 1,2,3
 512.924002468 166.008748497 512.924002468 166.008748497 472.537418719 133.067007667 c 128,-1,4
 432.150834971 100.125266837 432.150834971 100.125266837 384.53434666 86.5626334184 c 128,-1,5
 336.917858349 73 336.917858349 73 284 73 c 0,6,7
 171 73 171 73 99 131 c 128,-1,8
 27 189 27 189 27 293 c 128,-1,9
 27 397 27 397 98.5 455 c 128,-1,10
 170 513 170 513 283 513 c 0,11,12
 367 513 367 513 436.5 477.5 c 128,-1,13
 506 442 506 442 529 371 c 1,14,-1
 378 325 l 1,15,16
 367 359 367 359 342.5 381.5 c 128,-1,17
 318 404 318 404 283 404 c 0,18,19
 242.390469013 404 242.390469013 404 218.010226448 378.530571535 c 1,0,-1
345.273329849 206.443922198 m 1,20,-1
 189.093880952 287.097786852 l 1,21,22
 189.636093073 270.146621577 189.636093073 270.146621577 193.168490985 254.968301242 c 128,-1,23
 196.700888897 239.789980907 196.700888897 239.789980907 204.06242137 226.10146726 c 128,-1,24
 211.423953844 212.412953613 211.423953844 212.412953613 222.026906312 202.515248065 c 128,-1,25
 232.62985878 192.617542517 232.62985878 192.617542517 248.255687788 186.808771258 c 128,-1,26
 263.881516796 181 263.881516796 181 283 181 c 0,27,28
 318.59092889 181 318.59092889 181 345.273329849 206.443922198 c 1,20,-1
550 579 m 1,29,-1
 -10 579 l 1,30,-1
 -10 687 l 1,31,-1
 550 687 l 1,32,-1
 550 579 l 1,29,-1
EndSplineSet
Ligature2: "HalfFormslookup10 subtable" badeva viramadeva
EndChar

StartChar: bar
Encoding: 124 124 175
Width: 288
VWidth: 0
Flags: W
PickledData: "(dp1
S'com.typemytype.robofont.layerData'
p2
(dp3
S'formes'
p4
(dp5
S'name'
p6
S'bar'
p7
sS'lib'
p8
(dp9
sS'unicodes'
p10
(tsS'width'
p11
I288
sS'contours'
p12
(tsS'components'
p13
(tsS'anchors'
p14
(tssS'mask'
p15
(dp16
g6
S'bar'
p17
sg8
(dp18
sg10
(tsg11
I288
sg12
(tsg13
(tsg14
(tsss."
LayerCount: 2
Fore
SplineSet
78 -179 m 1,0,-1
 210 -179 l 1,1,-1
 210 780 l 1,2,-1
 78 780 l 1,3,-1
 78 -179 l 1,0,-1
EndSplineSet
EndChar

StartChar: barre
Encoding: 65551 -1 176
Width: 282
VWidth: 0
Flags: W
PickledData: "(dp1
S'com.typemytype.robofont.layerData'
p2
(dp3
S'formes'
p4
(dp5
S'name'
p6
S'barre'
p7
sS'lib'
p8
(dp9
sS'unicodes'
p10
(tsS'width'
p11
I282
sS'contours'
p12
(tsS'components'
p13
(tsS'anchors'
p14
(tssS'mask'
p15
(dp16
g6
S'barre'
p17
sg8
(dp18
sg10
(tsg11
I282
sg12
(tsg13
(tsg14
(tsss."
LayerCount: 2
Fore
SplineSet
60 0 m 1,0,-1
 60 645 l 1,1,-1
 222 645 l 1,2,-1
 222 0 l 1,3,-1
 60 0 l 1,0,-1
EndSplineSet
EndChar

StartChar: bbadeva
Encoding: 2431 2431 177
Width: 621
VWidth: 0
Flags: W
PickledData: "(dp1
S'com.typemytype.robofont.layerData'
p2
(dp3
S'formes'
p4
(dp5
S'name'
p6
S'bbadeva'
p7
sS'lib'
p8
(dp9
sS'unicodes'
p10
(tsS'width'
p11
I621
sS'contours'
p12
((dp13
S'points'
p14
((dp15
S'segmentType'
p16
S'move'
p17
sS'x'
I571
sS'smooth'
p18
I00
sS'y'
I-86
s(dp19
g16
S'line'
p20
sS'x'
I102
sg18
I00
sS'y'
I-86
stp21
stp22
sS'components'
p23
((dp24
S'transformation'
p25
(I1
I0
I0
I1
I0
I0
tp26
sS'baseGlyph'
p27
S'badeva'
p28
stp29
sS'anchors'
p30
(tssS'mask'
p31
(dp32
g6
S'bbadeva'
p33
sg8
(dp34
sg10
(tsg11
I621
sg12
(tsg23
(tsg30
(tsssS'com.typemytype.robofont.mark'
p35
(F0
F0
F1
F1
tp36
s."
AnchorPoint: "DVAnchor3" 451 689 basechar 0
LayerCount: 2
Fore
SplineSet
157.320804914 325.974411068 m 1,0,1
 157 321.026631582 157 321.026631582 157 316 c 0,2,3
 157 269 157 269 184.5 236.5 c 128,-1,4
 212 204 212 204 268 204 c 0,5,6
 304.532835906 204 304.532835906 204 333.077363273 222.768525055 c 1,7,-1
 157.320804914 325.974411068 l 1,0,1
200.724003448 410.848114254 m 1,8,-1
 378 306.75 l 1,9,-1
 378 327 l 2,10,11
 378 372 378 372 344.5 400 c 128,-1,12
 311 428 311 428 262 428 c 0,13,14
 252.643594079 428 252.643594079 428 244.004164596 426.83859302 c 128,-1,15
 235.364735112 425.67718604 235.364735112 425.67718604 227.740548755 423.437970279 c 128,-1,16
 220.116362399 421.198754518 220.116362399 421.198754518 213.41105485 418.064392471 c 128,-1,17
 206.705747301 414.930030424 206.705747301 414.930030424 200.724003448 410.848114254 c 1,8,-1
77 -94 m 1,18,-1
 540 -94 l 1,19,-1
 540 0 l 1,20,-1
 378 0 l 1,21,-1
 378 130.159583616 l 1,22,23
 326.203593584 96 326.203593584 96 248 96 c 0,24,25
 152 96 152 96 87.5 154.5 c 128,-1,26
 23 213 23 213 23 316 c 128,-1,27
 23 419 23 419 87.5 477.5 c 128,-1,28
 152 536 152 536 247 536 c 0,29,30
 326.825731638 536 326.825731638 536 378 496.013765529 c 1,31,-1
 378 579 l 1,32,-1
 311 579 l 1,33,-1
 -10 579 l 1,34,-1
 -10 687 l 1,35,-1
 311 687 l 1,36,-1
 540 687 l 1,37,-1
 631 687 l 1,38,-1
 631 579 l 1,39,-1
 540 579 l 1,40,-1
 540 0 l 1,41,-1
 378 0 l 1,42,-1
 77 0 l 1,43,-1
 77 -94 l 1,18,-1
EndSplineSet
EndChar

StartChar: bhadeva
Encoding: 2349 2349 178
Width: 780
VWidth: 0
Flags: W
PickledData: "(dp1
S'com.typemytype.robofont.layerData'
p2
(dp3
S'formes'
p4
(dp5
S'name'
p6
S'bhadeva'
p7
sS'lib'
p8
(dp9
sS'unicodes'
p10
(tsS'width'
p11
I780
sS'contours'
p12
(tsS'components'
p13
((dp14
S'transformation'
p15
(I1
I0
I0
I1
I446
I0
tp16
sS'baseGlyph'
p17
S'aasigndeva'
p18
s(dp19
g15
(I1
I0
I0
I1
I24
I0
tp20
sg17
S'bhadeva_viramadeva'
p21
stp22
sS'anchors'
p23
(tssS'mask'
p24
(dp25
g6
S'bhadeva'
p26
sg8
(dp27
sg10
(tsg11
I780
sg12
(tsg13
(tsg23
(tsssS'com.typemytype.robofont.mark'
p28
(F0
F0
F1
F1
tp29
s."
AnchorPoint: "DVAnchor3" 594 669 basechar 0
LayerCount: 2
Fore
SplineSet
55 687 m 1,0,-1
 167 687 l 2,1,2
 192 687 192 687 203.5 686.5 c 128,-1,3
 215 686 215 686 240 682.5 c 128,-1,4
 265 679 265 679 278.5 672.5 c 128,-1,5
 292 666 292 666 311 652 c 128,-1,6
 330 638 330 638 340 618 c 128,-1,7
 350 598 350 598 357.5 566.5 c 128,-1,8
 365 535 365 535 365 494 c 2,9,-1
 365 324 l 1,10,-1
 537 324 l 1,11,-1
 537 579 l 1,12,-1
 446 579 l 1,13,-1
 446 687 l 1,14,-1
 790 687 l 1,15,-1
 790 579 l 1,16,-1
 699 579 l 1,17,-1
 699 0 l 1,18,-1
 537 0 l 1,19,-1
 537 216 l 1,20,-1
 231.076923077 216 l 1,21,-1
 270 147 l 1,22,-1
 152 81 l 1,23,-1
 64 237 l 1,24,-1
 123 324 l 1,25,-1
 203 324 l 1,26,-1
 203 494 l 2,27,28
 203 579 203 579 167 579 c 2,29,-1
 55 579 l 1,30,-1
 55 687 l 1,0,-1
EndSplineSet
EndChar

StartChar: bhadeva_viramadeva
Encoding: 65552 -1 179
Width: 676
VWidth: 0
Flags: W
PickledData: "(dp1
S'com.typemytype.robofont.layerData'
p2
(dp3
S'formes'
p4
(dp5
S'name'
p6
S'bhadeva_viramadeva'
p7
sS'lib'
p8
(dp9
sS'unicodes'
p10
(tsS'width'
p11
I676
sS'contours'
p12
((dp13
S'points'
p14
((dp15
S'segmentType'
p16
S'move'
p17
sS'x'
I202
sS'smooth'
p18
I00
sS'y'
I114
s(dp19
g16
S'line'
p20
sS'x'
I114
sg18
I00
sS'y'
I270
s(dp21
g16
S'line'
p22
sS'x'
I679
sg18
I00
sS'y'
I270
stp23
s(dp24
g14
((dp25
g16
S'move'
p26
sS'x'
I76
sg18
I00
sS'y'
I633
s(dp27
g16
S'line'
p28
sS'x'
I158
sg18
I01
sS'y'
I633
s(dp29
S'y'
I633
sS'x'
I214
sg18
I00
s(dp30
S'y'
I610
sS'x'
I275
sg18
I00
s(dp31
g16
S'curve'
p32
sS'x'
I275
sg18
I01
sS'y'
I494
s(dp33
g16
S'line'
p34
sS'x'
I275
sg18
I00
sS'y'
I294
stp35
stp36
sS'components'
p37
(tsS'anchors'
p38
(tssS'mask'
p39
(dp40
g6
S'bhadeva_viramadeva'
p41
sg8
(dp42
sg10
(tsg11
I676
sg12
(tsg37
(tsg38
(tsssS'com.typemytype.robofont.mark'
p43
(F0
F0
F1
F1
tp44
s."
LayerCount: 2
Fore
SplineSet
54 687 m 1,0,-1
 166 687 l 2,1,2
 191 687 191 687 202.5 686.5 c 128,-1,3
 214 686 214 686 239 682.5 c 128,-1,4
 264 679 264 679 277.5 672.5 c 128,-1,5
 291 666 291 666 310 652 c 128,-1,6
 329 638 329 638 339 618 c 128,-1,7
 349 598 349 598 356.5 566.5 c 128,-1,8
 364 535 364 535 364 494 c 2,9,-1
 364 324 l 1,10,-1
 687 324 l 1,11,-1
 687 216 l 1,12,-1
 230.076923077 216 l 1,13,-1
 269 147 l 1,14,-1
 151 81 l 1,15,-1
 63 237 l 1,16,-1
 122 324 l 1,17,-1
 202 324 l 1,18,-1
 202 494 l 2,19,20
 202 579 202 579 166 579 c 2,21,-1
 54 579 l 1,22,-1
 54 687 l 1,0,-1
EndSplineSet
Ligature2: "HalfFormslookup10 subtable" bhadeva viramadeva
EndChar

StartChar: braceleft
Encoding: 123 123 181
Width: 376
VWidth: 0
Flags: W
PickledData: "(dp1
S'com.typemytype.robofont.layerData'
p2
(dp3
S'formes'
p4
(dp5
S'name'
p6
S'braceleft'
p7
sS'lib'
p8
(dp9
sS'unicodes'
p10
(tsS'width'
p11
I376
sS'contours'
p12
((dp13
S'points'
p14
((dp15
S'segmentType'
p16
S'line'
p17
sS'x'
I295
sS'smooth'
p18
I01
sS'y'
I947
s(dp19
S'y'
I947
sS'x'
I178
sg18
I00
s(dp20
S'y'
I905
sS'x'
I137
sg18
I00
s(dp21
g16
S'curve'
p22
sS'x'
I137
sg18
I01
sS'y'
I760
s(dp23
g16
S'line'
p24
sS'x'
I137
sg18
I01
sS'y'
I601
s(dp25
S'y'
I511
sS'x'
I137
sg18
I00
s(dp26
S'y'
I466
sS'x'
I140
sg18
I00
s(dp27
g16
S'curve'
p28
sS'x'
I121
sg18
I01
sS'y'
I437
s(dp29
S'y'
I412
sS'x'
I104
sg18
I00
s(dp30
S'y'
I406
sS'x'
I76
sg18
I00
s(dp31
g16
S'curve'
p32
sS'x'
I31
sg18
I00
sS'y'
I399
s(dp33
g16
S'line'
p34
sS'x'
I31
sg18
I00
sS'y'
I322
s(dp35
S'y'
I316
sS'x'
I78
sg18
I00
s(dp36
S'y'
I308
sS'x'
I105
sg18
I00
s(dp37
g16
S'curve'
p38
sS'x'
I121
sg18
I01
sS'y'
I284
s(dp39
S'y'
I255
sS'x'
I138
sg18
I00
s(dp40
S'y'
I210
sS'x'
I137
sg18
I00
s(dp41
g16
S'curve'
p42
sS'x'
I137
sg18
I01
sS'y'
I121
s(dp43
g16
S'line'
p44
sS'x'
I137
sg18
I01
sS'y'
I-40
s(dp45
S'y'
I-183
sS'x'
I137
sg18
I00
s(dp46
S'y'
I-226
sS'x'
I178
sg18
I00
s(dp47
g16
S'curve'
p48
sS'x'
I296
sg18
I01
sS'y'
I-226
s(dp49
g16
S'line'
p50
sS'x'
I350
sg18
I00
sS'y'
I-226
s(dp51
g16
S'line'
p52
sS'x'
I350
sg18
I00
sS'y'
I-126
s(dp53
S'y'
I-126
sS'x'
I278
sg18
I00
s(dp54
S'y'
I-104
sS'x'
I274
sg18
I00
s(dp55
g16
S'curve'
p56
sS'x'
I274
sg18
I01
sS'y'
I-19
s(dp57
g16
S'line'
p58
sS'x'
I274
sg18
I01
sS'y'
I208
s(dp59
S'y'
I292
sS'x'
I274
sg18
I00
s(dp60
S'y'
I339
sS'x'
I235
sg18
I00
s(dp61
g16
S'curve'
p62
sS'x'
I175
sg18
I00
sS'y'
I362
s(dp63
S'y'
I385
sS'x'
I234
sg18
I00
s(dp64
S'y'
I412
sS'x'
I274
sg18
I00
s(dp65
g16
S'curve'
p66
sS'x'
I274
sg18
I01
sS'y'
I520
s(dp67
g16
S'line'
p68
sS'x'
I274
sg18
I01
sS'y'
I747
s(dp69
S'y'
I825
sS'x'
I274
sg18
I00
s(dp70
S'y'
I847
sS'x'
I278
sg18
I00
s(dp71
g16
S'curve'
p72
sS'x'
I350
sg18
I00
sS'y'
I847
s(dp73
g16
S'line'
p74
sS'x'
I350
sg18
I00
sS'y'
I947
stp75
s(dp76
g14
((dp77
g16
S'curve'
p78
sS'x'
I569
sg18
I01
sS'y'
I-226
s(dp79
S'y'
I-226
sS'x'
I617
sg18
I00
s(dp80
S'y'
I-223
sS'x'
I646
sg18
I00
s(dp81
g16
S'curve'
p82
sS'x'
I650
sg18
I00
sS'y'
I-223
s(dp83
g16
S'line'
p84
sS'x'
I650
sg18
I00
sS'y'
I-125
s(dp85
S'y'
I-127
sS'x'
I633
sg18
I00
s(dp86
S'y'
I-127
sS'x'
I619
sg18
I00
s(dp87
g16
S'curve'
p88
sS'x'
I610
sg18
I00
sS'y'
I-127
s(dp89
S'y'
I-124
sS'x'
I578
sg18
I00
s(dp90
S'y'
I-100
sS'x'
I574
sg18
I00
s(dp91
g16
S'curve'
p92
sS'x'
I574
sg18
I01
sS'y'
I-26
s(dp93
g16
S'line'
p94
sS'x'
I574
sg18
I01
sS'y'
I201
s(dp95
S'y'
I308
sS'x'
I574
sg18
I00
s(dp96
S'y'
I335
sS'x'
I534
sg18
I00
s(dp97
g16
S'curve'
p98
sS'x'
I475
sg18
I00
sS'y'
I358
s(dp99
S'y'
I381
sS'x'
I535
sg18
I00
s(dp100
S'y'
I428
sS'x'
I574
sg18
I00
s(dp101
g16
S'curve'
p102
sS'x'
I574
sg18
I01
sS'y'
I513
s(dp103
g16
S'line'
p104
sS'x'
I574
sg18
I01
sS'y'
I740
s(dp105
S'y'
I825
sS'x'
I574
sg18
I00
s(dp106
S'y'
I847
sS'x'
I578
sg18
I00
s(dp107
g16
S'curve'
p108
sS'x'
I650
sg18
I00
sS'y'
I847
s(dp109
g16
S'line'
p110
sS'x'
I650
sg18
I00
sS'y'
I947
s(dp111
g16
S'line'
p112
sS'x'
I596
sg18
I01
sS'y'
I947
s(dp113
S'y'
I947
sS'x'
I478
sg18
I00
s(dp114
S'y'
I904
sS'x'
I437
sg18
I00
s(dp115
g16
S'curve'
p116
sS'x'
I437
sg18
I01
sS'y'
I761
s(dp117
g16
S'line'
p118
sS'x'
I437
sg18
I01
sS'y'
I600
s(dp119
S'y'
I511
sS'x'
I437
sg18
I00
s(dp120
S'y'
I466
sS'x'
I438
sg18
I00
s(dp121
g16
S'curve'
p122
sS'x'
I421
sg18
I01
sS'y'
I437
s(dp123
S'y'
I412
sS'x'
I404
sg18
I00
s(dp124
S'y'
I407
sS'x'
I387
sg18
I00
s(dp125
g16
S'curve'
p126
sS'x'
I331
sg18
I00
sS'y'
I396
s(dp127
g16
S'line'
p128
sS'x'
I331
sg18
I00
sS'y'
I322
s(dp129
S'y'
I315
sS'x'
I379
sg18
I00
s(dp130
S'y'
I316
sS'x'
I416
sg18
I00
s(dp131
g16
S'curve'
p132
sS'x'
I426
sg18
I01
sS'y'
I268
s(dp133
S'y'
I228
sS'x'
I434
sg18
I00
s(dp134
S'y'
I182
sS'x'
I437
sg18
I00
s(dp135
g16
S'curve'
p136
sS'x'
I437
sg18
I01
sS'y'
I124
s(dp137
g16
S'line'
p138
sS'x'
I437
sg18
I01
sS'y'
I-64
s(dp139
S'y'
I-99
sS'x'
I437
sg18
I00
s(dp140
S'y'
I-124
sS'x'
I440
sg18
I00
s(dp141
g16
S'curve'
p142
sS'x'
I447
sg18
I01
sS'y'
I-148
s(dp143
S'y'
I-206
sS'x'
I465
sg18
I00
s(dp144
S'y'
I-226
sS'x'
I510
sg18
I00
stp145
s(dp146
g14
((dp147
g16
S'curve'
p148
sS'x'
I569
sg18
I01
sS'y'
I-226
s(dp149
S'y'
I-226
sS'x'
I617
sg18
I00
s(dp150
S'y'
I-223
sS'x'
I646
sg18
I00
s(dp151
g16
S'curve'
p152
sS'x'
I650
sg18
I00
sS'y'
I-223
s(dp153
g16
S'line'
p154
sS'x'
I650
sg18
I00
sS'y'
I-125
s(dp155
S'y'
I-127
sS'x'
I633
sg18
I00
s(dp156
S'y'
I-127
sS'x'
I619
sg18
I00
s(dp157
g16
S'curve'
p158
sS'x'
I610
sg18
I00
sS'y'
I-127
s(dp159
S'y'
I-124
sS'x'
I578
sg18
I00
s(dp160
S'y'
I-100
sS'x'
I574
sg18
I00
s(dp161
g16
S'curve'
p162
sS'x'
I574
sg18
I01
sS'y'
I-26
s(dp163
g16
S'line'
p164
sS'x'
I574
sg18
I01
sS'y'
I240
s(dp165
S'y'
I308
sS'x'
I574
sg18
I00
s(dp166
S'y'
I339
sS'x'
I542
sg18
I00
s(dp167
g16
S'curve'
p168
sS'x'
I494
sg18
I00
sS'y'
I358
s(dp169
S'y'
I377
sS'x'
I543
sg18
I00
s(dp170
S'y'
I413
sS'x'
I574
sg18
I00
s(dp171
g16
S'curve'
p172
sS'x'
I574
sg18
I01
sS'y'
I479
s(dp173
g16
S'line'
p174
sS'x'
I574
sg18
I01
sS'y'
I740
s(dp175
S'y'
I825
sS'x'
I574
sg18
I00
s(dp176
S'y'
I847
sS'x'
I578
sg18
I00
s(dp177
g16
S'curve'
p178
sS'x'
I650
sg18
I00
sS'y'
I847
s(dp179
g16
S'line'
p180
sS'x'
I650
sg18
I00
sS'y'
I947
s(dp181
g16
S'line'
p182
sS'x'
I596
sg18
I01
sS'y'
I947
s(dp183
S'y'
I947
sS'x'
I478
sg18
I00
s(dp184
S'y'
I904
sS'x'
I437
sg18
I00
s(dp185
g16
S'curve'
p186
sS'x'
I437
sg18
I01
sS'y'
I761
s(dp187
g16
S'line'
p188
sS'x'
I437
sg18
I01
sS'y'
I597
s(dp189
S'y'
I531
sS'x'
I437
sg18
I00
s(dp190
S'y'
I481
sS'x'
I437
sg18
I00
s(dp191
g16
S'curve'
p192
sS'x'
I431
sg18
I00
sS'y'
I443
s(dp193
S'y'
I405
sS'x'
I420
sg18
I00
s(dp194
S'y'
I403
sS'x'
I396
sg18
I00
s(dp195
g16
S'curve'
p196
sS'x'
I341
sg18
I00
sS'y'
I392
s(dp197
g16
S'line'
p198
sS'x'
I341
sg18
I00
sS'y'
I326
s(dp199
S'y'
I319
sS'x'
I387
sg18
I00
s(dp200
S'y'
I319
sS'x'
I419
sg18
I00
s(dp201
g16
S'curve'
p202
sS'x'
I431
sg18
I00
sS'y'
I272
s(dp203
S'y'
I232
sS'x'
I437
sg18
I00
s(dp204
S'y'
I184
sS'x'
I437
sg18
I00
s(dp205
g16
S'curve'
p206
sS'x'
I437
sg18
I01
sS'y'
I124
s(dp207
g16
S'line'
p208
sS'x'
I437
sg18
I01
sS'y'
I-64
s(dp209
S'y'
I-99
sS'x'
I437
sg18
I00
s(dp210
S'y'
I-124
sS'x'
I440
sg18
I00
s(dp211
g16
S'curve'
p212
sS'x'
I447
sg18
I01
sS'y'
I-148
s(dp213
S'y'
I-206
sS'x'
I465
sg18
I00
s(dp214
S'y'
I-226
sS'x'
I510
sg18
I00
stp215
stp216
sS'components'
p217
(tsS'anchors'
p218
(tssS'mask'
p219
(dp220
g6
S'braceleft'
p221
sg8
(dp222
sg10
(tsg11
I376
sg12
(tsg217
(tsg218
(tsssS'com.typemytype.robofont.mark'
p223
(F0
F1
F0
F1
tp224
s."
LayerCount: 2
Fore
SplineSet
305 -226 m 2,0,-1
 350 -226 l 1,1,-1
 350 -126 l 1,2,3
 299 -126 299 -126 286.5 -107 c 128,-1,4
 274 -88 274 -88 274 -26 c 2,5,-1
 274 201 l 2,6,7
 274 276 274 276 250 308 c 128,-1,8
 226 340 226 340 175 360 c 1,9,10
 274 398 274 398 274 513 c 2,11,-1
 274 740 l 2,12,13
 274 808 274 808 286 827.5 c 128,-1,14
 298 847 298 847 350 847 c 1,15,-1
 350 947 l 1,16,-1
 306 947 l 2,17,18
 211 947 211 947 174 907 c 128,-1,19
 137 867 137 867 137 761 c 2,20,-1
 137 600 l 2,21,22
 137 483.019396639 137 483.019396639 129.165265824 456.330163965 c 0,23,24
 125.989304615 445.511166696 125.989304615 445.511166696 121 437 c 0,25,26
 101 408 101 408 31 399 c 1,27,-1
 31 322 l 1,28,29
 69 316 69 316 89 308.5 c 128,-1,30
 109 301 109 301 121 284 c 0,31,32
 125 279 125 279 127.5 272 c 128,-1,33
 130 265 130 265 131.5 259 c 128,-1,34
 133 253 133 253 134.5 242.5 c 128,-1,35
 136 232 136 232 136.5 225 c 128,-1,36
 137 218 137 218 137 203.5 c 128,-1,37
 137 189 137 189 137 180 c 128,-1,38
 137 171 137 171 137 151 c 128,-1,39
 137 131 137 131 137 120 c 2,40,-1
 137 -39 l 2,41,42
 137 -146 137 -146 173.5 -186 c 128,-1,43
 210 -226 210 -226 305 -226 c 2,0,-1
EndSplineSet
EndChar

StartChar: bracketleft
Encoding: 91 91 183
Width: 323
VWidth: 0
Flags: W
PickledData: "(dp1
S'com.typemytype.robofont.layerData'
p2
(dp3
S'formes'
p4
(dp5
S'name'
p6
S'bracketleft'
p7
sS'lib'
p8
(dp9
sS'unicodes'
p10
(tsS'width'
p11
I323
sS'contours'
p12
(tsS'components'
p13
(tsS'anchors'
p14
(tssS'mask'
p15
(dp16
g6
S'bracketleft'
p17
sg8
(dp18
sg10
(tsg11
I323
sg12
(tsg13
(tsg14
(tsss."
LayerCount: 2
Fore
SplineSet
64 -168 m 1,0,-1
 307 -168 l 1,1,-1
 307 -75 l 1,2,-1
 179 -75 l 1,3,-1
 179 687 l 1,4,-1
 307 687 l 1,5,-1
 307 780 l 1,6,-1
 64 780 l 1,7,-1
 64 -168 l 1,0,-1
EndSplineSet
EndChar

StartChar: breve
Encoding: 728 728 185
Width: 471
VWidth: 0
Flags: W
PickledData: "(dp1
S'com.typemytype.robofont.layerData'
p2
(dp3
S'formes'
p4
(dp5
S'name'
p6
S'breve'
p7
sS'lib'
p8
(dp9
sS'unicodes'
p10
(tsS'width'
p11
I471
sS'contours'
p12
(tsS'components'
p13
(tsS'anchors'
p14
(tssS'mask'
p15
(dp16
g6
S'breve'
p17
sg8
(dp18
sg10
(tsg11
I471
sg12
(tsg13
(tsg14
(tsss."
LayerCount: 2
Fore
SplineSet
236 584 m 0,0,1
 395 584 395 584 407 737 c 1,2,-1
 314 737 l 1,3,4
 312 705 312 705 291.5 686 c 128,-1,5
 271 667 271 667 236 667 c 0,6,7
 200 667 200 667 179.5 686 c 128,-1,8
 159 705 159 705 157 737 c 1,9,-1
 64 737 l 1,10,11
 68 664 68 664 113.5 624 c 128,-1,12
 159 584 159 584 236 584 c 0,0,1
EndSplineSet
EndChar

StartChar: brokenbar
Encoding: 166 166 186
Width: 288
VWidth: 0
Flags: W
PickledData: "(dp1
S'com.typemytype.robofont.layerData'
p2
(dp3
S'formes'
p4
(dp5
S'name'
p6
S'brokenbar'
p7
sS'lib'
p8
(dp9
sS'unicodes'
p10
(tsS'width'
p11
I288
sS'contours'
p12
(tsS'components'
p13
(tsS'anchors'
p14
(tssS'mask'
p15
(dp16
g6
S'brokenbar'
p17
sg8
(dp18
sg10
(tsg11
I288
sg12
(tsg13
(tsg14
(tsss."
LayerCount: 2
Fore
SplineSet
78 -179 m 1,0,-1
 210 -179 l 1,1,-1
 210 269 l 1,2,-1
 78 269 l 1,3,-1
 78 -179 l 1,0,-1
78 360 m 1,4,-1
 210 360 l 1,5,-1
 210 780 l 1,6,-1
 78 780 l 1,7,-1
 78 360 l 1,4,-1
EndSplineSet
EndChar

StartChar: bullet
Encoding: 8226 8226 187
Width: 282
VWidth: 0
Flags: W
PickledData: "(dp1
S'com.typemytype.robofont.layerData'
p2
(dp3
S'formes'
p4
(dp5
S'name'
p6
S'bullet'
p7
sS'lib'
p8
(dp9
sS'unicodes'
p10
(tsS'width'
p11
I282
sS'contours'
p12
(tsS'components'
p13
(tsS'anchors'
p14
(tssS'mask'
p15
(dp16
g6
S'bullet'
p17
sg8
(dp18
sg10
(tsg11
I282
sg12
(tsg13
(tsg14
(tsss."
LayerCount: 2
Fore
SplineSet
141 156 m 0,0,1
 186 156 186 156 218 187.5 c 128,-1,2
 250 219 250 219 250 265 c 128,-1,3
 250 311 250 311 218 342.5 c 128,-1,4
 186 374 186 374 141 374 c 0,5,6
 95 374 95 374 63.5 342 c 128,-1,7
 32 310 32 310 32 265 c 0,8,9
 32 219 32 219 63.5 187.5 c 128,-1,10
 95 156 95 156 141 156 c 0,0,1
EndSplineSet
EndChar

StartChar: c
Encoding: 99 99 188
Width: 458
VWidth: 0
Flags: W
PickledData: "(dp1
S'com.typemytype.robofont.layerData'
p2
(dp3
S'formes'
p4
(dp5
S'name'
p6
S'c'
sS'lib'
p7
(dp8
sS'unicodes'
p9
(tsS'width'
p10
I458
sS'contours'
p11
(tsS'components'
p12
(tsS'anchors'
p13
(tssS'mask'
p14
(dp15
g6
S'c'
sg7
(dp16
sg9
(tsg10
I458
sg11
(tsg12
(tsg13
(tsss."
LayerCount: 2
Fore
SplineSet
358 159 m 1,0,1
 324 112 324 112 281 112 c 0,2,3
 231 112 231 112 205 147.5 c 128,-1,4
 179 183 179 183 179 235 c 0,5,6
 179 288 179 288 203.5 326.5 c 128,-1,7
 228 365 228 365 279 365 c 0,8,9
 326 365 326 365 365 323 c 1,10,-1
 451 418 l 1,11,12
 416 457 416 457 375 475 c 128,-1,13
 334 493 334 493 275 493 c 0,14,15
 160 493 160 493 89.5 423.5 c 128,-1,16
 19 354 19 354 19 235 c 0,17,18
 19 117 19 117 91 51 c 128,-1,19
 163 -15 163 -15 277 -15 c 0,20,21
 392 -15 392 -15 456 73 c 1,22,-1
 358 159 l 1,0,1
EndSplineSet
EndChar

StartChar: cadeva
Encoding: 2330 2330 190
Width: 648
VWidth: 0
Flags: W
PickledData: "(dp1
S'com.typemytype.robofont.layerData'
p2
(dp3
S'formes'
p4
(dp5
S'name'
p6
S'cadeva'
p7
sS'lib'
p8
(dp9
sS'unicodes'
p10
(tsS'width'
p11
I648
sS'contours'
p12
(tsS'components'
p13
((dp14
S'transformation'
p15
(I1
I0
I0
I1
I-27
I0
tp16
sS'baseGlyph'
p17
S'cadeva_viramadeva'
p18
s(dp19
g15
(I1
I0
I0
I1
I331
I0
tp20
sg17
S'aasigndeva'
p21
stp22
sS'anchors'
p23
(tssS'mask'
p24
(dp25
g6
S'cadeva'
p26
sg8
(dp27
sg10
(tsg11
I648
sg12
(tsg13
(tsg23
(tsssS'com.typemytype.robofont.mark'
p28
(F0.94889999999999997
F0.61380000000000001
F0.1515
F1
tp29
s."
AnchorPoint: "DVAnchor3" 492 676 basechar 0
LayerCount: 2
Fore
SplineSet
14 506 m 1,0,-1
 311 506 l 1,1,-1
 311 466 l 1,2,-1
 311 398 l 1,3,4
 271 398 271 398 249 366.5 c 128,-1,5
 227 335 227 335 227 297 c 128,-1,6
 227 259 227 259 249.5 234 c 128,-1,7
 272 209 272 209 316 209 c 0,8,9
 359 209 359 209 382 235.5 c 128,-1,10
 405 262 405 262 405 300 c 2,11,-1
 405 579 l 1,12,-1
 314 579 l 1,13,-1
 -10 579 l 1,14,-1
 -10 687 l 1,15,-1
 314 687 l 1,16,-1
 579 687 l 1,17,-1
 658 687 l 1,18,-1
 658 579 l 1,19,-1
 579 579 l 1,20,-1
 567 579 l 1,21,-1
 567 0 l 1,22,-1
 405 0 l 1,23,-1
 405 125.163469123 l 1,24,25
 352.441843125 94 352.441843125 94 279 94 c 0,26,27
 176 94 176 94 118 139 c 128,-1,28
 60 184 60 184 60 264 c 0,29,30
 60 343.617759738 60 343.617759738 119.338434264 398 c 1,31,-1
 14 398 l 1,32,-1
 14 506 l 1,0,-1
EndSplineSet
EndChar

StartChar: cadeva_viramadeva
Encoding: 65554 -1 191
Width: 540
VWidth: 0
Flags: W
PickledData: "(dp1
S'com.typemytype.robofont.layerData'
p2
(dp3
S'formes'
p4
(dp5
S'name'
p6
S'cadeva_viramadeva'
p7
sS'lib'
p8
(dp9
sS'unicodes'
p10
(tsS'width'
p11
I540
sS'contours'
p12
((dp13
S'points'
p14
((dp15
S'segmentType'
p16
S'line'
p17
sS'x'
I579
sS'smooth'
p18
I00
sS'y'
I579
s(dp19
g16
S'line'
p20
sS'x'
I-37
sg18
I00
sS'y'
I579
s(dp21
g16
S'line'
p22
sS'x'
I-37
sg18
I00
sS'y'
I687
s(dp23
g16
S'line'
p24
sS'x'
I579
sg18
I00
sS'y'
I687
stp25
s(dp26
g14
((dp27
g16
S'line'
p28
sS'x'
I-27
sg18
I00
sS'y'
I506
s(dp29
g16
S'line'
p30
sS'x'
I311
sg18
I00
sS'y'
I506
s(dp31
g16
S'line'
p32
sS'x'
I311
sg18
I00
sS'y'
I398
s(dp33
S'y'
I398
sS'x'
I239
sg18
I00
s(dp34
S'y'
I338
sS'x'
I211
sg18
I00
s(dp35
g16
S'curve'
p36
sS'x'
I211
sg18
I01
sS'y'
I297
s(dp37
S'y'
I256
sS'x'
I211
sg18
I00
s(dp38
S'y'
I202
sS'x'
I235
sg18
I00
s(dp39
g16
S'curve'
p40
sS'x'
I311
sg18
I01
sS'y'
I202
s(dp41
S'y'
I202
sS'x'
I384
sg18
I00
s(dp42
S'y'
I259
sS'x'
I412
sg18
I00
s(dp43
g16
S'curve'
p44
sS'x'
I412
sg18
I00
sS'y'
I300
s(dp45
g16
S'line'
p46
sS'x'
I493
sg18
I00
sS'y'
I189
s(dp47
S'y'
I137
sS'x'
I468
sg18
I00
s(dp48
S'y'
I94
sS'x'
I411
sg18
I00
s(dp49
g16
S'curve'
p50
sS'x'
I289
sg18
I00
sS'y'
I94
s(dp51
S'y'
I94
sS'x'
I148
sg18
I00
s(dp52
S'y'
I158
sS'x'
I49
sg18
I00
s(dp53
g16
S'curve'
p54
sS'x'
I49
sg18
I00
sS'y'
I264
s(dp55
S'y'
I396
sS'x'
I49
sg18
I00
s(dp56
S'y'
I466
sS'x'
I184
sg18
I00
s(dp57
g16
S'curve'
p58
sS'x'
I311
sg18
I00
sS'y'
I466
s(dp59
g16
S'line'
p60
sS'x'
I311
sg18
I00
sS'y'
I398
s(dp61
g16
S'line'
p62
sS'x'
I-27
sg18
I00
sS'y'
I398
stp63
stp64
sS'components'
p65
((dp66
S'transformation'
p67
(I1
I0
I0
I1
I324
I0
tp68
sS'baseGlyph'
p69
S'aasigndeva'
p70
stp71
sS'anchors'
p72
(tssS'mask'
p73
(dp74
g6
S'cadeva_viramadeva'
p75
sg8
(dp76
sg10
(tsg11
I540
sg12
(tsg65
(tsg72
(tsssS'com.typemytype.robofont.mark'
p77
(F0.94889999999999997
F0.61380000000000001
F0.1515
F1
tp78
s."
LayerCount: 2
Fore
SplineSet
-27 506 m 1,0,-1
 351 506 l 1,1,-1
 351 466 l 1,2,-1
 351 398 l 1,3,4
 282 398 282 398 249 367 c 128,-1,5
 216 336 216 336 216 285 c 0,6,7
 216 248 216 248 236.5 225 c 128,-1,8
 257 202 257 202 295 202 c 0,9,10
 337 202 337 202 357.5 230 c 128,-1,11
 378 258 378 258 378 297 c 1,12,-1
 540 297 l 1,13,14
 540 206 540 206 465 150 c 128,-1,15
 390 94 390 94 281 94 c 0,16,17
 177 94 177 94 115.5 139 c 128,-1,18
 54 184 54 184 54 264 c 0,19,20
 54 343.583960972 54 343.583960972 124.354892443 398 c 1,21,-1
 -27 398 l 1,22,-1
 -27 506 l 1,0,-1
550 579 m 1,23,-1
 -10 579 l 1,24,-1
 -10 687 l 1,25,-1
 550 687 l 1,26,-1
 550 579 l 1,23,-1
EndSplineSet
Ligature2: "HalfFormslookup10 subtable" cadeva viramadeva
EndChar

StartChar: cadeva_viramadeva_cadeva
Encoding: 65555 -1 192
Width: 1081
VWidth: 0
Flags: W
PickledData: "(dp1
S'com.typemytype.robofont.layerData'
p2
(dp3
S'formes'
p4
(dp5
S'name'
p6
S'cadeva_viramadeva_cadeva'
p7
sS'lib'
p8
(dp9
sS'unicodes'
p10
(tsS'width'
p11
I1081
sS'contours'
p12
(tsS'components'
p13
((dp14
S'transformation'
p15
(I1
I0
I0
I1
I367
I0
tp16
sS'baseGlyph'
p17
S'cadeva'
p18
s(dp19
g15
(I1
I0
I0
I1
I-57
I0
tp20
sg17
S'cadeva_viramadeva'
p21
stp22
sS'anchors'
p23
(tssS'mask'
p24
(dp25
g6
S'cadeva_viramadeva_cadeva'
p26
sg8
(dp27
sg10
(tsg11
I1081
sg12
(tsg13
(tsg23
(tsssS'com.typemytype.robofont.mark'
p28
(F0
F1
F0
F1
tp29
s."
LayerCount: 2
Fore
SplineSet
490 506 m 1,0,-1
 752 506 l 1,1,-1
 752 466 l 1,2,-1
 752 398 l 1,3,4
 703 398 703 398 677.5 366 c 128,-1,5
 652 334 652 334 652 297 c 128,-1,6
 652 260 652 260 673.5 231 c 128,-1,7
 695 202 695 202 742 202 c 0,8,9
 792 202 792 202 814.5 232 c 128,-1,10
 837 262 837 262 837 300 c 2,11,-1
 837 579 l 1,12,-1
 -10 579 l 1,13,-1
 -10 687 l 1,14,-1
 1091 687 l 1,15,-1
 1091 579 l 1,16,-1
 999 579 l 1,17,-1
 999 0 l 1,18,-1
 837 0 l 1,19,-1
 837 126.713579661 l 1,20,21
 789.046037939 94 789.046037939 94 716 94 c 0,22,23
 588.440356012 94 588.440356012 94 526.973752937 163.48281529 c 1,24,25
 470.046249821 94 470.046249821 94 343 94 c 0,26,27
 253 94 253 94 191.5 139.5 c 128,-1,28
 130 185 130 185 130 264 c 0,29,30
 130 343.581414506 130 343.581414506 192.073342865 398 c 1,31,-1
 25 398 l 1,32,-1
 25 506 l 1,33,-1
 392 506 l 1,34,-1
 392 466 l 1,35,-1
 392 398 l 1,36,37
 343 398 343 398 317.5 366 c 128,-1,38
 292 334 292 334 292 297 c 128,-1,39
 292 260 292 260 316 231 c 128,-1,40
 340 202 340 202 392 202 c 0,41,42
 475.762224583 202 475.762224583 202 491.699253361 289.151450502 c 1,43,44
 496.171196153 321.573988317 496.171196153 321.573988317 511.756396692 348.946055527 c 128,-1,45
 527.341597232 376.318122738 527.341597232 376.318122738 552.073342865 398 c 1,46,-1
 490 398 l 1,47,-1
 490 506 l 1,0,-1
EndSplineSet
Ligature2: "PreBaseSubstitutionslookup1 subtable" cadeva_viramadeva cadeva
Ligature2: "LocalizedMrHalfFormslookup1 subtable" cadeva viramadeva cadeva
EndChar

StartChar: cadeva_viramadeva_radeva
Encoding: 65556 -1 193
Width: 647
VWidth: 0
Flags: W
PickledData: "(dp1
S'com.typemytype.robofont.layerData'
p2
(dp3
S'formes'
p4
(dp5
S'name'
p6
S'cadeva_viramadeva_radeva'
p7
sS'lib'
p8
(dp9
sS'unicodes'
p10
(tsS'width'
p11
I647
sS'contours'
p12
(tsS'components'
p13
((dp14
S'transformation'
p15
(I1
I0
I0
I1
I0
I0
tp16
sS'baseGlyph'
p17
S'cadeva'
p18
s(dp19
g15
(I1
I0
I0
I1
I171
I42
tp20
sg17
S'Rastick'
p21
stp22
sS'anchors'
p23
(tssS'mask'
p24
(dp25
g6
S'cadeva_viramadeva_radeva'
p26
sg8
(dp27
sg10
(tsg11
I647
sg12
(tsg13
(tsg23
(tsssS'com.typemytype.robofont.mark'
p28
(F0
F1
F0
F1
tp29
s."
LayerCount: 2
Fore
SplineSet
14 506 m 1,0,-1
 311 506 l 1,1,-1
 311 466 l 1,2,-1
 311 398 l 1,3,4
 271 398 271 398 249 366.5 c 128,-1,5
 227 335 227 335 227 297 c 128,-1,6
 227 259 227 259 249.5 234 c 128,-1,7
 272 209 272 209 316 209 c 0,8,9
 359 209 359 209 382 235.5 c 128,-1,10
 405 262 405 262 405 300 c 2,11,-1
 405 579 l 1,12,-1
 314 579 l 1,13,-1
 -10 579 l 1,14,-1
 -10 687 l 1,15,-1
 314 687 l 1,16,-1
 579 687 l 1,17,-1
 658 687 l 1,18,-1
 658 579 l 1,19,-1
 579 579 l 1,20,-1
 567 579 l 1,21,-1
 567 0 l 1,22,-1
 405 0 l 1,23,-1
 405 111.300613497 l 1,24,-1
 203 -56 l 1,25,-1
 134 28 l 1,26,-1
 219.206140651 98.5695029933 l 1,27,28
 143.492184636 110.896523709 143.492184636 110.896523709 101.746092318 154.011462466 c 128,-1,29
 60 197.126401223 60 197.126401223 60 264 c 0,30,31
 60 343.617787817 60 343.617787817 119.338334925 398 c 1,32,-1
 14 398 l 1,33,-1
 14 506 l 1,0,-1
EndSplineSet
Ligature2: "VattuVariantslookup30 subtable" cadeva viramadeva_radeva
EndChar

StartChar: candrabinduavagrahadeva
Encoding: 43255 43255 194
Width: 0
VWidth: 0
Flags: W
PickledData: "(dp1
S'com.typemytype.robofont.layerData'
p2
(dp3
S'formes'
p4
(dp5
S'name'
p6
S'candrabinduavagrahadeva'
p7
sS'lib'
p8
(dp9
sS'unicodes'
p10
(tsS'width'
p11
I0
sS'contours'
p12
(tsS'components'
p13
(tsS'anchors'
p14
(tssS'mask'
p15
(dp16
g6
S'candrabinduavagrahadeva'
p17
sg8
(dp18
sg10
(tsg11
I0
sg12
(tsg13
(tsg14
(tsssS'com.typemytype.robofont.mark'
p19
(F0.94889999999999997
F0.61380000000000001
F0.1515
F1
tp20
s."
LayerCount: 2
Fore
SplineSet
-182 600 m 0,0,1
 -205 600 -205 600 -218.5 615.5 c 128,-1,2
 -232 631 -232 631 -232 652 c 0,3,4
 -232 672 -232 672 -218 688 c 128,-1,5
 -204 704 -204 704 -182 704 c 0,6,7
 -158 704 -158 704 -145 688.5 c 128,-1,8
 -132 673 -132 673 -132 652 c 128,-1,9
 -132 631 -132 631 -145 615.5 c 128,-1,10
 -158 600 -158 600 -182 600 c 0,0,1
-263 650 m 1,11,12
 -263 622 -263 622 -244 595.5 c 128,-1,13
 -225 569 -225 569 -182 569 c 0,14,15
 -141 569 -141 569 -121 596 c 128,-1,16
 -101 623 -101 623 -101 650 c 1,17,-1
 -20 650 l 1,18,19
 -20 624 -20 624 -27.5 599 c 128,-1,20
 -35 574 -35 574 -51.5 549 c 128,-1,21
 -68 524 -68 524 -102 508.5 c 128,-1,22
 -136 493 -136 493 -182 493 c 128,-1,23
 -228 493 -228 493 -261.5 508.5 c 128,-1,24
 -295 524 -295 524 -312 549 c 128,-1,25
 -329 574 -329 574 -336.5 599 c 128,-1,26
 -344 624 -344 624 -344 650 c 1,27,-1
 -263 650 l 1,11,12
-318 119 m 1,28,29
 -298 100 -298 100 -262 85.5 c 128,-1,30
 -226 71 -226 71 -196 71 c 0,31,32
 -122 71 -122 71 -122 119 c 0,33,34
 -122 138 -122 138 -133.5 150.5 c 128,-1,35
 -145 163 -145 163 -174 176 c 2,36,-1
 -204 189 l 2,37,38
 -278 221 -278 221 -308 248 c 128,-1,39
 -338 275 -338 275 -338 318 c 0,40,41
 -338 369 -338 369 -298.5 400.5 c 128,-1,42
 -259 432 -259 432 -187 432 c 2,43,-1
 -27 432 l 1,44,-1
 -27 351 l 1,45,-1
 -139 351 l 2,46,47
 -216 351 -216 351 -216 318 c 0,48,49
 -216 312 -216 312 -215 307.5 c 128,-1,50
 -214 303 -214 303 -210.5 299 c 128,-1,51
 -207 295 -207 295 -204.5 292.5 c 128,-1,52
 -202 290 -202 290 -195 286.5 c 128,-1,53
 -188 283 -188 283 -184.5 281 c 128,-1,54
 -181 279 -181 279 -171 274.5 c 128,-1,55
 -161 270 -161 270 -156 268 c 2,56,-1
 -125 254 l 2,57,58
 -57 223 -57 223 -28.5 195 c 128,-1,59
 0 167 0 167 0 120 c 0,60,61
 0 62 0 62 -49 25.5 c 128,-1,62
 -98 -11 -98 -11 -189 -11 c 0,63,64
 -241 -11 -241 -11 -289.5 7.5 c 128,-1,65
 -338 26 -338 26 -368 54 c 1,66,-1
 -318 119 l 1,28,29
EndSplineSet
EndChar

StartChar: candrabindudeva
Encoding: 2305 2305 195
Width: 0
VWidth: 0
Flags: W
PickledData: "(dp1
S'com.typemytype.robofont.layerData'
p2
(dp3
S'formes'
p4
(dp5
S'name'
p6
S'candrabindudeva'
p7
sS'lib'
p8
(dp9
sS'unicodes'
p10
(tsS'width'
p11
I0
sS'contours'
p12
(tsS'components'
p13
(tsS'anchors'
p14
(tssS'mask'
p15
(dp16
g6
S'candrabindudeva'
p17
sg8
(dp18
sg10
(tsg11
I0
sg12
(tsg13
(tsg14
(tsssS'com.typemytype.robofont.mark'
p19
(F0.94889999999999997
F0.61380000000000001
F0.1515
F1
tp20
s."
AnchorPoint: "DVAnchor3" -171 669 mark 0
LayerCount: 2
Fore
SplineSet
-243 891 m 1,0,1
 -243 863 -243 863 -224 836.5 c 128,-1,2
 -205 810 -205 810 -162 810 c 0,3,4
 -121 810 -121 810 -101 837 c 128,-1,5
 -81 864 -81 864 -81 891 c 1,6,-1
 0 891 l 1,7,8
 0 865 0 865 -7.5 840 c 128,-1,9
 -15 815 -15 815 -31.5 790 c 128,-1,10
 -48 765 -48 765 -82 749.5 c 128,-1,11
 -116 734 -116 734 -162 734 c 128,-1,12
 -208 734 -208 734 -241.5 749.5 c 128,-1,13
 -275 765 -275 765 -292 790 c 128,-1,14
 -309 815 -309 815 -316.5 840 c 128,-1,15
 -324 865 -324 865 -324 891 c 1,16,-1
 -243 891 l 1,0,1
-162 841 m 0,17,18
 -185 841 -185 841 -198.5 856.5 c 128,-1,19
 -212 872 -212 872 -212 893 c 0,20,21
 -212 913 -212 913 -198 929 c 128,-1,22
 -184 945 -184 945 -162 945 c 0,23,24
 -138 945 -138 945 -125 929.5 c 128,-1,25
 -112 914 -112 914 -112 893 c 128,-1,26
 -112 872 -112 872 -125 856.5 c 128,-1,27
 -138 841 -138 841 -162 841 c 0,17,18
EndSplineSet
EndChar

StartChar: candrabindudigitthreedeva
Encoding: 43254 43254 196
Width: 0
VWidth: 0
Flags: W
PickledData: "(dp1
S'com.typemytype.robofont.guides'
p2
((dp3
S'angle'
p4
I0
sS'name'
p5
NsS'magnetic'
p6
I5
sS'isGlobal'
p7
I00
sS'y'
I-147
sS'x'
I341
s(dp8
g4
I0
sg5
Nsg6
I5
sg7
I00
sS'y'
I352
sS'x'
I-63
stp9
sS'com.typemytype.robofont.layerData'
p10
(dp11
S'formes'
p12
(dp13
g5
S'candrabindudigitthreedeva'
p14
sS'lib'
p15
(dp16
sS'unicodes'
p17
(tsS'width'
p18
I0
sS'contours'
p19
((dp20
S'points'
p21
((dp22
S'segmentType'
p23
S'line'
p24
sS'x'
I184
sS'smooth'
p25
I00
sS'y'
I249
s(dp26
g23
S'line'
p27
sS'x'
I229
sg25
I01
sS'y'
I249
s(dp28
S'y'
I249
sS'x'
I263
sg25
I00
s(dp29
S'y'
I272
sS'x'
I291
sg25
I00
s(dp30
g23
S'curve'
p31
sS'x'
I291
sg25
I01
sS'y'
I306
s(dp32
S'y'
I336
sS'x'
I291
sg25
I00
s(dp33
S'y'
I362
sS'x'
I263
sg25
I00
s(dp34
g23
S'curve'
p35
sS'x'
I228
sg25
I01
sS'y'
I362
s(dp36
S'y'
I362
sS'x'
I202
sg25
I00
s(dp37
S'y'
I357
sS'x'
I171
sg25
I00
s(dp38
g23
S'curve'
p39
sS'x'
I142
sg25
I00
sS'y'
I340
s(dp40
g23
S'line'
p41
sS'x'
I115
sg25
I00
sS'y'
I396
s(dp42
S'y'
I419
sS'x'
I155
sg25
I00
s(dp43
S'y'
I430
sS'x'
I187
sg25
I00
s(dp44
g23
S'curve'
p45
sS'x'
I228
sg25
I01
sS'y'
I430
s(dp46
S'y'
I430
sS'x'
I304
sg25
I00
s(dp47
S'y'
I384
sS'x'
I372
sg25
I00
s(dp48
g23
S'curve'
p49
sS'x'
I372
sg25
I01
sS'y'
I310
s(dp50
S'y'
I230
sS'x'
I372
sg25
I00
s(dp51
S'y'
I181
sS'x'
I278
sg25
I00
s(dp52
g23
S'curve'
p53
sS'x'
I219
sg25
I01
sS'y'
I181
s(dp54
g23
S'line'
p55
sS'x'
I184
sg25
I00
sS'y'
I181
stp56
s(dp57
g21
((dp58
g23
S'line'
p59
sS'x'
I131
sg25
I00
sS'y'
I78
s(dp60
S'y'
I43
sS'x'
I161
sg25
I00
s(dp61
S'y'
I36
sS'x'
I200
sg25
I00
s(dp62
g23
S'curve'
p63
sS'x'
I231
sg25
I01
sS'y'
I36
s(dp64
S'y'
I36
sS'x'
I275
sg25
I00
s(dp65
S'y'
I65
sS'x'
I303
sg25
I00
s(dp66
g23
S'curve'
p67
sS'x'
I303
sg25
I01
sS'y'
I112
s(dp68
S'y'
I148
sS'x'
I303
sg25
I00
s(dp69
S'y'
I181
sS'x'
I273
sg25
I00
s(dp70
g23
S'curve'
p71
sS'x'
I233
sg25
I00
sS'y'
I181
s(dp72
g23
S'line'
p73
sS'x'
I233
sg25
I00
sS'y'
I249
s(dp74
S'y'
I249
sS'x'
I299
sg25
I00
s(dp75
S'y'
I193
sS'x'
I384
sg25
I00
s(dp76
g23
S'curve'
p77
sS'x'
I384
sg25
I01
sS'y'
I112
s(dp78
S'y'
I13
sS'x'
I384
sg25
I00
s(dp79
S'y'
I-28
sS'x'
I311
sg25
I00
s(dp80
g23
S'curve'
p81
sS'x'
I231
sg25
I01
sS'y'
I-28
s(dp82
S'y'
I-28
sS'x'
I214
sg25
I00
s(dp83
S'y'
I-24
sS'x'
I196
sg25
I00
s(dp84
g23
S'curve'
p85
sS'x'
I169
sg25
I00
sS'y'
I-17
s(dp86
g23
S'line'
p87
sS'x'
I129
sg25
I00
sS'y'
I43
stp88
s(dp89
g21
((dp90
g23
S'line'
p91
sS'x'
I207
sg25
I00
sS'y'
I-180
s(dp92
g23
S'line'
p93
sS'x'
I46
sg25
I00
sS'y'
I90
s(dp94
g23
S'line'
p95
sS'x'
I103
sg25
I00
sS'y'
I126
s(dp96
g23
S'line'
p97
sS'x'
I264
sg25
I00
sS'y'
I-139
stp98
stp99
sS'components'
p100
(tsS'anchors'
p101
(tssS'mask'
p102
(dp103
g5
S'candrabindudigitthreedeva'
p104
sg15
(dp105
sg17
(tsg18
I0
sg19
(tsg100
(tsg101
(tsssS'com.typemytype.robofont.mark'
p106
(F0.94889999999999997
F0.61380000000000001
F0.1515
F1
tp107
s."
LayerCount: 2
Fore
SplineSet
-162 600 m 0,0,1
 -185 600 -185 600 -198.5 615.5 c 128,-1,2
 -212 631 -212 631 -212 652 c 0,3,4
 -212 672 -212 672 -198 688 c 128,-1,5
 -184 704 -184 704 -162 704 c 0,6,7
 -138 704 -138 704 -125 688.5 c 128,-1,8
 -112 673 -112 673 -112 652 c 128,-1,9
 -112 631 -112 631 -125 615.5 c 128,-1,10
 -138 600 -138 600 -162 600 c 0,0,1
-243 650 m 1,11,12
 -243 622 -243 622 -224 595.5 c 128,-1,13
 -205 569 -205 569 -162 569 c 0,14,15
 -121 569 -121 569 -101 596 c 128,-1,16
 -81 623 -81 623 -81 650 c 1,17,-1
 0 650 l 1,18,19
 0 624 0 624 -7.5 599 c 128,-1,20
 -15 574 -15 574 -31.5 549 c 128,-1,21
 -48 524 -48 524 -82 508.5 c 128,-1,22
 -116 493 -116 493 -162 493 c 128,-1,23
 -208 493 -208 493 -241.5 508.5 c 128,-1,24
 -275 524 -275 524 -292 549 c 128,-1,25
 -309 574 -309 574 -316.5 599 c 128,-1,26
 -324 624 -324 624 -324 650 c 1,27,-1
 -243 650 l 1,11,12
-203 -180 m 1,28,-1
 -364 90 l 1,29,-1
 -287 138 l 1,30,-1
 -256.075890072 87.1000675092 l 1,31,32
 -233.30015902 54 -233.30015902 54 -191 54 c 0,33,34
 -159 54 -159 54 -142.5 70 c 128,-1,35
 -126 86 -126 86 -126 112 c 0,36,37
 -126 146 -126 146 -149 166 c 128,-1,38
 -172 186 -172 186 -219 186 c 1,39,-1
 -219 247 l 1,40,-1
 -219 257 l 1,41,-1
 -207 257 l 2,42,43
 -138 257 -138 257 -138 308 c 0,44,45
 -138 331 -138 331 -151 342.5 c 128,-1,46
 -164 354 -164 354 -183 354 c 0,47,48
 -218 354 -218 354 -252 333 c 1,49,-1
 -288 397 l 1,50,51
 -241 432 -241 432 -176 432 c 0,52,53
 -106 432 -106 432 -66.5 400.5 c 128,-1,54
 -27 369 -27 369 -27 316 c 0,55,56
 -27 253.173070708 -27 253.173070708 -76.2741204455 218.718544532 c 1,57,58
 -14 183.14128866 -14 183.14128866 -14 115.000000001 c 0,59,60
 -14 45 -14 45 -62.5 9 c 128,-1,61
 -111 -27 -111 -27 -183 -27 c 0,62,63
 -184.881563958 -27 -184.881563958 -27 -186.781316187 -26.9562186978 c 1,64,-1
 -126 -127 l 1,65,-1
 -203 -180 l 1,28,-1
EndSplineSet
EndChar

StartChar: candrabindudigittwodeva
Encoding: 43253 43253 197
Width: 0
VWidth: 0
Flags: W
PickledData: "(dp1
S'com.typemytype.robofont.guides'
p2
((dp3
S'angle'
p4
I0
sS'name'
p5
NsS'magnetic'
p6
I5
sS'isGlobal'
p7
I00
sS'y'
I-142
sS'x'
I906
s(dp8
g4
I0
sg5
Nsg6
I5
sg7
I00
sS'y'
I407
sS'x'
I404
stp9
sS'com.typemytype.robofont.layerData'
p10
(dp11
S'formes'
p12
(dp13
g5
S'candrabindudigittwodeva'
p14
sS'lib'
p15
(dp16
sS'unicodes'
p17
(tsS'width'
p18
I0
sS'contours'
p19
(tsS'components'
p20
(tsS'anchors'
p21
(tssS'mask'
p22
(dp23
g5
S'candrabindudigittwodeva'
p24
sg15
(dp25
sg17
(tsg18
I0
sg19
(tsg20
(tsg21
(tsssS'com.typemytype.robofont.mark'
p26
(F0.94889999999999997
F0.61380000000000001
F0.1515
F1
tp27
s."
LayerCount: 2
Fore
SplineSet
-166 598 m 0,0,1
 -189 598 -189 598 -202.5 613.5 c 128,-1,2
 -216 629 -216 629 -216 650 c 0,3,4
 -216 670 -216 670 -202 686 c 128,-1,5
 -188 702 -188 702 -166 702 c 0,6,7
 -142 702 -142 702 -129 686.5 c 128,-1,8
 -116 671 -116 671 -116 650 c 128,-1,9
 -116 629 -116 629 -129 613.5 c 128,-1,10
 -142 598 -142 598 -166 598 c 0,0,1
-247 648 m 1,11,12
 -247 620 -247 620 -228 593.5 c 128,-1,13
 -209 567 -209 567 -166 567 c 0,14,15
 -125 567 -125 567 -105 594 c 128,-1,16
 -85 621 -85 621 -85 648 c 1,17,-1
 -4 648 l 1,18,19
 -4 622 -4 622 -11.5 597 c 128,-1,20
 -19 572 -19 572 -35.5 547 c 128,-1,21
 -52 522 -52 522 -86 506.5 c 128,-1,22
 -120 491 -120 491 -166 491 c 128,-1,23
 -212 491 -212 491 -245.5 506.5 c 128,-1,24
 -279 522 -279 522 -296 547 c 128,-1,25
 -313 572 -313 572 -320.5 597 c 128,-1,26
 -328 622 -328 622 -328 648 c 1,27,-1
 -247 648 l 1,11,12
-317 372 m 1,28,29
 -251 432 -251 432 -171 432 c 0,30,31
 -97 432 -97 432 -48.5 384 c 128,-1,32
 0 336 0 336 0 257 c 0,33,34
 0 237.005830462 0 237.005830462 -4.08126068788 218.25737762 c 128,-1,35
 -8.16252137575 199.508924778 -8.16252137575 199.508924778 -15.7301942219 183.443796546 c 128,-1,36
 -23.2978670681 167.378668315 -23.2978670681 167.378668315 -33.9321450511 153.160930804 c 128,-1,37
 -44.5664230342 138.943193294 -44.5664230342 138.943193294 -57.7990604762 127.549078513 c 128,-1,38
 -71.0316979182 116.154963733 -71.0316979182 116.154963733 -86.307844756 107.240672093 c 128,-1,39
 -101.583991594 98.3263804538 -101.583991594 98.3263804538 -118.570445191 92.3760096632 c 128,-1,40
 -135.556898789 86.4256388727 -135.556898789 86.4256388727 -153.572206231 83.5567652488 c 1,41,-1
 -33 -104 l 1,42,-1
 -117 -154 l 1,43,-1
 -287 115 l 1,44,-1
 -245 164 l 1,45,46
 -220.368552934 161.690801838 -220.368552934 161.690801838 -204.07651592 161.956671708 c 0,47,-1
 -204 161.956671708 l 2,48,49
 -203.308368233 161.956671708 -203.308368233 161.956671708 -201.646391771 161.978335854 c 128,-1,50
 -199.984415309 162 -199.984415309 162 -199 162 c 0,51,52
 -158 162 -158 162 -135 189.5 c 128,-1,53
 -112 217 -112 217 -112 257 c 0,54,55
 -112 299 -112 299 -132 325 c 128,-1,56
 -152 351 -152 351 -185 351 c 0,57,58
 -215 351 -215 351 -260 314 c 1,59,-1
 -317 372 l 1,28,29
EndSplineSet
EndChar

StartChar: candrabinduinverteddeva
Encoding: 2304 2304 198
Width: 0
VWidth: 0
Flags: W
PickledData: "(dp1
S'com.typemytype.robofont.guides'
p2
(tsS'com.typemytype.robofont.layerData'
p3
(dp4
S'formes'
p5
(dp6
S'name'
p7
S'candrabinduinverteddeva'
p8
sS'lib'
p9
(dp10
sS'unicodes'
p11
(tsS'width'
p12
I0
sS'contours'
p13
((dp14
S'points'
p15
((dp16
S'segmentType'
p17
S'curve'
p18
sS'x'
I-322
sS'smooth'
p19
I00
sS'y'
I846
s(dp20
g17
S'line'
p21
sS'x'
I-387
sg19
I00
sS'y'
I846
s(dp22
S'y'
I954
sS'x'
I-387
sg19
I00
s(dp23
S'y'
I1036
sS'x'
I-309
sg19
I00
s(dp24
g17
S'curve'
p25
sS'x'
I-193
sg19
I01
sS'y'
I1036
s(dp26
S'y'
I1036
sS'x'
I-77
sg19
I00
s(dp27
S'y'
I953
sS'x'
I0
sg19
I00
s(dp28
g17
S'curve'
p29
sS'x'
I0
sg19
I00
sS'y'
I846
s(dp30
g17
S'line'
p31
sS'x'
I-67
sg19
I00
sS'y'
I846
s(dp32
S'y'
I923
sS'x'
I-70
sg19
I00
s(dp33
S'y'
I978
sS'x'
I-116
sg19
I00
s(dp34
g17
S'curve'
p35
sS'x'
I-193
sg19
I01
sS'y'
I978
s(dp36
S'y'
I978
sS'x'
I-271
sg19
I00
s(dp37
S'y'
I924
sS'x'
I-319
sg19
I00
stp38
s(dp39
g15
((dp40
S'y'
I921
sS'x'
I-168
sg19
I00
s(dp41
S'y'
I906
sS'x'
I-146
sg19
I00
s(dp42
g17
S'curve'
p43
sS'x'
I-146
sg19
I00
sS'y'
I877
s(dp44
S'y'
I848
sS'x'
I-146
sg19
I00
s(dp45
S'y'
I833
sS'x'
I-168
sg19
I00
s(dp46
g17
S'curve'
p47
sS'x'
I-194
sg19
I01
sS'y'
I833
s(dp48
S'y'
I833
sS'x'
I-220
sg19
I00
s(dp49
S'y'
I848
sS'x'
I-242
sg19
I00
s(dp50
g17
S'curve'
p51
sS'x'
I-242
sg19
I01
sS'y'
I877
s(dp52
S'y'
I906
sS'x'
I-242
sg19
I00
s(dp53
S'y'
I921
sS'x'
I-220
sg19
I00
s(dp54
g17
S'curve'
p55
sS'x'
I-194
sg19
I01
sS'y'
I921
stp56
stp57
sS'components'
p58
(tsS'anchors'
p59
(tssS'mask'
p60
(dp61
g7
S'candrabinduinverteddeva'
p62
sg9
(dp63
sg11
(tsg12
I0
sg13
(tsg58
(tsg59
(tsssS'com.typemytype.robofont.mark'
p64
(F0.94889999999999997
F0.61380000000000001
F0.1515
F1
tp65
s."
AnchorPoint: "DVAnchor3" -164 666 mark 0
LayerCount: 2
Fore
SplineSet
-162 838 m 0,0,1
 -139 838 -139 838 -125.5 822.5 c 128,-1,2
 -112 807 -112 807 -112 786 c 0,3,4
 -112 766 -112 766 -126 750 c 128,-1,5
 -140 734 -140 734 -162 734 c 0,6,7
 -186 734 -186 734 -199 749.5 c 128,-1,8
 -212 765 -212 765 -212 786 c 128,-1,9
 -212 807 -212 807 -199 822.5 c 128,-1,10
 -186 838 -186 838 -162 838 c 0,0,1
-81 788 m 1,11,12
 -81 816 -81 816 -100 842.5 c 128,-1,13
 -119 869 -119 869 -162 869 c 0,14,15
 -203 869 -203 869 -223 842 c 128,-1,16
 -243 815 -243 815 -243 788 c 1,17,-1
 -324 788 l 1,18,19
 -324 814 -324 814 -316.5 839 c 128,-1,20
 -309 864 -309 864 -292.5 889 c 128,-1,21
 -276 914 -276 914 -242 929.5 c 128,-1,22
 -208 945 -208 945 -162 945 c 128,-1,23
 -116 945 -116 945 -82.5 929.5 c 128,-1,24
 -49 914 -49 914 -32 889 c 128,-1,25
 -15 864 -15 864 -7.5 839 c 128,-1,26
 0 814 0 814 0 788 c 1,27,-1
 -81 788 l 1,11,12
EndSplineSet
EndChar

StartChar: caretdeva
Encoding: 43258 43258 200
Width: 615
VWidth: 0
Flags: W
PickledData: "(dp1
S'com.typemytype.robofont.layerData'
p2
(dp3
S'formes'
p4
(dp5
S'name'
p6
S'caretdeva'
p7
sS'lib'
p8
(dp9
sS'unicodes'
p10
(tsS'width'
p11
I615
sS'contours'
p12
((dp13
S'points'
p14
((dp15
S'segmentType'
p16
S'line'
p17
sS'x'
I308
sS'smooth'
p18
I00
sS'y'
I715
s(dp19
g16
S'line'
p20
sS'x'
I484
sg18
I00
sS'y'
I945
s(dp21
g16
S'line'
p22
sS'x'
I544
sg18
I00
sS'y'
I892
s(dp23
g16
S'line'
p24
sS'x'
I345
sg18
I00
sS'y'
I666
s(dp25
g16
S'line'
p26
sS'x'
I272
sg18
I00
sS'y'
I666
s(dp27
S'y'
F669
sS'x'
F269.5
sg6
S'inserted'
p28
s(dp29
S'y'
F782
sS'x'
F169.5
s(dp30
g16
S'qcurve'
p31
sS'x'
I72
sg18
I00
sS'y'
I892
s(dp32
g16
S'line'
p33
sS'x'
I132
sg18
I00
sS'y'
I945
stp34
s(dp35
g14
((dp36
g16
S'line'
p37
sS'x'
I308
sg18
I00
sS'y'
I783
s(dp38
g16
S'line'
p39
sS'x'
I415
sg18
I00
sS'y'
I958
s(dp40
g16
S'line'
p41
sS'x'
I483
sg18
I00
sS'y'
I916
s(dp42
g16
S'line'
p43
sS'x'
I357
sg18
I00
sS'y'
I736
s(dp44
g16
S'line'
p45
sS'x'
I259
sg18
I00
sS'y'
I736
s(dp46
g16
S'line'
p47
sS'x'
I126
sg18
I00
sS'y'
I920
s(dp48
g16
S'line'
p49
sS'x'
I186
sg18
I00
sS'y'
I956
stp50
stp51
sS'components'
p52
(tsS'anchors'
p53
(tssS'mask'
p54
(dp55
g6
S'caretdeva'
p56
sg8
(dp57
sg10
(tsg11
I615
sg12
(tsg52
(tsg53
(tsssS'com.typemytype.robofont.mark'
p58
(F0
F0
F1
F1
tp59
s."
LayerCount: 2
Fore
SplineSet
308 813 m 1,0,-1
 413 960 l 1,1,-1
 497 907 l 1,2,-1
 377 736 l 1,3,-1
 239 736 l 1,4,-1
 120 901 l 1,5,-1
 193 960 l 1,6,-1
 308 813 l 1,0,-1
EndSplineSet
EndChar

StartChar: caron
Encoding: 711 711 201
Width: 500
VWidth: 0
Flags: W
PickledData: "(dp1
S'com.typemytype.robofont.layerData'
p2
(dp3
S'formes'
p4
(dp5
S'name'
p6
S'circumflex'
p7
sS'lib'
p8
(dp9
sS'unicodes'
p10
(tsS'width'
p11
I500
sS'contours'
p12
(tsS'components'
p13
(tsS'anchors'
p14
(tssS'mask'
p15
(dp16
g6
S'circumflex'
p17
sg8
(dp18
sg10
(tsg11
I500
sg12
(tsg13
(tsg14
(tsss."
LayerCount: 2
Fore
SplineSet
175 546 m 1,0,-1
 267 546 l 1,1,-1
 394 750 l 1,2,-1
 285 750 l 1,3,-1
 222 638 l 1,4,-1
 149 753 l 1,5,-1
 36 753 l 1,6,-1
 175 546 l 1,0,-1
EndSplineSet
EndChar

StartChar: cedilla
Encoding: 184 184 206
Width: 349
VWidth: 0
Flags: W
PickledData: "(dp1
S'com.typemytype.robofont.layerData'
p2
(dp3
S'formes'
p4
(dp5
S'name'
p6
S'cedilla'
p7
sS'lib'
p8
(dp9
sS'unicodes'
p10
(tsS'width'
p11
I349
sS'contours'
p12
(tsS'components'
p13
(tsS'anchors'
p14
(tssS'mask'
p15
(dp16
g6
S'cedilla'
p17
sg8
(dp18
sg10
(tsg11
I349
sg12
(tsg13
(tsg14
(tsss."
LayerCount: 2
Fore
SplineSet
125 -211 m 1,0,1
 149 -213 149 -213 156 -213 c 0,2,3
 221 -213 221 -213 255.5 -186 c 128,-1,4
 290 -159 290 -159 290 -112 c 0,5,6
 290 -83 290 -83 273.5 -60.5 c 128,-1,7
 257 -38 257 -38 229 -31 c 1,8,-1
 229 16 l 1,9,-1
 145 16 l 1,10,-1
 145 -68 l 1,11,12
 150 -67 150 -67 154 -67 c 0,13,14
 174 -67 174 -67 187 -77.5 c 128,-1,15
 200 -88 200 -88 200 -106 c 0,16,17
 200 -142 200 -142 148 -142 c 0,18,19
 138 -142 138 -142 125 -139 c 1,20,-1
 125 -211 l 1,0,1
EndSplineSet
EndChar

StartChar: cent
Encoding: 162 162 207
Width: 491
VWidth: 0
Flags: W
PickledData: "(dp1
S'com.typemytype.robofont.layerData'
p2
(dp3
S'formes'
p4
(dp5
S'name'
p6
S'cent'
p7
sS'lib'
p8
(dp9
sS'unicodes'
p10
(tsS'width'
p11
I491
sS'contours'
p12
((dp13
S'points'
p14
((dp15
S'segmentType'
p16
S'line'
p17
sS'x'
I367
sS'smooth'
p18
I00
sS'y'
I595
s(dp19
S'y'
I599
sS'x'
I346
sg18
I00
s(dp20
S'y'
I605
sS'x'
I311
sg18
I00
s(dp21
g16
S'qcurve'
p22
sS'x'
I299
sg18
I01
sS'y'
I605
s(dp23
S'y'
I605
sS'x'
I206
sg18
I00
s(dp24
S'y'
I457
sS'x'
I93
sg18
I00
s(dp25
g16
S'qcurve'
p26
sS'x'
I93
sg18
I01
sS'y'
I333
s(dp27
S'y'
I265
sS'x'
I93
sg18
I00
s(dp28
S'y'
I145
sS'x'
I134
sg18
I00
s(dp29
g16
S'qcurve'
p30
sS'x'
I173
sg18
I00
sS'y'
I101
stp31
s(dp32
g14
((dp33
g16
S'qcurve'
p34
sS'x'
I21
sg18
I01
sS'y'
I333
s(dp35
S'y'
I483
sS'x'
I21
sg18
I00
s(dp36
S'y'
I666
sS'x'
I173
sg18
I00
s(dp37
g16
S'qcurve'
p38
sS'x'
I299
sg18
I01
sS'y'
I666
s(dp39
S'y'
I666
sS'x'
I324
sg18
I00
s(dp40
S'y'
I660
sS'x'
I368
sg18
I00
s(dp41
g16
S'qcurve'
p42
sS'x'
I387
sg18
I00
sS'y'
I656
s(dp43
g16
S'line'
p44
sS'x'
I447
sg18
I00
sS'y'
I804
s(dp45
g16
S'line'
p46
sS'x'
I514
sg18
I00
sS'y'
I804
s(dp47
g16
S'line'
p48
sS'x'
I446
sg18
I00
sS'y'
I630
s(dp49
S'y'
I595
sS'x'
I498
sg18
I00
s(dp50
S'y'
I498
sS'x'
I561
sg18
I00
s(dp51
g16
S'qcurve'
p52
sS'x'
I565
sg18
I00
sS'y'
I446
s(dp53
g16
S'line'
p54
sS'x'
I491
sg18
I00
sS'y'
I446
s(dp55
S'y'
I477
sS'x'
I488
sg18
I00
s(dp56
S'y'
I541
sS'x'
I454
sg18
I00
s(dp57
g16
S'qcurve'
p58
sS'x'
I423
sg18
I00
sS'y'
I570
s(dp59
g16
S'line'
p60
sS'x'
I230
sg18
I00
sS'y'
I71
s(dp61
S'y'
I65
sS'x'
I250
sg18
I00
s(dp62
S'y'
I59
sS'x'
I285
sg18
I00
s(dp63
g16
S'qcurve'
p64
sS'x'
I299
sg18
I01
sS'y'
I59
s(dp65
S'y'
I59
sS'x'
I383
sg18
I00
s(dp66
S'y'
I150
sS'x'
I492
sg18
I00
s(dp67
g16
S'qcurve'
p68
sS'x'
I499
sg18
I00
sS'y'
I228
s(dp69
g16
S'line'
p70
sS'x'
I571
sg18
I00
sS'y'
I228
s(dp71
S'y'
I123
sS'x'
I561
sg18
I00
s(dp72
S'y'
I-3
sS'x'
I414
sg18
I00
s(dp73
g16
S'qcurve'
p74
sS'x'
I299
sg18
I01
sS'y'
I-3
s(dp75
S'y'
I-3
sS'x'
I277
sg18
I00
s(dp76
S'y'
I4
sS'x'
I229
sg18
I00
s(dp77
g16
S'qcurve'
p78
sS'x'
I206
sg18
I00
sS'y'
I11
s(dp79
g16
S'line'
p80
sS'x'
I153
sg18
I00
sS'y'
I-125
s(dp81
g16
S'line'
p82
sS'x'
I86
sg18
I00
sS'y'
I-125
s(dp83
g16
S'line'
p84
sS'x'
I150
sg18
I00
sS'y'
I37
s(dp85
S'y'
I81
sS'x'
I89
sg18
I00
s(dp86
S'y'
I238
sS'x'
I21
sg18
I00
stp87
s(dp88
g14
((dp89
g16
S'line'
p90
sS'x'
I67
sg18
I00
sS'y'
I35
s(dp91
g16
S'line'
p92
sS'x'
I400
sg18
I00
sS'y'
I726
s(dp93
g16
S'line'
p94
sS'x'
I505
sg18
I00
sS'y'
I677
s(dp95
g16
S'line'
p96
sS'x'
I172
sg18
I00
sS'y'
I-14
stp97
stp98
sS'components'
p99
(tsS'anchors'
p100
(tssS'mask'
p101
(dp102
g6
S'cent'
p103
sg8
(dp104
sg10
(tsg11
I491
sg12
(tsg99
(tsg100
(tsss."
LayerCount: 2
Fore
SplineSet
282.524851128 367.957198473 m 1,0,-1
 190.36403491 176.502375927 l 1,1,2
 179 203.96484772 179 203.96484772 179 238 c 0,3,4
 179 291 179 291 203.5 329.5 c 128,-1,5
 228 368 228 368 279 368 c 0,6,7
 280.786222281 368 280.786222281 368 282.524851128 367.957198473 c 1,0,-1
77 -59 m 1,8,-1
 141 -87 l 1,9,-1
 183.714330532 1.32901683996 l 1,10,11
 227.023456155 -12 227.023456155 -12 277 -12 c 0,12,13
 392 -12 392 -12 456 76 c 1,14,-1
 358 162 l 1,15,16
 324 115 324 115 281 115 c 0,17,18
 259.759174862 115 259.759174862 115 242.159373251 122.187592835 c 1,19,-1
 348.588589204 342.272699897 l 1,20,21
 350.640323475 340.475339068 350.640323475 340.475339068 352.726484882 338.515585696 c 128,-1,22
 354.812646289 336.555832324 354.812646289 336.555832324 356.871764577 334.495958785 c 128,-1,23
 358.930882864 332.436085246 358.930882864 332.436085246 360.907404903 330.368082328 c 128,-1,24
 362.883926943 328.30007941 362.883926943 328.30007941 365 326 c 1,25,-1
 451 421 l 1,26,27
 428.442460062 445.601500547 428.442460062 445.601500547 405.975057159 460.94224783 c 1,28,-1
 465 583 l 1,29,-1
 400 612 l 1,30,-1
 340.843106053 489.107505145 l 1,31,32
 326.120187212 492.562351059 326.120187212 492.562351059 309.745639486 494.281175529 c 128,-1,33
 293.371091761 496 293.371091761 496 275 496 c 0,34,35
 160 496 160 496 89.5 426.5 c 128,-1,36
 19 357 19 357 19 238 c 0,37,38
 19 97.6607624228 19 97.6607624228 120.27375391 30.8968695775 c 1,39,-1
 77 -59 l 1,8,-1
EndSplineSet
EndChar

StartChar: chadeva
Encoding: 2331 2331 208
Width: 756
VWidth: 0
Flags: W
PickledData: "(dp1
S'com.typemytype.robofont.layerData'
p2
(dp3
S'formes'
p4
(dp5
S'name'
p6
S'chadeva'
p7
sS'lib'
p8
(dp9
sS'unicodes'
p10
(tsS'width'
p11
I756
sS'contours'
p12
((dp13
S'points'
p14
((dp15
S'segmentType'
p16
S'move'
p17
sS'x'
I546
sS'smooth'
p18
I00
sS'y'
I635
s(dp19
g16
S'line'
p20
sS'x'
I546
sg18
I00
sS'y'
I496
stp21
stp22
sS'components'
p23
((dp24
S'transformation'
p25
(I1
I0
I0
I1
I0
I0
tp26
sS'baseGlyph'
p27
S'chadeva_viramadeva'
p28
stp29
sS'anchors'
p30
((dp31
S'y'
F100
sS'x'
F0
sg6
S'_right'
p32
s(dp33
S'y'
F100
sS'x'
F692
sg6
S'right'
p34
stp35
ssS'mask'
p36
(dp37
g6
S'chadeva'
p38
sg8
(dp39
sg10
(tsg11
I756
sg12
(tsg23
(tsg30
(tsssS'com.typemytype.robofont.mark'
p40
(F0.94889999999999997
F0.61380000000000001
F0.1515
F1
tp41
s."
AnchorPoint: "DVAnchor0" 321 34 basechar 0
AnchorPoint: "DVAnchor3" 526 664 basechar 0
LayerCount: 2
Fore
SplineSet
374 580 m 1,0,-1
 361 580 l 1,1,-1
 330 580 l 2,2,3
 229 580 229 580 229 514 c 0,4,5
 229 484 229 484 249.5 469 c 128,-1,6
 270 454 270 454 297 454 c 2,7,-1
 310 454 l 1,8,-1
 310 346 l 1,9,10
 259 346 259 346 230 318.5 c 128,-1,11
 201 291 201 291 201 251 c 0,12,13
 201 210 201 210 229.5 182 c 128,-1,14
 258 154 258 154 329 154 c 0,15,16
 388.003750688 154 388.003750688 154 443.229387905 175.34152877 c 128,-1,17
 498.455025122 196.683057541 498.455025122 196.683057541 535.858218761 232.512746947 c 1,18,19
 470.141305317 236.939523778 470.141305317 236.939523778 421.070652654 274.189670496 c 128,-1,20
 371.999999992 311.439817214 371.999999992 311.439817214 372 373 c 0,21,22
 372 418.299671344 372 418.299671344 399.842384768 451.292264595 c 128,-1,23
 427.684769536 484.284857847 427.684769536 484.284857847 472 501.295872859 c 1,24,-1
 472 580 l 1,25,-1
 374 580 l 1,0,-1
588 363 m 0,26,27
 588 425 588 425 551 425 c 0,28,29
 513 425 513 425 513 363 c 0,30,31
 513 303 513 303 551 303 c 0,32,33
 588 303 588 303 588 363 c 0,26,27
-10 580 m 1,34,-1
 -10 688 l 1,35,-1
 337 688 l 1,36,-1
 361 688 l 1,37,-1
 374 688 l 1,38,-1
 766 688 l 1,39,-1
 766 580 l 1,40,-1
 634 580 l 1,41,-1
 634 498.349714611 l 1,42,43
 676.358868133 479.61975571 676.358868133 479.61975571 702.679434066 444.838948065 c 128,-1,44
 729 410.05814042 729 410.05814042 729 363 c 2,45,-1
 729 362 l 2,46,47
 729 288 729 288 674.5 215 c 128,-1,48
 620 142 620 142 522 93 c 128,-1,49
 424 44 424 44 312 44 c 0,50,51
 168 44 168 44 98.5 100 c 128,-1,52
 29 156 29 156 29 239 c 0,53,54
 29 288.219677538 29 288.219677538 55.2995174628 328.939371267 c 128,-1,55
 81.5990349256 369.659064996 81.5990349256 369.659064996 126.466677141 399.013050407 c 1,56,57
 94.1590080258 422.034841897 94.1590080258 422.034841897 75.5795040129 453.148220654 c 128,-1,58
 57 484.261599412 57 484.261599412 57 523 c 0,59,60
 57 554.069478273 57 554.069478273 68.8346868082 580 c 1,61,-1
 -10 580 l 1,34,-1
EndSplineSet
EndChar

StartChar: chadeva_viramadeva
Encoding: 65557 -1 209
Width: 756
VWidth: 0
Flags: W
PickledData: "(dp1
S'com.typemytype.robofont.layerData'
p2
(dp3
S'formes'
p4
(dp5
S'name'
p6
S'chadeva_viramadeva'
p7
sS'lib'
p8
(dp9
sS'unicodes'
p10
(tsS'width'
p11
I756
sS'contours'
p12
(tsS'components'
p13
((dp14
S'transformation'
p15
(I1
I0
I0
I1
I0
I0
tp16
sS'baseGlyph'
p17
S'ghadeva_viramadeva'
p18
stp19
sS'anchors'
p20
(tssS'mask'
p21
(dp22
g6
S'chadeva_viramadeva'
p23
sg8
(dp24
sg10
(tsg11
I756
sg12
(tsg13
(tsg20
(tsssS'com.typemytype.robofont.mark'
p25
(F0.94889999999999997
F0.61380000000000001
F0.1515
F1
tp26
s."
LayerCount: 2
Fore
SplineSet
-10 580 m 1,0,-1
 -10 688 l 1,1,-1
 337 688 l 1,2,-1
 361 688 l 1,3,-1
 374 688 l 1,4,-1
 766 688 l 1,5,-1
 766 580 l 1,6,-1
 374 580 l 1,7,-1
 361 580 l 1,8,-1
 330 580 l 2,9,10
 229 580 229 580 229 514 c 0,11,12
 229 484 229 484 249.5 469 c 128,-1,13
 270 454 270 454 297 454 c 2,14,-1
 310 454 l 1,15,-1
 310 346 l 1,16,17
 259 346 259 346 230 318.5 c 128,-1,18
 201 291 201 291 201 251 c 0,19,20
 201 210 201 210 229.5 182 c 128,-1,21
 258 154 258 154 329 154 c 0,22,23
 388.00368158 154 388.00368158 154 443.229361388 175.341500559 c 128,-1,24
 498.455041197 196.683001117 498.455041197 196.683001117 535.858251469 232.512744768 c 1,25,26
 470.141329442 236.939512734 470.141329442 236.939512734 421.070664707 274.189660895 c 128,-1,27
 371.999999973 311.439809056 371.999999973 311.439809056 372 373 c 0,28,29
 372 438 372 438 427.5 477 c 128,-1,30
 483 516 483 516 551 516 c 128,-1,31
 619 516 619 516 674 474.5 c 128,-1,32
 729 433 729 433 729 363 c 0,33,34
 729 362.832869588 729 362.832869588 728.997876917 362.499536235 c 0,35,-1
 729 362 l 2,36,37
 729 288 729 288 674.5 215 c 128,-1,38
 620 142 620 142 522 93 c 128,-1,39
 424 44 424 44 312 44 c 0,40,41
 168 44 168 44 98.5 100 c 128,-1,42
 29 156 29 156 29 239 c 0,43,44
 29 335.246834871 29 335.246834871 126.466649681 399.012970409 c 1,45,46
 57 448.513503729 57 448.513503729 57 523 c 0,47,48
 57 554.069472039 57 554.069472039 68.8347130917 580 c 1,49,-1
 -10 580 l 1,0,-1
588 363 m 0,50,51
 588 425 588 425 551 425 c 0,52,53
 513 425 513 425 513 363 c 0,54,55
 513 303 513 303 551 303 c 0,56,57
 588 303 588 303 588 363 c 0,50,51
EndSplineSet
Ligature2: "HalfFormslookup10 subtable" chadeva viramadeva
EndChar

